<svg width="2046" height="2031" xmlns="http://www.w3.org/2000/svg" xmlns:xlink="http://www.w3.org/1999/xlink" xml:space="preserve" overflow="hidden"><defs><clipPath id="clip0"><rect x="16" y="140" width="2046" height="2031"/></clipPath></defs><g clip-path="url(#clip0)" transform="translate(-16 -140)"><g><path d="M339.5 1052.5 1974.5 1052.5M339.5 911.53 1974.5 911.53M339.5 770.526 1974.5 770.526M339.5 628.521 1974.5 628.521M339.5 487.516 1974.5 487.516M339.5 346.512 1974.5 346.512M339.5 204.5 1974.5 204.5" stroke="#777777" stroke-width="3.4375" stroke-linejoin="round" stroke-miterlimit="10" fill="none"/></g><g><path d="M748.525 204.5 748.525 1052.5M1156.54 204.5 1156.54 1052.5M1565.55 204.5 1565.55 1052.5M1974.5 204.5 1974.5 1052.5" stroke="#777777" stroke-width="3.4375" stroke-linejoin="round" stroke-miterlimit="10" fill="none"/></g><g><rect x="339.5" y="204.5" width="1635" height="848" stroke="#777777" stroke-width="3.4375" stroke-linejoin="round" stroke-miterlimit="10" fill="none"/></g><g><path d="M0 0 0.000360892 848" stroke="#777777" stroke-width="3.4375" stroke-linejoin="round" stroke-miterlimit="10" fill="none" fill-rule="evenodd" transform="matrix(1 0 0 -1 339.5 1052.5)"/></g><g><path d="M339.5 749.525 340.511 749.525 341.511 749.525 343.511 748.525 344.511 747.525 346.512 746.525 347.512 745.525 348.512 743.525 350.512 740.524 351.512 737.524 352.512 737.524 352.512 735.524 354.512 731.524 355.512 728.524 356.512 725.524 358.512 721.524 359.512 721.524 359.512 718.524 361.512 715.524 362.512 711.523 363.512 708.523 365.512 705.523 366.512 705.523 366.512 702.523 367.512 702.523 367.512 698.523 369.512 694.523 370.512 691.523 371.512 686.523 373.512 682.523 374.512 682.523 374.512 678.522 376.513 678.522 376.513 675.522 377.513 675.522 377.513 671.522 378.513 671.522 378.513 666.522 380.513 666.522 380.513 662.522 381.513 662.522 381.513 658.522 382.513 654.522 384.513 650.522 385.513 646.521 386.513 646.521 386.513 641.521 388.513 637.521 389.513 633.521 390.513 629.521 392.513 624.521 393.513 624.521 393.513 620.521 395.513 620.521 395.513 615.52 396.513 610.52 397.513 605.52 399.513 601.52 400.513 601.52 400.513 596.52 401.513 596.52 401.513 591.52 403.513 586.519 404.513 581.519 405.513 576.519 407.514 570.519 408.514 570.519 408.514 565.519 410.514 565.519 410.514 559.519 411.514 559.519 411.514 554.518 412.514 554.518 412.514 549.518 414.514 549.518 414.514 544.518 415.514 544.518 415.514 540.518 416.514 540.518 416.514 535.518 418.514 535.518 418.514 530.518 419.514 530.518 419.514 525.517 420.514 525.517 420.514 521.517 422.514 521.517 422.514 516.517 423.514 512.517 425.514 507.517 426.514 503.517 427.514 503.517 427.514 499.517 429.514 499.517 429.514 495.516 430.514 495.516 430.514 491.516 431.514 491.516 431.514 487.516 433.514 487.516 433.514 484.516 434.514 484.516 434.514 480.516 435.514 480.516 435.514 478.516 437.515 478.516 437.515 477.516 438.515 477.516 438.515 475.516 440.515 475.516 440.515 474.516 441.515 474.516 441.515 473.516 442.515 473.516 442.515 472.516 444.515 472.516 444.515 472.516 445.515 472.516 445.515 471.516 446.515 471.516 448.515 471.516 448.515 472.516 449.515 472.516 449.515 472.516 450.515 472.516 450.515 473.516 452.515 473.516 452.515 475.516 453.515 475.516 453.515 477.516 455.515 477.516 455.515 479.516 456.515 479.516 456.515 480.516 457.515 480.516 457.515 483.516 459.515 483.516 459.515 485.516 460.515 485.516 460.515 488.516 461.515 488.516 461.515 492.516 463.515 492.516 463.515 495.516 464.515 495.516 464.515 500.517 465.515 500.517 465.515 504.517 467.516 504.517 467.516 508.517 468.516 508.517 470.516 512.517 470.516 516.517 471.516 516.517 471.516 520.517 472.516 520.517 472.516 524.517 474.516 524.517 474.516 529.518 475.516 529.518 475.516 534.518 476.516 534.518 476.516 539.518 478.516 539.518 479.516 543.518 480.516 548.518 482.516 551.518 482.516 555.518 483.516 555.518 485.516 560.519 486.516 564.519 487.516 569.519 489.516 574.519 489.516 579.519 490.516 579.519 490.516 583.519 491.516 583.519 491.516 588.519 493.516 588.519 493.516 592.52 494.516 592.52 494.516 596.52 495.516 596.52 497.516 601.52 497.516 606.52 498.517 606.52 498.517 611.52 500.517 611.52 500.517 616.52 501.517 616.52 501.517 620.521 502.517 620.521 504.517 625.521 505.517 631.521 506.517 635.521 508.517 641.521 509.517 646.521 509.517 651.522 510.517 651.522 512.517 657.522 513.517 662.522 514.517 667.522 516.517 672.522 517.517 677.522 519.517 683.523 520.517 688.523 520.517 693.523 521.517 693.523 521.517 698.523 523.517 698.523 524.517 703.523 525.517 708.523 527.517 712.524 528.518 717.524 529.518 721.524 531.518 726.524 532.518 730.524 534.518 734.524 535.518 738.524 536.518 742.525 538.518 745.525 539.518 749.525 540.518 752.525 542.518 755.525 543.518 758.525 544.518 760.525 546.518 762.525 547.518 764.525 549.518 765.525 550.518 766.525 551.518 766.525 551.518 767.525 553.518 768.525 554.518 768.525 555.518 768.525 557.518 768.525 558.518 768.525 558.518 768.525 559.519 767.525 561.519 765.525 562.519 764.525 564.519 761.525 565.519 759.525 566.519 759.525 566.519 757.525 568.519 754.525 569.519 750.525 570.519 746.525 572.519 742.525 573.519 742.525 573.519 738.524 574.519 738.524 574.519 734.524 576.519 734.524 576.519 730.524 577.519 726.524 579.519 726.524 579.519 722.524 580.519 718.524 581.519 714.524 583.519 710.523 584.519 706.523 585.519 706.523 585.519 702.523 587.519 698.523 588.519 693.523 589.52 688.523 591.52 684.523 592.52 684.523 592.52 679.522 594.52 679.522 594.52 675.522 595.52 670.522 596.52 664.522 598.52 660.522 599.52 655.522 600.52 655.522 600.52 651.522 602.52 646.521 603.52 646.521 603.52 641.521 604.52 641.521 604.52 636.521 606.52 636.521 606.52 631.521 607.52 631.521 607.52 626.521 609.52 626.521 609.52 621.521 610.52 621.521 610.52 616.52 611.52 616.52 611.52 611.52 613.52 611.52 613.52 605.52 614.52 600.52 615.52 595.52 617.52 589.52 618.521 584.519 619.521 584.519 619.521 578.519 621.521 578.519 621.521 572.519 622.521 566.519 624.521 560.519 625.521 554.518 626.521 554.518 626.521 549.518 628.521 549.518 628.521 543.518 629.521 543.518 629.521 537.518 630.521 537.518 630.521 531.518 632.521 531.518 632.521 526.517 633.521 526.517 633.521 520.517 634.521 520.517 634.521 515.517 636.521 515.517 636.521 510.517 637.521 510.517 637.521 504.517 639.521 504.517 639.521 499.517 640.521 499.517 640.521 495.516 641.521 495.516 641.521 490.516 643.521 485.516 644.521 481.516 645.521 476.516 647.521 476.516 647.521 472.516 648.521 472.516 648.521 468.516 649.521 468.516 649.521 464.515 651.522 464.515 651.522 460.515 652.522 460.515 652.522 457.515 653.522 457.515 653.522 455.515 655.522 455.515 655.522 454.515 656.522 454.515 656.522 452.515 658.522 452.515 658.522 451.515 659.522 451.515 659.522 449.515 660.522 449.515 662.522 449.515 662.522 448.515 663.522 448.515 663.522 448.515 664.522 448.515 664.522 449.515 666.522 449.515 666.522 449.515 667.522 449.515 667.522 450.515 668.522 450.515 668.522 451.515 670.522 451.515 670.522 453.515 671.522 453.515 671.522 455.515 673.522 455.515 674.522 457.515 674.522 459.515 675.522 459.515 677.522 462.515 678.522 465.515 679.522 469.516 681.523 473.516 681.523 477.516 682.523 477.516 682.523 481.516 683.523 481.516 683.523 485.516 685.523 485.516 685.523 489.516 686.523 489.516 686.523 494.516 688.523 494.516 689.523 499.517 689.523 503.517 690.523 503.517 690.523 508.517 692.523 508.517 692.523 512.517 693.523 512.517 693.523 518.517 694.523 518.517 696.523 523.517 696.523 528.518 697.523 528.518 697.523 533.518 698.523 533.518 700.523 537.518 701.523 541.518 701.523 546.518 703.523 546.518 704.523 551.518 705.523 557.518 707.523 562.519 708.523 568.519 708.523 572.519 709.523 572.519 711.523 577.519 712.524 582.519 713.524 587.519 715.524 593.52 716.524 599.52 718.524 605.52 718.524 610.52 719.524 610.52 719.524 616.52 720.524 616.52 720.524 621.521 722.524 621.521 723.524 627.521 724.524 632.521 726.524 639.521 727.524 644.521 728.524 650.522 730.524 656.522 731.524 662.522 733.524 668.522 734.524 674.522 735.524 680.523 737.524 685.523 738.524 691.523 739.524 696.523 741.525 701.523 741.525 706.523 742.525 706.523 743.525 711.523 745.525 717.524 746.525 722.524 748.525 727.524 749.525 732.524 750.525 737.524 752.525 741.524 753.525 747.525 754.525 751.525 756.525 756.525 757.525 760.525 758.525 760.525 758.525 764.525 760.525 764.525 760.525 767.525 761.525 771.525 763.525 774.526 764.525 777.526 765.525 779.526 767.525 782.526 768.525 784.526 769.525 786.526 771.526 786.526 771.526 787.526 772.526 788.526 773.526 789.526 775.526 790.526 776.526 791.526 778.526 791.526 778.526 791.526 779.526 791.526 780.526 790.526 782.526 790.526 783.526 789.526 784.526 787.526 786.526 787.526 786.526 785.526 787.526 783.526 788.526 780.526 790.526 780.526 790.526 777.526 791.526 774.526 792.526 774.526 792.526 770.525 794.526 770.525 794.526 766.525 795.526 766.525 795.526 762.525 797.526 758.525 798.526 758.525 798.526 753.525 799.526 749.525 801.526 745.525 802.526 740.524 803.526 736.524 805.527 736.524 805.527 732.524 806.527 732.524 806.527 728.524 807.527 723.524 809.527 718.524 810.527 713.524 812.527 713.524 812.527 708.523 813.527 708.523 813.527 703.523 814.527 698.523 816.527 692.523 817.527 686.523 818.527 686.523 818.527 681.523 820.527 681.523 820.527 676.522 821.527 676.522 821.527 672.522 822.527 672.522 822.527 667.522 824.527 667.522 824.527 662.522 825.527 662.522 825.527 656.522 827.527 656.522 827.527 651.522 828.527 651.522 828.527 645.521 829.527 645.521 829.527 639.521 831.527 639.521 831.527 633.521 832.527 633.521 832.527 628.521 833.528 628.521 833.528 622.521 835.528 617.52 836.528 610.52 837.528 604.52 839.528 604.52 839.528 598.52 840.528 598.52 840.528 592.52 842.528 586.519 843.528 580.519 844.528 580.519 844.528 574.519 846.528 574.519 846.528 567.519 847.528 567.519 847.528 560.519 848.528 560.519 848.528 553.518 850.528 553.518 850.528 547.518 851.528 547.518 851.528 541.518 852.528 541.518 852.528 534.518 854.528 534.518 854.528 528.518 855.528 528.518 855.528 522.517 857.528 522.517 857.528 516.517 858.528 516.517 858.528 510.517 859.528 510.517 859.528 504.517 861.528 504.517 861.528 498.517 862.528 493.516 863.529 487.516 865.529 487.516 865.529 482.516 866.529 482.516 866.529 476.516 867.529 476.516 867.529 471.516 869.529 471.516 869.529 466.516 870.529 466.516 870.529 461.515 872.529 461.515 872.529 456.515 873.529 456.515 874.529 452.515 874.529 447.515 876.529 447.515 876.529 444.515 877.529 444.515 877.529 441.515 878.529 441.515 878.529 439.515 880.529 439.515 880.529 437.515 881.529 437.515 881.529 435.514 882.529 435.514 882.529 433.514 884.529 433.514 884.529 431.514 885.529 431.514 887.529 430.514 887.529 429.514 888.529 429.514 889.529 429.514 891.529 429.514 891.529 429.514 892.529 429.514 892.529 430.514 893.529 430.514 893.529 431.514 895.53 431.514 895.53 432.514 896.53 432.514 896.53 434.514 897.53 434.514 897.53 436.514 899.53 436.514 899.53 439.515 900.53 439.515 902.53 441.515 902.53 445.515 903.53 445.515 903.53 448.515 904.53 448.515 904.53 452.515 906.53 452.515 906.53 456.515 907.53 456.515 908.53 460.515 908.53 465.515 910.53 465.515 910.53 469.516 911.53 469.516 911.53 474.516 912.53 474.516 912.53 479.516 914.53 479.516 915.53 484.516 916.53 489.516 918.53 494.516 919.53 499.517 921.53 505.517 921.53 511.517 922.53 511.517 923.53 516.517 925.531 521.517 926.531 526.517 927.531 531.518 929.531 536.518 930.531 542.518 931.531 547.518 933.531 554.518 933.531 559.519 934.531 559.519 936.531 565.519 936.531 571.519 937.531 571.519 938.531 576.519 940.531 581.519 941.531 588.519 942.531 594.52 944.531 600.52 945.531 606.52 946.531 612.52 948.531 618.52 949.531 625.521 951.531 631.521 952.531 638.521 953.531 645.521 955.531 651.522 956.532 658.522 957.532 664.522 959.532 671.522 960.532 677.522 961.532 684.523 963.532 690.523 964.532 696.523 966.532 702.523 967.532 708.523 968.532 714.524 970.532 714.524 970.532 720.524 971.532 725.524 972.532 731.524 974.532 737.524 975.532 743.525 976.532 749.525 978.532 749.525 978.532 754.525 979.532 760.525 981.532 765.525 982.532 765.525 982.532 770.525 983.532 775.526 985.533 780.526 986.533 784.526 987.533 788.526 989.533 791.526 990.533 791.526 990.533 795.526 991.533 798.526 993.533 801.526 994.533 803.527 996.533 806.527 997.533 806.527 997.533 808.527 998.533 808.527 998.533 810.527 1000.53 812.527 1001.53 813.527 1002.53 813.527 1002.53 814.527 1004.53 815.527 1005.53 815.527 1005.53 815.527 1006.53 815.527 1006.53 815.527 1008.53 815.527 1008.53 815.527 1009.53 814.527 1011.53 814.527 1011.53 813.527 1012.53 811.527 1013.53 809.527 1015.53 807.527 1016.53 804.527 1017.53 804.527 1017.53 801.526 1019.53 798.526 1020.53 794.526 1021.53 791.526 1023.53 787.526 1024.53 787.526 1024.53 783.526 1026.53 783.526 1026.53 779.526 1027.53 775.526 1028.53 771.525 1030.53 766.525 1031.53 766.525 1031.53 762.525 1032.53 762.525 1032.53 757.525 1034.53 757.525 1034.53 752.525 1035.53 752.525 1035.53 747.525 1036.53 747.525 1036.53 743.525 1038.53 743.525 1038.53 737.524 1039.53 737.524 1039.53 732.524 1041.53 732.524 1041.53 727.524 1042.53 727.524 1042.53 721.524 1043.53 721.524 1043.53 716.524 1045.53 716.524 1045.53 710.523 1046.53 710.523 1046.53 705.523 1047.53 699.523 1049.53 693.523 1050.53 688.523 1051.53 688.523 1051.53 682.523 1053.53 682.523 1053.53 676.522 1054.53 670.522 1055.53 670.522 1055.53 664.522 1057.53 664.522 1057.53 658.522 1058.53 658.522 1058.53 651.522 1060.53 651.522 1060.53 644.521 1061.53 644.521 1061.53 637.521 1062.54 637.521 1062.54 630.521 1064.54 630.521 1064.54 624.521 1065.54 624.521 1065.54 617.52 1066.54 617.52 1066.54 610.52 1068.54 610.52 1068.54 603.52 1069.54 603.52 1069.54 596.52 1070.54 596.52 1070.54 589.52 1072.54 589.52 1072.54 582.519 1073.54 582.519 1073.54 575.519 1075.54 575.519 1075.54 567.519 1076.54 567.519 1076.54 560.519 1077.54 560.519 1079.54 553.518 1079.54 546.518 1080.54 546.518 1080.54 538.518 1081.54 538.518 1081.54 531.518 1083.54 531.518 1083.54 524.517 1084.54 524.517 1084.54 517.517 1085.54 517.517 1085.54 510.517 1087.54 510.517 1087.54 503.517 1088.54 503.517 1088.54 495.516 1090.54 495.516 1090.54 488.516 1091.54 488.516 1091.54 481.516 1092.54 481.516 1094.54 474.516 1094.54 468.516 1095.54 468.516 1095.54 461.515 1096.54 461.515 1098.54 454.515 1099.54 448.515 1099.54 442.515 1100.54 442.515 1102.54 437.515 1103.54 431.514 1105.54 426.514 1105.54 421.514 1106.54 421.514 1107.54 416.514 1107.54 410.514 1109.54 410.514 1109.54 406.514 1110.54 406.514 1110.54 402.513 1111.54 402.513 1111.54 399.513 1113.54 399.513 1114.54 396.513 1114.54 392.513 1115.54 392.513 1117.54 389.513 1118.54 387.513 1120.54 386.513 1120.54 384.513 1121.54 384.513 1122.54 383.513 1124.54 382.513 1125.54 382.513 1126.54 382.513 1128.54 382.513 1128.54 383.513 1129.54 383.513 1129.54 384.513 1130.54 384.513 1130.54 385.513 1132.54 385.513 1132.54 387.513 1133.54 387.513 1135.54 389.513 1135.54 391.513 1136.54 391.513 1136.54 394.513 1137.54 394.513 1139.54 397.513 1140.54 400.513 1141.54 404.513 1143.54 409.514 1144.54 413.514 1145.54 417.514 1147.54 421.514 1147.54 426.514 1148.54 426.514 1150.54 431.514 1151.54 437.515 1152.54 442.515 1154.54 448.515 1155.54 453.515 1156.54 458.515 1158.54 464.515 1159.54 470.516 1160.54 477.516 1162.54 483.516 1162.54 488.516 1163.54 488.516 1165.54 494.516 1166.54 500.517 1167.54 506.517 1169.54 513.517 1170.54 520.517 1171.54 526.517 1173.54 533.518 1174.54 539.518 1175.54 545.518 1177.54 552.518 1178.54 559.519 1180.54 567.519 1181.54 575.519 1182.54 583.519 1184.54 590.52 1185.54 598.52 1186.54 605.52 1188.54 613.52 1189.54 621.521 1190.54 621.521 1190.54 629.521 1192.54 637.521 1193.54 637.521 1193.54 645.521 1194.54 645.521 1194.54 652.522 1196.54 660.522 1197.54 667.522 1199.54 675.522 1200.54 683.523 1201.54 690.523 1203.54 690.523 1203.54 697.523 1204.54 704.523 1205.54 711.523 1207.54 719.524 1208.54 726.524 1209.54 733.524 1211.54 733.524 1211.54 740.524 1212.54 740.524 1212.54 748.525 1214.54 748.525 1214.54 755.525 1215.54 755.525 1215.54 762.525 1216.54 762.525 1216.54 769.525 1218.54 776.526 1219.54 782.526 1220.54 788.526 1222.54 794.526 1223.54 794.526 1223.54 800.526 1224.54 800.526 1224.54 806.527 1226.54 811.527 1227.54 816.527 1229.54 821.527 1230.54 826.527 1231.54 826.527 1231.54 831.527 1233.54 831.527 1233.54 836.528 1234.54 836.528 1234.54 840.528 1235.54 840.528 1235.54 844.528 1237.54 844.528 1237.54 848.528 1238.54 851.528 1239.54 851.528 1239.54 854.528 1241.54 857.528 1242.54 859.528 1244.54 859.528 1244.54 861.528 1245.54 861.528 1245.54 863.529 1246.54 865.529 1248.54 867.529 1249.54 868.529 1250.54 868.529 1250.54 868.529 1252.54 868.529 1252.54 868.529 1253.54 868.529 1253.54 867.529 1254.54 867.529 1254.54 867.529 1256.54 867.529 1256.54 866.529 1257.54 866.529 1257.54 865.529 1259.54 865.529 1259.54 863.529 1260.54 863.529 1260.54 861.528 1261.54 861.528 1261.54 858.528 1263.54 858.528 1263.54 856.528 1264.54 856.528 1264.54 853.528 1265.54 853.528 1265.54 850.528 1267.54 850.528 1267.54 847.528 1268.54 847.528 1268.54 844.528 1269.54 840.528 1271.54 840.528 1271.54 835.528 1272.54 835.528 1272.54 831.527 1274.54 826.527 1275.54 826.527 1275.54 822.527 1276.54 822.527 1276.54 818.527 1278.54 818.527 1278.54 813.527 1279.54 813.527 1279.54 808.527 1280.54 808.527 1280.54 803.527 1282.54 803.527 1282.54 798.526 1283.54 798.526 1283.54 792.526 1284.54 792.526 1284.54 787.526 1286.54 787.526 1286.54 781.526 1287.54 781.526 1287.54 776.526 1289.54 776.526 1289.54 770.525 1290.54 770.525 1290.54 764.525 1291.54 764.525 1293.54 758.525 1293.54 752.525 1294.54 752.525 1294.54 746.525 1295.54 746.525 1295.54 740.524 1297.54 740.524 1297.54 734.524 1298.54 734.524 1298.54 727.524 1299.54 727.524 1299.54 720.524 1301.54 720.524 1302.54 713.524 1304.54 706.523 1305.54 699.523 1305.54 691.523 1306.54 691.523 1306.54 683.523 1308.54 683.523 1308.54 675.522 1309.54 675.522 1309.54 667.522 1310.54 667.522 1310.54 658.522 1312.54 658.522 1313.54 650.522 1313.54 642.521 1314.54 642.521 1314.54 633.521 1316.54 633.521 1316.54 625.521 1317.54 625.521 1317.54 617.52 1318.54 617.52 1320.54 608.52 1320.54 600.52 1321.54 600.52 1321.54 591.52 1323.54 591.52 1324.54 582.519 1325.54 574.519 1325.54 566.519 1327.54 566.519 1328.54 557.518 1329.54 549.518 1329.54 541.518 1331.54 541.518 1331.54 532.518 1332.54 532.518 1333.54 524.517 1333.54 516.517 1335.54 516.517 1335.54 507.517 1336.54 507.517 1338.54 499.517 1339.54 490.516 1339.54 482.516 1340.54 482.516 1342.54 474.516 1343.54 466.516 1344.54 458.515 1346.54 451.515 1347.54 443.515 1347.54 435.514 1348.54 435.514 1348.54 428.514 1350.54 428.514 1351.54 421.514 1353.54 413.514 1354.54 407.514 1355.54 400.513 1357.54 394.513 1358.54 388.513 1359.54 382.513 1361.54 376.513 1361.54 370.512 1362.54 370.512 1362.54 364.512 1363.54 364.512 1365.54 358.512 1366.55 352.512 1368.55 348.512 1369.55 343.511 1370.55 339.511 1372.55 335.511 1373.55 331.511 1374.55 327.511 1374.55 324.511 1376.55 324.511 1377.55 322.511 1378.55 319.511 1380.55 317.511 1381.55 315.511 1383.55 314.51 1384.55 312.51 1385.55 311.51 1387.55 311.51 1388.55 310.51 1389.55 310.51 1391.55 310.51 1392.55 310.51 1393.55 310.51 1395.55 311.51 1396.55 313.51 1398.55 314.51 1399.55 316.511 1400.55 318.511 1402.55 321.511 1403.55 323.511 1404.55 326.511 1406.55 330.511 1407.55 333.511 1408.55 333.511 1408.55 337.511 1410.55 337.511 1410.55 342.511 1411.55 342.511 1411.55 346.512 1413.55 346.512 1413.55 351.512 1414.55 357.512 1415.55 357.512 1415.55 362.512 1417.55 368.512 1418.55 374.512 1419.55 381.513 1421.55 381.513 1421.55 387.513 1422.55 387.513 1422.55 395.513 1423.55 402.513 1425.55 411.514 1426.55 419.514 1428.55 427.514 1429.55 435.514 1430.55 435.514 1430.55 445.515 1432.55 445.515 1432.55 454.515 1433.55 462.515 1434.55 471.516 1436.55 471.516 1436.55 480.516 1437.55 480.516 1437.55 490.516 1438.55 502.517 1440.55 502.517 1440.55 513.517 1441.55 513.517 1441.55 524.517 1443.55 524.517 1443.55 534.518 1444.55 545.518 1445.55 556.518 1447.55 568.519 1448.55 579.519 1449.55 579.519 1449.55 591.52 1451.55 591.52 1451.55 603.52 1452.55 603.52 1452.55 614.52 1453.55 614.52 1453.55 626.521 1455.55 638.521 1456.55 638.521 1456.55 649.521 1457.55 649.521 1457.55 661.522 1459.55 672.522 1460.55 684.523 1462.55 684.523 1462.55 695.523 1463.55 695.523 1463.55 706.523 1464.55 706.523 1464.55 716.524 1466.55 716.524 1466.55 726.524 1467.55 726.524 1467.55 737.524 1468.55 737.524 1468.55 747.525 1470.55 747.525 1470.55 756.525 1471.55 756.525 1471.55 765.525 1472.55 775.526 1474.55 775.526 1474.55 783.526 1475.55 783.526 1475.55 792.526 1477.55 792.526 1477.55 800.526 1478.55 800.526 1478.55 808.527 1479.55 808.527 1479.55 815.527 1481.55 815.527 1481.55 823.527 1482.55 823.527 1482.55 829.527 1483.55 829.527 1483.55 836.528 1485.55 836.528 1485.55 842.528 1486.55 842.528 1486.55 848.528 1487.55 848.528 1487.55 853.528 1489.55 853.528 1489.55 858.528 1490.55 858.528 1490.55 863.529 1492.55 863.529 1492.55 868.529 1493.55 868.529 1493.55 872.529 1494.55 872.529 1494.55 875.529 1496.55 875.529 1497.55 878.529 1497.55 881.529 1498.55 881.529 1498.55 884.529 1500.55 884.529 1500.55 886.529 1501.55 886.529 1501.55 888.529 1502.55 888.529 1502.55 889.529 1504.55 889.529 1504.55 890.529 1505.55 890.529 1507.55 891.529 1508.55 892.529 1509.55 892.529 1509.55 892.529 1511.55 892.529 1511.55 892.529 1512.55 892.529 1512.55 892.529 1513.55 892.529 1513.55 891.529 1515.55 891.529 1515.55 889.529 1516.55 889.529 1516.55 888.529 1517.55 888.529 1517.55 886.529 1519.55 886.529 1520.55 883.529 1520.55 881.529 1522.55 881.529 1522.55 878.529 1523.55 878.529 1523.55 875.529 1524.55 875.529 1526.55 872.529 1526.55 868.529 1527.55 868.529 1528.55 864.529 1530.55 860.528 1531.55 855.528 1531.55 851.528 1532.55 851.528 1532.55 846.528 1534.55 846.528 1534.55 841.528 1535.55 841.528 1535.55 836.528 1537.55 836.528 1537.55 831.527 1538.55 831.527 1539.55 826.527 1541.55 821.527 1542.55 815.527 1543.55 809.527 1545.55 803.527 1546.55 797.526 1546.55 790.526 1547.55 790.526 1547.55 785.526 1549.55 785.526 1549.55 778.526 1550.55 778.526 1550.55 771.525 1552.55 771.525 1553.55 764.525 1554.55 757.525 1556.55 750.525 1557.55 743.525 1558.55 736.524 1560.55 729.524 1560.55 721.524 1561.55 721.524 1561.55 714.524 1562.55 714.524 1564.55 706.523 1565.55 699.523 1567.55 691.523 1568.55 683.523 1569.55 676.522 1571.55 668.522 1572.55 660.522 1573.55 652.522 1573.55 643.521 1575.55 643.521 1576.55 635.521 1577.55 627.521 1579.55 618.52 1580.55 610.52 1581.55 602.52 1583.55 593.52 1584.55 584.519 1586.55 575.519 1587.55 566.519 1588.55 557.518 1590.55 549.518 1591.55 549.518 1591.55 540.518 1592.55 531.518 1594.55 522.517 1595.55 513.517 1596.55 504.517 1598.55 495.516 1599.55 486.516 1601.55 477.516 1602.55 469.516 1603.55 460.515 1605.55 451.515 1606.55 443.515 1607.55 434.514 1609.55 426.514 1610.55 418.514 1611.55 410.514 1613.55 402.513 1614.55 402.513 1614.55 395.513 1616.55 387.513 1617.55 380.513 1618.55 373.512 1620.55 366.512 1621.55 358.512 1622.55 358.512 1622.55 351.512 1624.55 351.512 1624.55 344.511 1625.55 338.511 1626.55 333.511 1628.55 333.511 1628.55 328.511 1629.55 322.511 1631.55 317.511 1632.55 312.51 1633.55 308.51 1635.55 304.51 1636.55 304.51 1636.55 300.51 1637.55 300.51 1637.55 297.51 1639.55 294.51 1640.55 291.51 1641.55 291.51 1641.55 288.51 1643.55 288.51 1643.55 285.51 1644.55 283.509 1646.55 281.509 1647.55 279.509 1648.55 277.509 1650.55 277.509 1650.55 276.509 1651.55 276.509 1651.55 274.509 1652.55 274.509 1652.55 273.509 1654.55 273.509 1654.55 273.509 1655.55 273.509 1655.55 272.509 1656.55 272.509 1656.55 272.509 1658.55 272.509 1659.55 272.509 1661.55 272.509 1662.55 273.509 1663.55 273.509 1663.55 274.509 1665.55 274.509 1665.55 275.509 1666.55 275.509 1666.55 276.509 1667.55 276.509 1667.55 278.509 1669.55 278.509 1669.55 280.509 1670.55 280.509 1670.55 282.509 1671.56 284.51 1673.56 284.51 1673.56 287.51 1674.56 287.51 1674.56 290.51 1676.56 290.51 1676.56 293.51 1677.56 293.51 1677.56 297.51 1678.56 300.51 1680.56 305.51 1681.56 309.51 1682.56 309.51 1682.56 314.51 1684.56 314.51 1684.56 319.511 1685.56 319.511 1685.56 324.511 1686.56 324.511 1686.56 329.511 1688.56 335.511 1689.56 335.511 1689.56 342.511 1691.56 342.511 1691.56 348.512 1692.56 348.512 1692.56 355.512 1693.56 355.512 1693.56 362.512 1695.56 362.512 1695.56 369.512 1696.56 369.512 1696.56 377.513 1697.56 377.513 1697.56 385.513 1699.56 385.513 1699.56 394.513 1700.56 394.513 1700.56 402.513 1701.56 402.513 1701.56 411.514 1703.56 411.514 1703.56 420.514 1704.56 420.514 1704.56 430.514 1706.56 430.514 1706.56 439.515 1707.56 439.515 1708.56 448.515 1708.56 457.515 1710.56 457.515 1710.56 467.516 1711.56 467.516 1711.56 478.516 1712.56 478.516 1712.56 490.516 1714.56 490.516 1714.56 502.517 1715.56 502.517 1715.56 512.517 1716.56 512.517 1716.56 523.517 1718.56 523.517 1719.56 534.518 1719.56 546.518 1720.56 546.518 1720.56 559.519 1722.56 559.519 1722.56 571.519 1723.56 571.519 1725.56 583.519 1726.56 595.52 1727.56 607.52 1729.56 620.521 1729.56 632.521 1730.56 632.521 1731.56 644.521 1731.56 656.522 1733.56 656.522 1733.56 668.522 1734.56 668.522 1734.56 680.523 1735.56 680.523 1735.56 691.523 1737.56 691.523 1737.56 702.523 1738.56 702.523 1740.56 713.524 1741.56 724.524 1742.56 735.524 1744.56 745.525 1745.56 755.525 1745.56 765.525 1746.56 765.525 1746.56 775.526 1748.56 775.526 1748.56 784.526 1749.56 784.526 1749.56 793.526 1750.56 793.526 1752.56 801.526 1753.56 810.527 1755.56 818.527 1756.56 825.527 1757.56 832.527 1759.56 839.528 1759.56 846.528 1760.56 846.528 1760.56 852.528 1761.56 852.528 1761.56 858.528 1763.56 858.528 1763.56 863.529 1764.56 863.529 1765.56 869.529 1767.56 874.529 1768.56 878.529 1770.56 883.529 1771.56 886.529 1772.56 890.529 1772.56 893.529 1774.56 893.529 1774.56 896.53 1775.56 896.53 1776.56 899.53 1778.56 902.53 1779.56 903.53 1780.56 905.53 1782.56 907.53 1783.56 908.53 1785.56 910.53 1786.56 911.53 1787.56 912.5 1789.56 912.5 1790.56 912.53 1791.56 911.53 1793.56 911.53 1794.56 909.53 1795.56 908.53 1797.56 907.53 1798.56 905.53 1800.56 903.53 1801.56 901.53 1802.56 899.53 1804.56 896.53 1805.56 893.529 1806.56 889.529 1808.56 889.529 1808.56 886.529 1809.56 882.529 1810.56 878.529 1812.56 873.529 1813.56 868.529 1815.56 868.529 1815.56 863.529 1816.56 863.529 1816.56 859.528 1817.56 859.528 1817.56 854.528 1819.56 854.528 1819.56 849.528 1820.56 843.528 1821.56 837.528 1823.56 832.527 1824.56 825.527 1825.56 819.527 1827.56 819.527 1827.56 813.527 1828.56 806.527 1830.56 799.526 1831.56 793.526 1832.56 786.526 1834.56 786.526 1834.56 779.526 1835.56 772.526 1836.56 764.525 1838.56 757.525 1839.56 749.525 1840.56 749.525 1840.56 741.524 1842.56 733.524 1843.56 725.524 1845.56 716.524 1846.56 708.523 1847.56 708.523 1847.56 699.523 1849.56 691.523 1850.56 682.523 1851.56 674.522 1853.56 665.522 1854.56 665.522 1854.56 657.522 1855.56 648.521 1857.56 640.521 1858.56 631.521 1859.56 623.521 1869.56 572.519 1879.56 520.517 1888.56 472.516 1898.56 423.514 1907.56 371.512 1917.56 326.511 1926.56 295.51 1936.5 242.5" stroke="#156082" stroke-width="11.4583" stroke-linecap="round" stroke-linejoin="round" stroke-miterlimit="10" fill="none"/></g><g><text font-family="Yu Gothic,Yu Gothic_MSFontService,sans-serif" font-weight="700" font-size="64" transform="matrix(1 0 0 1 138.852 1070)">-180</text></g><g><text font-family="Yu Gothic,Yu Gothic_MSFontService,sans-serif" font-weight="700" font-size="64" transform="matrix(1 0 0 1 138.852 929)">-120</text></g><g><text font-family="Yu Gothic,Yu Gothic_MSFontService,sans-serif" font-weight="700" font-size="64" transform="matrix(1 0 0 1 175.633 787)">-60</text></g><g><text font-family="Yu Gothic,Yu Gothic_MSFontService,sans-serif" font-weight="700" font-size="64" transform="matrix(1 0 0 1 240.006 646)">0</text></g><g><text font-family="Yu Gothic,Yu Gothic_MSFontService,sans-serif" font-weight="700" font-size="64" transform="matrix(1 0 0 1 203.225 505)">60</text></g><g><text font-family="Yu Gothic,Yu Gothic_MSFontService,sans-serif" font-weight="700" font-size="64" transform="matrix(1 0 0 1 166.444 363)">120</text></g><g><text font-family="Yu Gothic,Yu Gothic_MSFontService,sans-serif" font-weight="700" font-size="64" transform="matrix(1 0 0 1 166.444 222)">180</text></g><g><path d="M339.5 1755.56 1974.5 1755.56M339.5 1629.55 1974.5 1629.55M339.5 1503.55 1974.5 1503.55M339.5 1377.55 1974.5 1377.55M339.5 1250.54 1974.5 1250.54M339.5 1124.5 1974.5 1124.5" stroke="#777777" stroke-width="3.4375" stroke-linejoin="round" stroke-miterlimit="10" fill="none"/></g><g><path d="M747.525 1124.5 747.525 1882.5M1156.54 1124.5 1156.54 1882.5M1565.55 1124.5 1565.55 1882.5M1974.5 1124.5 1974.5 1882.5" stroke="#777777" stroke-width="3.4375" stroke-linejoin="round" stroke-miterlimit="10" fill="none"/></g><g><path d="M0 0 0.000360892 758" stroke="#777777" stroke-width="3.4375" stroke-linejoin="round" stroke-miterlimit="10" fill="none" fill-rule="evenodd" transform="matrix(1 0 0 -1 339.5 1882.5)"/></g><g><path d="M339.5 1882.5 1974.5 1882.5" stroke="#777777" stroke-width="3.4375" stroke-linejoin="round" stroke-miterlimit="10" fill="none" fill-rule="evenodd"/></g><g><path d="M339.5 1509.55 340.511 1501.55 341.511 1491.55 343.511 1481.55 344.511 1474.55 346.512 1472.55 347.512 1462.55 348.512 1449.55 350.512 1437.55 351.512 1424.55 352.512 1424.55 352.512 1425.55 354.512 1420.55 355.512 1412.55 356.512 1408.55 358.512 1409.55 359.512 1410.55 361.512 1408.55 362.512 1413.55 363.512 1414.55 365.512 1418.55 366.512 1405.55 367.512 1405.55 367.512 1401.55 369.512 1406.55 370.512 1395.55 371.512 1387.55 373.512 1393.55 374.512 1393.55 374.512 1392.55 376.513 1392.55 376.513 1396.55 377.513 1397.55 378.513 1382.55 380.513 1382.55 380.513 1386.55 381.513 1393.55 382.513 1392.55 384.513 1388.55 385.513 1386.55 386.513 1386.55 386.513 1385.55 388.513 1386.55 389.513 1388.55 390.513 1382.55 392.513 1376.55 393.513 1377.55 395.513 1377.55 395.513 1372.55 396.513 1370.55 397.513 1371.55 399.513 1371.55 400.513 1373.55 401.513 1373.55 401.513 1369.55 403.513 1367.55 404.513 1360.54 405.513 1354.54 407.514 1353.54 408.514 1353.54 408.514 1352.54 410.514 1352.54 410.514 1355.54 411.514 1355.54 411.514 1362.54 412.514 1365.55 414.514 1365.55 414.514 1368.55 415.514 1370.55 416.514 1373.55 418.514 1372.55 419.514 1372.55 420.514 1372.55 420.514 1374.55 422.514 1374.55 422.514 1377.55 423.514 1379.55 425.514 1382.55 426.514 1386.55 427.514 1386.55 427.514 1392.55 429.514 1392.55 429.514 1392.55 430.514 1392.55 430.514 1392.55 431.514 1392.55 431.514 1397.55 433.514 1397.55 433.514 1401.55 434.514 1401.55 434.514 1416.55 435.514 1416.55 435.514 1439.55 437.515 1439.55 437.515 1456.55 438.515 1456.55 438.515 1463.55 440.515 1469.55 441.515 1469.55 441.515 1476.55 442.515 1476.55 442.515 1482.55 444.515 1489.55 445.515 1498.55 446.515 1505.55 448.515 1505.55 448.515 1512.55 449.515 1512.55 449.515 1518.55 450.515 1518.55 450.515 1534.55 452.515 1534.55 452.515 1546.55 453.515 1546.55 453.515 1552.55 455.515 1552.55 455.515 1554.55 456.515 1554.55 456.515 1555.55 457.515 1555.55 457.515 1564.55 459.515 1564.55 459.515 1575.55 460.515 1575.55 460.515 1578.55 461.515 1578.55 461.515 1606.55 463.515 1606.55 464.515 1606.55 464.515 1617.55 465.515 1617.55 465.515 1615.55 467.516 1615.55 467.516 1614.55 468.516 1614.55 468.516 1617.55 470.516 1617.55 470.516 1619.55 471.516 1619.55 471.516 1616.55 472.516 1616.55 472.516 1616.55 474.516 1616.55 474.516 1633.55 475.516 1633.55 475.516 1640.55 476.516 1640.55 476.516 1643.55 478.516 1643.55 479.516 1621.55 480.516 1626.55 482.516 1608.55 482.516 1614.55 483.516 1614.55 483.516 1624.55 485.516 1624.55 485.516 1628.55 486.516 1628.55 486.516 1635.55 487.516 1635.55 487.516 1645.55 489.516 1645.55 489.516 1634.55 490.516 1634.55 490.516 1624.55 491.516 1624.55 491.516 1620.55 493.516 1620.55 493.516 1621.55 494.516 1621.55 494.516 1626.55 495.516 1626.55 497.516 1637.55 497.516 1638.55 498.517 1638.55 498.517 1638.55 499.517 1638.55 499.517 1636.55 501.517 1636.55 501.517 1632.55 502.517 1632.55 502.517 1645.55 504.517 1645.55 505.517 1644.55 506.517 1637.55 508.517 1649.55 509.517 1654.55 509.517 1649.55 510.517 1649.55 512.517 1649.55 513.517 1649.55 514.517 1644.55 516.517 1644.55 517.517 1646.55 517.517 1653.55 519.517 1653.55 519.517 1651.55 520.517 1651.55 520.517 1645.55 521.517 1645.55 521.517 1639.55 523.517 1639.55 524.517 1637.55 525.517 1635.55 527.517 1631.55 528.518 1630.55 529.518 1626.55 529.518 1622.55 531.518 1622.55 532.518 1620.55 534.518 1616.55 535.518 1612.55 536.518 1609.55 538.518 1605.55 538.518 1599.55 539.518 1599.55 539.518 1589.55 540.518 1589.55 540.518 1583.55 542.518 1583.55 543.518 1578.55 544.518 1568.55 546.518 1558.55 547.518 1548.55 549.518 1541.55 550.518 1535.55 551.518 1530.55 553.518 1523.55 554.518 1514.55 555.518 1506.55 557.518 1497.55 558.518 1486.55 559.519 1474.55 561.519 1464.55 562.519 1455.55 564.519 1445.55 565.519 1440.55 566.519 1440.55 566.519 1435.55 568.519 1418.55 569.519 1398.55 570.519 1400.55 572.519 1397.55 573.519 1391.55 574.519 1389.55 576.519 1390.55 577.519 1390.55 579.519 1390.55 579.519 1392.55 580.519 1393.55 581.519 1393.55 583.519 1395.55 584.519 1389.55 585.519 1394.55 587.519 1382.55 588.519 1372.55 589.52 1380.55 591.52 1376.55 592.52 1374.55 594.52 1374.55 594.52 1378.55 595.52 1358.54 596.52 1360.54 598.52 1372.55 599.52 1375.55 600.52 1375.55 600.52 1380.55 602.52 1380.55 603.52 1380.55 603.52 1367.55 604.52 1367.55 604.52 1361.54 606.52 1361.54 606.52 1366.55 607.52 1362.54 609.52 1357.54 610.52 1361.54 611.52 1366.55 613.52 1366.55 613.52 1358.54 614.52 1359.54 615.52 1357.54 617.52 1348.54 618.521 1345.54 619.521 1345.54 619.521 1344.54 621.521 1344.54 621.521 1341.54 622.521 1340.54 623.521 1341.54 625.521 1340.54 626.521 1342.54 628.521 1342.54 628.521 1343.54 629.521 1343.54 629.521 1344.54 630.521 1344.54 630.521 1346.54 632.521 1346.54 632.521 1348.54 633.521 1348.54 633.521 1353.54 634.521 1353.54 636.521 1353.54 636.521 1356.54 637.521 1361.54 638.521 1363.54 640.521 1363.54 640.521 1367.55 641.521 1367.55 641.521 1370.55 643.521 1375.55 644.521 1379.55 645.521 1381.55 647.521 1381.55 647.521 1382.55 648.521 1382.55 648.521 1388.55 649.521 1388.55 649.521 1390.55 651.522 1390.55 651.522 1404.55 652.522 1404.55 652.522 1428.55 653.522 1428.55 653.522 1448.55 655.522 1448.55 655.522 1457.55 656.522 1457.55 656.522 1458.55 658.522 1458.55 658.522 1460.55 659.522 1460.55 659.522 1470.55 660.522 1470.55 660.522 1480.55 662.522 1480.55 662.522 1491.55 663.522 1491.55 663.522 1504.55 664.522 1504.55 664.522 1511.55 666.522 1511.55 666.522 1518.55 667.522 1518.55 667.522 1527.55 668.522 1527.55 668.522 1535.55 670.522 1547.55 671.522 1558.55 673.522 1566.55 674.522 1566.55 674.522 1567.55 675.522 1567.55 675.522 1570.55 677.522 1570.55 677.522 1590.55 678.522 1590.55 678.522 1607.55 679.522 1607.55 679.522 1614.55 681.523 1614.55 681.523 1619.55 682.523 1619.55 682.523 1621.55 683.523 1621.55 683.523 1621.55 685.523 1621.55 685.523 1622.55 686.523 1622.55 686.523 1627.55 688.523 1627.55 688.523 1631.55 689.523 1631.55 689.523 1626.55 690.523 1626.55 690.523 1627.55 692.523 1627.55 692.523 1639.55 693.523 1639.55 693.523 1651.55 694.523 1651.55 694.523 1659.55 696.523 1659.55 696.523 1628.55 697.523 1628.55 697.523 1632.55 698.523 1632.55 700.523 1628.55 701.523 1621.55 701.523 1639.55 703.523 1639.55 704.523 1645.55 705.523 1650.55 707.523 1659.55 708.523 1646.55 708.523 1637.55 709.523 1637.55 709.523 1638.55 711.523 1638.55 711.523 1638.55 712.524 1638.55 712.524 1646.55 713.524 1646.55 713.524 1661.55 715.524 1661.55 716.524 1663.55 716.524 1660.55 718.524 1660.55 718.524 1659.55 719.524 1659.55 719.524 1651.55 720.524 1651.55 720.524 1654.55 722.524 1654.55 723.524 1659.55 724.524 1668.55 726.524 1676.56 727.524 1663.55 728.524 1660.55 728.524 1664.55 730.524 1664.55 731.524 1666.55 733.524 1667.55 734.524 1666.55 735.524 1662.55 737.524 1658.55 737.524 1658.55 738.524 1658.55 738.524 1652.55 739.524 1652.55 739.524 1644.55 741.525 1644.55 741.525 1642.55 742.525 1642.55 743.525 1646.55 745.525 1647.55 746.525 1647.55 747.525 1642.55 749.525 1638.55 750.525 1640.55 752.525 1639.55 753.525 1638.55 754.525 1634.55 754.525 1627.55 756.525 1627.55 757.525 1618.55 758.525 1612.55 760.525 1606.55 761.525 1597.55 762.525 1589.55 764.525 1581.55 765.525 1573.55 767.525 1564.55 768.525 1561.55 769.525 1554.55 771.526 1546.55 772.526 1539.55 773.526 1531.55 775.526 1523.55 776.526 1512.55 777.526 1507.55 779.526 1504.55 780.526 1496.55 782.526 1486.55 783.526 1472.55 784.526 1462.55 786.526 1462.55 786.526 1451.55 787.526 1439.55 788.526 1429.55 790.526 1421.55 791.526 1409.55 792.526 1398.55 794.526 1395.55 795.526 1387.55 797.526 1384.55 798.526 1384.55 798.526 1384.55 799.526 1384.55 801.526 1383.55 802.526 1381.55 803.526 1380.55 805.527 1387.55 806.527 1387.55 807.527 1383.55 809.527 1359.54 810.527 1360.54 812.527 1361.54 813.527 1361.54 813.527 1363.54 814.527 1360.54 816.527 1347.54 817.527 1348.54 818.527 1359.54 820.527 1359.54 820.527 1368.55 821.527 1368.55 821.527 1372.55 822.527 1372.55 822.527 1371.55 824.527 1356.54 825.527 1356.54 825.527 1349.54 827.527 1352.54 828.527 1350.54 829.527 1344.54 831.527 1344.54 832.527 1344.54 832.527 1350.54 833.528 1350.54 833.528 1345.54 835.528 1342.54 836.528 1334.54 837.528 1333.54 839.528 1333.54 839.528 1336.54 840.528 1336.54 840.528 1336.54 842.528 1337.54 843.528 1332.54 844.528 1332.54 844.528 1325.54 846.528 1325.54 846.528 1319.54 847.528 1319.54 847.528 1316.54 848.528 1316.54 848.528 1315.54 850.528 1315.54 850.528 1321.54 851.528 1321.54 851.528 1328.54 852.528 1328.54 852.528 1333.54 854.528 1333.54 854.528 1334.54 855.528 1334.54 855.528 1336.54 857.528 1337.54 858.528 1337.54 859.528 1337.54 859.528 1339.54 861.528 1339.54 861.528 1340.54 862.528 1343.54 863.529 1347.54 865.529 1347.54 865.529 1352.54 866.529 1352.54 866.529 1357.54 867.529 1357.54 867.529 1359.54 869.529 1359.54 869.529 1366.55 870.529 1366.55 870.529 1366.55 871.529 1366.55 871.529 1369.55 873.529 1369.55 873.529 1375.55 874.529 1375.55 874.529 1381.55 876.529 1381.55 876.529 1405.55 877.529 1405.55 877.529 1428.55 878.529 1428.55 878.529 1441.55 880.529 1441.55 880.529 1445.55 881.529 1445.55 881.529 1446.55 882.529 1446.55 882.529 1447.55 884.529 1452.55 885.529 1467.55 886.529 1467.55 886.529 1481.55 888.529 1481.55 888.529 1494.55 889.529 1494.55 889.529 1505.55 891.529 1505.55 891.529 1514.55 892.529 1514.55 892.529 1524.55 893.529 1524.55 893.529 1535.55 895.53 1535.55 895.53 1545.55 896.53 1545.55 896.53 1555.55 897.53 1555.55 897.53 1565.55 899.53 1565.55 899.53 1571.55 900.53 1571.55 901.53 1569.55 901.53 1589.55 903.53 1589.55 903.53 1605.55 904.53 1605.55 904.53 1606.55 906.53 1606.55 906.53 1619.55 907.53 1619.55 908.53 1626.55 908.53 1625.55 910.53 1625.55 910.53 1624.55 911.53 1624.55 911.53 1628.55 912.53 1628.55 912.53 1643.55 914.53 1643.55 914.53 1643.55 915.53 1643.55 916.53 1642.55 918.53 1640.55 919.53 1645.55 921.53 1667.55 921.53 1660.55 922.53 1660.55 923.53 1644.55 925.531 1645.55 926.531 1641.55 927.531 1636.55 929.531 1652.55 929.531 1658.55 930.531 1658.55 930.531 1662.55 931.531 1662.55 931.531 1670.56 933.531 1670.56 933.531 1668.55 934.531 1668.55 936.531 1660.55 936.531 1654.55 937.531 1654.55 938.531 1651.55 940.531 1657.55 941.531 1671.56 942.531 1671.56 944.531 1678.56 945.531 1681.56 946.531 1671.56 948.531 1667.55 948.531 1678.56 949.531 1678.56 951.531 1684.56 952.531 1695.56 953.531 1688.56 955.531 1680.56 956.532 1682.56 956.532 1680.56 957.532 1680.56 957.532 1684.56 959.532 1684.56 959.532 1685.56 960.532 1685.56 960.532 1684.56 961.532 1684.56 963.532 1683.56 964.532 1676.56 966.532 1669.56 967.532 1664.55 968.532 1662.55 970.532 1661.55 971.532 1660.55 972.532 1669.56 974.532 1666.55 975.532 1661.55 976.532 1661.55 978.532 1661.55 978.532 1662.55 978.532 1658.55 979.532 1658.55 979.532 1651.55 980.532 1651.55 982.532 1643.55 983.532 1634.55 985.533 1626.55 986.533 1617.55 987.533 1609.55 989.533 1603.55 990.533 1596.55 991.533 1590.55 993.533 1584.55 994.533 1579.55 995.533 1574.55 997.533 1566.55 998.533 1566.55 998.533 1559.55 1000.53 1548.55 1001.53 1537.55 1002.53 1527.55 1004.53 1521.55 1005.53 1518.55 1006.53 1508.55 1008.53 1493.55 1009.53 1478.55 1010.53 1478.55 1010.53 1466.55 1012.53 1459.55 1013.53 1451.55 1015.53 1435.55 1016.53 1433.55 1017.53 1433.55 1017.53 1421.55 1019.53 1406.55 1020.53 1402.55 1021.53 1402.55 1023.53 1399.55 1024.53 1398.55 1025.53 1398.55 1025.53 1393.55 1027.53 1390.55 1028.53 1388.55 1030.53 1381.55 1031.53 1378.55 1032.53 1378.55 1032.53 1363.54 1034.53 1363.54 1034.53 1367.55 1035.53 1367.55 1035.53 1369.55 1036.53 1369.55 1036.53 1375.55 1038.53 1375.55 1038.53 1363.54 1039.53 1353.54 1040.53 1354.54 1042.53 1354.54 1043.53 1356.54 1045.53 1356.54 1045.53 1345.54 1046.53 1345.54 1046.53 1347.54 1047.53 1348.54 1049.53 1345.54 1050.53 1347.54 1051.53 1347.54 1051.53 1348.54 1053.53 1348.54 1053.53 1342.54 1054.53 1335.54 1055.53 1335.54 1055.53 1333.54 1057.53 1333.54 1057.53 1325.54 1058.53 1325.54 1058.53 1321.54 1060.53 1321.54 1060.53 1319.54 1061.53 1319.54 1061.53 1310.54 1062.54 1310.54 1062.54 1306.54 1064.54 1306.54 1064.54 1314.54 1065.54 1314.54 1065.54 1326.54 1066.54 1326.54 1066.54 1315.54 1068.54 1315.54 1068.54 1308.54 1069.54 1308.54 1069.54 1313.54 1070.54 1313.54 1070.54 1309.54 1072.54 1309.54 1072.54 1302.54 1073.54 1302.54 1073.54 1300.54 1075.54 1299.54 1076.54 1298.54 1077.54 1299.54 1079.54 1299.54 1079.54 1303.54 1080.54 1303.54 1080.54 1304.54 1081.54 1304.54 1081.54 1305.54 1083.54 1305.54 1083.54 1306.54 1084.54 1306.54 1084.54 1304.54 1085.54 1304.54 1085.54 1304.54 1087.54 1304.54 1087.54 1307.54 1088.54 1307.54 1088.54 1309.54 1090.54 1309.54 1090.54 1307.54 1091.54 1307.54 1091.54 1308.54 1092.54 1308.54 1092.54 1310.54 1094.54 1310.54 1094.54 1312.54 1095.54 1312.54 1095.54 1319.54 1096.54 1319.54 1098.54 1323.54 1098.54 1330.54 1099.54 1330.54 1099.54 1339.54 1100.54 1339.54 1100.54 1347.54 1102.54 1347.54 1102.54 1355.54 1103.54 1355.54 1104.54 1355.54 1104.54 1355.54 1106.54 1355.54 1107.54 1361.54 1107.54 1361.54 1109.54 1361.54 1109.54 1375.55 1110.54 1375.55 1110.54 1398.55 1111.54 1398.55 1111.54 1414.55 1113.54 1414.55 1113.54 1416.55 1114.54 1416.55 1114.54 1415.55 1115.54 1415.55 1117.54 1423.55 1118.54 1439.55 1119.54 1454.55 1119.54 1465.55 1121.54 1465.55 1121.54 1473.55 1122.54 1473.55 1122.54 1482.55 1124.54 1482.55 1124.54 1493.55 1125.54 1493.55 1125.54 1503.55 1126.54 1503.55 1128.54 1512.55 1128.54 1520.55 1129.54 1520.55 1129.54 1531.55 1130.54 1531.55 1130.54 1543.55 1132.54 1543.55 1132.54 1553.55 1133.54 1553.55 1133.54 1562.55 1134.54 1562.55 1134.54 1561.55 1136.54 1561.55 1136.54 1577.55 1137.54 1577.55 1139.54 1590.55 1140.54 1593.55 1140.54 1613.55 1141.54 1613.55 1143.54 1621.55 1144.54 1619.55 1145.54 1615.55 1147.54 1616.55 1147.54 1648.55 1148.54 1648.55 1149.54 1648.55 1151.54 1647.55 1152.54 1656.55 1154.54 1654.55 1155.54 1652.55 1155.54 1652.55 1156.54 1652.55 1156.54 1667.55 1158.54 1667.55 1158.54 1673.56 1159.54 1673.56 1159.54 1684.56 1160.54 1684.56 1162.54 1654.55 1162.54 1660.55 1163.54 1660.55 1164.54 1672.56 1166.54 1660.55 1167.54 1682.56 1169.54 1683.56 1170.54 1688.56 1171.54 1687.56 1173.54 1681.56 1174.54 1675.56 1174.54 1679.56 1175.54 1679.56 1177.54 1691.56 1178.54 1708.56 1179.54 1719.56 1181.54 1723.56 1182.54 1715.56 1184.54 1713.56 1185.54 1706.56 1186.54 1714.56 1188.54 1722.56 1189.54 1716.56 1190.54 1723.56 1190.54 1726.56 1192.54 1726.56 1193.54 1718.56 1194.54 1712.56 1196.54 1709.56 1197.54 1709.56 1199.54 1714.56 1200.54 1715.56 1201.54 1708.56 1203.54 1699.56 1204.54 1695.56 1205.54 1703.56 1207.54 1709.56 1208.54 1706.56 1209.54 1701.56 1211.54 1701.56 1211.54 1703.56 1212.54 1702.56 1214.54 1702.56 1215.54 1704.56 1216.54 1704.56 1216.54 1695.56 1218.54 1685.56 1219.54 1682.56 1220.54 1678.56 1222.54 1670.56 1223.54 1670.56 1223.54 1663.55 1224.54 1663.55 1224.54 1656.55 1226.54 1651.55 1227.54 1647.55 1228.54 1645.55 1230.54 1642.55 1231.54 1642.55 1231.54 1638.55 1233.54 1638.55 1233.54 1631.55 1234.54 1621.55 1235.54 1613.55 1237.54 1613.55 1237.54 1605.55 1238.54 1595.55 1239.54 1584.55 1241.54 1574.55 1242.54 1565.55 1243.54 1565.55 1243.54 1559.55 1245.54 1559.55 1245.54 1560.55 1246.54 1562.55 1248.54 1549.55 1249.54 1530.55 1250.54 1511.55 1252.54 1511.55 1252.54 1496.55 1253.54 1496.55 1253.54 1488.55 1254.54 1488.55 1254.54 1487.55 1256.54 1487.55 1256.54 1481.55 1257.54 1481.55 1257.54 1471.55 1258.54 1471.55 1258.54 1458.55 1260.54 1441.55 1261.54 1428.55 1263.54 1427.55 1264.54 1427.55 1264.54 1433.55 1265.54 1433.55 1265.54 1428.55 1267.54 1419.55 1268.54 1404.55 1269.54 1390.55 1271.54 1390.55 1271.54 1382.55 1272.54 1382.55 1272.54 1381.55 1273.54 1382.55 1275.54 1382.55 1275.54 1383.55 1276.54 1383.55 1276.54 1384.55 1278.54 1384.55 1278.54 1378.55 1279.54 1378.55 1279.54 1367.55 1280.54 1367.55 1280.54 1353.54 1282.54 1353.54 1282.54 1354.54 1283.54 1354.54 1283.54 1355.54 1284.54 1355.54 1284.54 1348.54 1286.54 1348.54 1286.54 1350.54 1287.54 1350.54 1287.54 1360.54 1288.54 1360.54 1288.54 1346.54 1290.54 1346.54 1290.54 1333.54 1291.54 1333.54 1291.54 1327.54 1293.54 1327.54 1293.54 1334.54 1294.54 1334.54 1294.54 1340.54 1295.54 1340.54 1295.54 1344.54 1297.54 1344.54 1297.54 1322.54 1298.54 1322.54 1298.54 1315.54 1299.54 1315.54 1299.54 1313.54 1301.54 1309.54 1302.54 1309.54 1302.54 1315.54 1303.54 1315.54 1303.54 1303.54 1305.54 1303.54 1305.54 1292.54 1306.54 1292.54 1306.54 1281.54 1308.54 1281.54 1308.54 1277.54 1309.54 1277.54 1309.54 1270.54 1310.54 1270.54 1310.54 1276.54 1312.54 1276.54 1313.54 1277.54 1313.54 1271.54 1314.54 1271.54 1314.54 1269.54 1316.54 1269.54 1316.54 1268.54 1317.54 1268.54 1317.54 1265.54 1318.54 1265.54 1318.54 1270.54 1320.54 1270.54 1320.54 1267.54 1321.54 1267.54 1321.54 1266.54 1323.54 1266.54 1324.54 1271.54 1325.54 1271.54 1325.54 1268.54 1327.54 1268.54 1327.54 1275.54 1328.54 1275.54 1328.54 1275.54 1329.54 1275.54 1329.54 1273.54 1331.54 1273.54 1331.54 1268.54 1332.54 1268.54 1333.54 1270.54 1333.54 1270.54 1335.54 1270.54 1335.54 1271.54 1336.54 1271.54 1338.54 1270.54 1339.54 1273.54 1339.54 1275.54 1340.54 1275.54 1342.54 1282.54 1342.54 1281.54 1343.54 1281.54 1343.54 1284.54 1344.54 1284.54 1344.54 1290.54 1346.54 1290.54 1347.54 1292.54 1347.54 1291.54 1348.54 1291.54 1348.54 1298.54 1350.54 1298.54 1351.54 1299.54 1352.54 1305.54 1352.54 1315.54 1354.54 1315.54 1355.54 1322.54 1357.54 1324.54 1358.54 1332.54 1358.54 1341.54 1359.54 1341.54 1361.54 1339.54 1361.54 1339.54 1362.54 1339.54 1362.54 1338.54 1363.54 1338.54 1365.54 1337.54 1366.55 1349.54 1366.55 1374.55 1367.55 1374.55 1369.55 1384.55 1370.55 1382.55 1372.55 1383.55 1373.55 1389.55 1374.55 1405.55 1374.55 1423.55 1376.55 1423.55 1377.55 1432.55 1378.55 1438.55 1380.55 1444.55 1380.55 1452.55 1381.55 1452.55 1382.55 1461.55 1384.55 1468.55 1385.55 1473.55 1387.55 1479.55 1388.55 1486.55 1389.55 1494.55 1389.55 1502.55 1391.55 1502.55 1391.55 1509.55 1392.55 1509.55 1393.55 1519.55 1395.55 1528.55 1396.55 1536.55 1397.55 1547.55 1399.55 1554.55 1400.55 1562.55 1402.55 1572.55 1403.55 1580.55 1404.55 1587.55 1406.55 1595.55 1407.55 1604.55 1408.55 1612.55 1410.55 1612.55 1410.55 1622.55 1411.55 1630.55 1412.55 1639.55 1414.55 1649.55 1415.55 1649.55 1415.55 1659.55 1417.55 1668.55 1418.55 1676.56 1419.55 1683.56 1421.55 1689.56 1422.55 1689.56 1422.55 1698.56 1423.55 1719.56 1425.55 1729.56 1426.55 1724.56 1427.55 1724.56 1429.55 1745.56 1430.55 1758.56 1432.55 1756.56 1433.55 1745.56 1434.55 1742.56 1436.55 1742.56 1436.55 1755.56 1437.55 1755.56 1437.55 1788.56 1438.55 1817.56 1440.55 1817.56 1440.55 1813.56 1441.55 1795.56 1442.55 1795.56 1442.55 1789.56 1444.55 1800.56 1445.55 1818.56 1447.55 1826.56 1448.55 1824.56 1449.55 1823.56 1451.55 1823.56 1451.55 1827.56 1452.55 1830.56 1453.55 1830.56 1455.55 1826.56 1456.55 1826.56 1456.55 1825.56 1457.55 1825.56 1457.55 1822.56 1459.55 1818.56 1460.55 1813.56 1462.55 1813.56 1462.55 1809.56 1463.55 1809.56 1463.55 1804.56 1464.55 1804.56 1464.55 1797.56 1466.55 1789.56 1467.55 1784.56 1468.55 1778.56 1470.55 1778.56 1470.55 1771.56 1471.55 1771.56 1471.55 1762.56 1472.55 1754.56 1474.55 1754.56 1474.55 1745.56 1475.55 1745.56 1475.55 1738.56 1476.55 1738.56 1476.55 1730.56 1478.55 1730.56 1478.55 1720.56 1479.55 1711.56 1481.55 1701.56 1482.55 1691.56 1483.55 1691.56 1483.55 1682.56 1485.55 1682.56 1485.55 1672.56 1486.55 1672.56 1486.55 1663.55 1487.55 1663.55 1487.55 1655.55 1489.55 1655.55 1489.55 1647.55 1490.55 1647.55 1490.55 1638.55 1491.55 1638.55 1491.55 1626.55 1493.55 1616.55 1494.55 1598.55 1496.55 1590.55 1497.55 1590.55 1497.55 1580.55 1498.55 1580.55 1498.55 1571.55 1500.55 1571.55 1500.55 1562.55 1501.55 1562.55 1501.55 1553.55 1502.55 1553.55 1502.55 1543.55 1504.55 1543.55 1504.55 1533.55 1505.55 1533.55 1505.55 1523.55 1506.55 1523.55 1506.55 1519.55 1508.55 1519.55 1508.55 1517.55 1509.55 1517.55 1509.55 1512.55 1511.55 1512.55 1511.55 1502.55 1512.55 1502.55 1512.55 1488.55 1513.55 1488.55 1513.55 1474.55 1515.55 1474.55 1515.55 1463.55 1516.55 1463.55 1516.55 1456.55 1517.55 1456.55 1517.55 1447.55 1519.55 1447.55 1519.55 1437.55 1520.55 1437.55 1520.55 1435.55 1521.55 1435.55 1521.55 1430.55 1523.55 1430.55 1523.55 1421.55 1524.55 1421.55 1524.55 1416.55 1526.55 1416.55 1526.55 1407.55 1527.55 1407.55 1528.55 1390.55 1530.55 1380.55 1530.55 1379.55 1531.55 1379.55 1531.55 1376.55 1532.55 1376.55 1532.55 1371.55 1534.55 1371.55 1534.55 1365.55 1535.55 1365.55 1535.55 1365.55 1536.55 1365.55 1536.55 1368.55 1538.55 1368.55 1538.55 1364.55 1539.55 1364.55 1541.55 1351.54 1542.55 1343.54 1543.55 1337.54 1543.55 1333.54 1545.55 1333.54 1546.55 1333.54 1546.55 1329.54 1547.55 1329.54 1547.55 1346.54 1549.55 1346.54 1549.55 1325.54 1550.55 1325.54 1550.55 1302.54 1551.55 1302.54 1551.55 1309.54 1553.55 1309.54 1554.55 1316.54 1556.55 1306.54 1557.55 1310.54 1557.55 1300.54 1558.55 1300.54 1560.55 1301.54 1560.55 1298.54 1561.55 1298.54 1561.55 1301.54 1562.55 1301.54 1564.55 1292.54 1565.55 1299.54 1565.55 1294.54 1566.55 1294.54 1568.55 1287.54 1569.55 1288.54 1571.55 1286.54 1571.55 1286.54 1572.55 1286.54 1573.55 1280.54 1573.55 1270.54 1575.55 1270.54 1576.55 1265.54 1577.55 1267.54 1579.55 1270.54 1579.55 1272.54 1580.55 1272.54 1581.55 1276.54 1583.55 1268.54 1584.55 1257.54 1585.55 1260.54 1587.55 1255.54 1587.55 1255.54 1588.55 1255.54 1588.55 1260.54 1590.55 1260.54 1591.55 1255.54 1592.55 1255.54 1594.55 1250.54 1595.55 1250.5 1596.55 1253.54 1598.55 1256.54 1599.55 1261.54 1600.55 1263.54 1602.55 1262.54 1603.55 1264.54 1603.55 1262.54 1605.55 1262.54 1605.55 1265.54 1606.55 1265.54 1607.55 1269.54 1609.55 1274.54 1610.55 1276.54 1611.55 1283.54 1613.55 1289.54 1614.55 1299.54 1615.55 1302.54 1617.55 1305.54 1618.55 1302.54 1620.55 1300.54 1621.55 1302.54 1622.55 1307.54 1624.55 1314.54 1625.55 1336.54 1626.55 1351.54 1628.55 1351.54 1628.55 1352.54 1629.55 1350.54 1630.55 1358.54 1632.55 1374.55 1633.55 1387.55 1635.55 1395.55 1636.55 1399.55 1637.55 1405.55 1639.55 1413.55 1640.55 1419.55 1641.55 1425.55 1643.55 1425.55 1643.55 1431.55 1644.55 1438.55 1645.55 1444.55 1647.55 1451.55 1648.55 1457.55 1650.55 1457.55 1650.55 1463.55 1651.55 1469.55 1652.55 1478.55 1654.55 1485.55 1655.55 1485.55 1655.55 1487.55 1656.55 1487.55 1656.55 1493.55 1658.55 1500.55 1659.55 1507.55 1660.55 1513.55 1662.55 1520.55 1663.55 1520.55 1663.55 1526.55 1665.55 1526.55 1665.55 1533.55 1666.55 1539.55 1667.55 1551.55 1669.55 1551.55 1669.55 1557.55 1670.55 1557.55 1670.55 1563.55 1671.56 1570.55 1673.56 1570.55 1673.56 1576.55 1674.56 1576.55 1674.56 1584.55 1675.56 1584.55 1675.56 1592.55 1677.56 1592.55 1677.56 1599.55 1678.56 1607.55 1680.56 1615.55 1681.56 1624.55 1682.56 1624.55 1682.56 1632.55 1684.56 1632.55 1684.56 1640.55 1685.56 1648.55 1686.56 1657.55 1688.56 1666.55 1689.56 1666.55 1689.56 1675.56 1690.56 1675.56 1690.56 1684.56 1692.56 1684.56 1692.56 1691.56 1693.56 1691.56 1693.56 1696.56 1695.56 1702.56 1696.56 1702.56 1696.56 1716.56 1697.56 1716.56 1697.56 1736.56 1699.56 1736.56 1699.56 1741.56 1700.56 1741.56 1700.56 1737.56 1701.56 1737.56 1701.56 1738.56 1703.56 1738.56 1703.56 1762.56 1704.56 1762.56 1704.56 1767.56 1705.56 1762.56 1707.56 1755.56 1708.56 1755.56 1708.56 1756.56 1709.56 1756.56 1709.56 1777.56 1711.56 1777.56 1711.56 1810.56 1712.56 1810.56 1712.56 1829.56 1714.56 1829.56 1714.56 1816.56 1715.56 1816.56 1715.56 1800.56 1716.56 1800.56 1716.56 1802.56 1718.56 1802.56 1718.56 1820.56 1719.56 1820.56 1719.56 1838.56 1720.56 1838.56 1720.56 1841.56 1722.56 1841.56 1722.56 1835.56 1723.56 1835.56 1723.56 1836.56 1724.56 1836.56 1726.56 1842.56 1726.56 1845.5 1727.56 1845.5 1727.56 1843.56 1729.56 1843.56 1729.56 1840.56 1730.56 1840.56 1731.56 1838.56 1731.56 1836.56 1733.56 1836.56 1733.56 1832.56 1734.56 1832.56 1734.56 1828.56 1735.56 1828.56 1735.56 1822.56 1737.56 1822.56 1737.56 1816.56 1738.56 1816.56 1739.56 1809.56 1741.56 1804.56 1741.56 1798.56 1742.56 1798.56 1742.56 1791.56 1744.56 1791.56 1745.56 1782.56 1745.56 1775.56 1746.56 1775.56 1746.56 1767.56 1748.56 1767.56 1748.56 1759.56 1749.56 1759.56 1749.56 1750.56 1750.56 1750.56 1750.56 1741.56 1752.56 1741.56 1753.56 1732.56 1754.56 1722.56 1754.56 1712.56 1756.56 1712.56 1756.56 1702.56 1757.56 1702.56 1759.56 1692.56 1759.56 1683.56 1760.56 1683.56 1760.56 1675.56 1761.56 1675.56 1761.56 1666.55 1763.56 1666.55 1763.56 1657.55 1764.56 1657.55 1765.56 1649.55 1767.56 1641.55 1768.56 1631.55 1769.56 1622.55 1771.56 1612.55 1772.56 1602.55 1772.56 1594.55 1774.56 1594.55 1774.56 1586.55 1775.56 1586.55 1776.56 1577.55 1778.56 1568.55 1778.56 1559.55 1779.56 1559.55 1780.56 1551.55 1782.56 1547.55 1783.56 1548.55 1784.56 1547.55 1786.56 1537.55 1786.56 1519.55 1787.56 1519.55 1787.56 1504.55 1789.56 1504.55 1790.56 1495.55 1791.56 1491.55 1793.56 1484.55 1793.56 1477.55 1794.56 1477.55 1795.56 1475.55 1795.56 1468.55 1797.56 1468.55 1798.56 1457.55 1799.56 1445.55 1799.56 1438.55 1801.56 1438.55 1802.56 1436.55 1804.56 1432.55 1805.56 1419.55 1806.56 1407.55 1808.56 1399.55 1808.56 1393.55 1809.56 1393.55 1809.56 1387.55 1810.56 1387.55 1810.56 1376.55 1812.56 1376.55 1813.56 1370.55 1814.56 1373.55 1816.56 1376.55 1817.56 1369.55 1819.56 1355.54 1820.56 1350.54 1821.56 1349.54 1823.56 1339.54 1824.56 1333.54 1825.56 1326.54 1827.56 1326.54 1827.56 1324.54 1828.56 1313.54 1829.56 1321.54 1831.56 1325.54 1832.56 1321.54 1833.56 1321.54 1833.56 1306.54 1835.56 1306.54 1836.56 1296.54 1838.56 1285.54 1839.56 1297.54 1840.56 1297.54 1840.56 1277.54 1842.56 1271.54 1843.56 1280.54 1844.56 1280.54 1846.56 1272.54 1847.56 1272.54 1847.56 1264.54 1848.56 1268.54 1850.56 1264.54 1851.56 1261.54 1853.56 1265.54 1854.56 1265.54 1854.56 1269.54 1855.56 1273.54 1857.56 1266.54 1858.56 1271.54 1859.56 1266.54 1869.56 1283.54 1878.56 1313.54 1888.56 1308.54 1898.56 1316.54 1907.56 1311.54 1917.56 1407.55 1926.56 1310.54 1936.5 1260.54" stroke="#156082" stroke-width="11.4583" stroke-linecap="round" stroke-linejoin="round" stroke-miterlimit="10" fill="none"/></g><g><text font-family="Yu Gothic,Yu Gothic_MSFontService,sans-serif" font-weight="700" font-size="64" transform="matrix(1 0 0 1 138.852 1899)">-600</text></g><g><text font-family="Yu Gothic,Yu Gothic_MSFontService,sans-serif" font-weight="700" font-size="64" transform="matrix(1 0 0 1 138.852 1773)">-400</text></g><g><text font-family="Yu Gothic,Yu Gothic_MSFontService,sans-serif" font-weight="700" font-size="64" transform="matrix(1 0 0 1 138.852 1647)">-200</text></g><g><text font-family="Yu Gothic,Yu Gothic_MSFontService,sans-serif" font-weight="700" font-size="64" transform="matrix(1 0 0 1 240.006 1521)">0</text></g><g><text font-family="Yu Gothic,Yu Gothic_MSFontService,sans-serif" font-weight="700" font-size="64" transform="matrix(1 0 0 1 166.444 1394)">200</text></g><g><text font-family="Yu Gothic,Yu Gothic_MSFontService,sans-serif" font-weight="700" font-size="64" transform="matrix(1 0 0 1 166.444 1268)">400</text></g><g><text font-family="Yu Gothic,Yu Gothic_MSFontService,sans-serif" font-weight="700" font-size="64" transform="matrix(1 0 0 1 166.444 1142)">600</text></g><g><text font-family="Yu Gothic,Yu Gothic_MSFontService,sans-serif" font-weight="700" font-size="64" transform="matrix(1 0 0 1 320.83 1988)">0</text></g><g><text font-family="Yu Gothic,Yu Gothic_MSFontService,sans-serif" font-weight="700" font-size="64" transform="matrix(1 0 0 1 729.627 1988)">3</text></g><g><text font-family="Yu Gothic,Yu Gothic_MSFontService,sans-serif" font-weight="700" font-size="64" transform="matrix(1 0 0 1 1138.42 1988)">6</text></g><g><text font-family="Yu Gothic,Yu Gothic_MSFontService,sans-serif" font-weight="700" font-size="64" transform="matrix(1 0 0 1 1547.22 1988)">9</text></g><g><text font-family="Yu Gothic,Yu Gothic_MSFontService,sans-serif" font-weight="700" font-size="64" transform="matrix(1 0 0 1 1937.63 1988)">12</text></g><path d="M0 0 0.851706 852.74" stroke="#FF0000" stroke-width="6.875" stroke-miterlimit="8" fill="none" fill-rule="evenodd" transform="matrix(-1 0 0 1 1878.35 202.5)"/><path d="M1877.5 1116.5 1877.5 1884.12" stroke="#FF0000" stroke-width="6.875" stroke-miterlimit="8" fill="none" fill-rule="evenodd"/><text font-family="Times New Roman,Times New Roman_MSFontService,sans-serif" font-weight="400" font-size="73" transform="matrix(-1.83697e-16 -1 1 -1.83697e-16 109.966 1891)">Angular velocity</text><text font-family="Times New Roman,Times New Roman_MSFontService,sans-serif" font-weight="400" font-size="73" transform="matrix(-1.83697e-16 -1 1 -1.83697e-16 109.966 1377)">[</text><text font-family="Times New Roman,Times New Roman_MSFontService,sans-serif" font-weight="400" font-size="73" transform="matrix(-1.83697e-16 -1 1 -1.83697e-16 109.966 1352)">deg/s</text><text font-family="Times New Roman,Times New Roman_MSFontService,sans-serif" font-weight="400" font-size="73" transform="matrix(-1.83697e-16 -1 1 -1.83697e-16 109.966 1197)">]</text><text font-family="Times New Roman,Times New Roman_MSFontService,sans-serif" font-weight="400" font-size="73" transform="matrix(-1.83697e-16 -1 1 -1.83697e-16 109.966 777)">Angle</text><text font-family="Times New Roman,Times New Roman_MSFontService,sans-serif" font-weight="400" font-size="73" transform="matrix(-1.83697e-16 -1 1 -1.83697e-16 109.966 579)">[</text><text font-family="Times New Roman,Times New Roman_MSFontService,sans-serif" font-weight="400" font-size="73" transform="matrix(-1.83697e-16 -1 1 -1.83697e-16 109.966 555)">deg</text><text font-family="Times New Roman,Times New Roman_MSFontService,sans-serif" font-weight="400" font-size="73" transform="matrix(-1.83697e-16 -1 1 -1.83697e-16 109.966 449)">]</text><text font-family="Times New Roman,Times New Roman_MSFontService,sans-serif" font-weight="400" font-size="73" transform="matrix(1 0 0 1 1009.17 2110)">Time</text><text font-family="Times New Roman,Times New Roman_MSFontService,sans-serif" font-weight="400" font-size="73" transform="matrix(1 0 0 1 1180.17 2110)">[</text><text font-family="Times New Roman,Times New Roman_MSFontService,sans-serif" font-weight="400" font-size="73" transform="matrix(1 0 0 1 1204.81 2110)">s</text><text font-family="Times New Roman,Times New Roman_MSFontService,sans-serif" font-weight="400" font-size="73" transform="matrix(1 0 0 1 1233.45 2110)">]</text></g></svg>