<svg width="2886" height="2167" xmlns="http://www.w3.org/2000/svg" xmlns:xlink="http://www.w3.org/1999/xlink" xml:space="preserve" overflow="hidden"><defs><clipPath id="clip0"><rect x="678" y="155" width="2886" height="2167"/></clipPath></defs><g clip-path="url(#clip0)" transform="translate(-678 -155)"><path d="M2927.97 1920.69C2529.61 1950.78 2225.89 1679.3 2249.59 1314.33 2250.94 1293.56 2253.35 1272.73 2256.83 1251.89" stroke="#00B050" stroke-width="6.875" stroke-miterlimit="8" fill="none" fill-rule="evenodd"/><path d="M2670.79 1437.09C2665.97 1437.09 2661.84 1439.8 2658.42 1445.22 2654.99 1450.64 2651.97 1459.19 2649.35 1470.87L2640.23 1511.35C2648.69 1511.05 2655.99 1508.26 2662.13 1502.99 2668.26 1497.72 2673 1490.59 2676.33 1481.59 2679.67 1472.6 2681.34 1463.3 2681.34 1453.71 2681.34 1448.53 2680.43 1444.46 2678.61 1441.52 2676.8 1438.57 2674.19 1437.09 2670.79 1437.09ZM2629.51 1429.77 2634.16 1435.93C2625.4 1442.19 2618.43 1449.6 2613.25 1458.18 2608.07 1466.76 2605.48 1475.22 2605.48 1483.56 2605.48 1491.3 2607.2 1497.41 2610.66 1501.88 2614.11 1506.34 2619.33 1509.29 2626.29 1510.72L2635.41 1469.71C2638.45 1456.13 2643.26 1446.1 2649.84 1439.64 2656.42 1433.18 2663.85 1429.94 2672.13 1429.94 2680.3 1429.94 2686.43 1432.22 2690.54 1436.78 2694.65 1441.34 2696.71 1448.17 2696.71 1457.29 2696.71 1468.66 2694.34 1479 2689.6 1488.29 2684.87 1497.59 2678.12 1504.85 2669.36 1510.1 2660.61 1515.34 2650.42 1518.05 2638.8 1518.23L2630.41 1555.49 2616.38 1555.49 2624.78 1518.05C2613.7 1516.8 2605.16 1513.12 2599.18 1507.01 2593.19 1500.91 2590.2 1492.88 2590.2 1482.93 2590.2 1463.15 2603.3 1445.43 2629.51 1429.77Z" fill="#FF0000" fill-rule="evenodd"/><text fill="#000000" fill-opacity="0" font-family="Arial,Arial_MSFontService,sans-serif" font-size="125.723" x="2590.2" y="1539.77">𝜑</text><path d="M3057.49 1554.96C3052.66 1554.96 3048.53 1557.67 3045.11 1563.1 3041.68 1568.52 3038.66 1577.06 3036.04 1588.74L3026.93 1629.22C3035.38 1628.92 3042.68 1626.14 3048.82 1620.86 3054.95 1615.59 3059.69 1608.46 3063.03 1599.46 3066.36 1590.47 3068.03 1581.17 3068.03 1571.58 3068.03 1566.4 3067.12 1562.34 3065.3 1559.39 3063.49 1556.44 3060.88 1554.96 3057.49 1554.96ZM3016.2 1547.64 3020.85 1553.8C3012.09 1560.06 3005.12 1567.47 2999.94 1576.05 2994.76 1584.63 2992.17 1593.09 2992.17 1601.43 2992.17 1609.17 2993.89 1615.28 2997.35 1619.75 3000.8 1624.21 3006.02 1627.16 3012.99 1628.59L3022.1 1587.58C3025.14 1574 3029.95 1563.97 3036.53 1557.51 3043.11 1551.05 3050.55 1547.82 3058.83 1547.82 3066.99 1547.82 3073.12 1550.09 3077.23 1554.65 3081.34 1559.21 3083.4 1566.04 3083.4 1575.16 3083.4 1586.54 3081.03 1596.87 3076.29 1606.16 3071.56 1615.46 3064.81 1622.73 3056.06 1627.97 3047.3 1633.21 3037.11 1635.92 3025.5 1636.1L3017.1 1673.36 3003.07 1673.36 3011.47 1635.92C3000.39 1634.67 2991.85 1630.99 2985.87 1624.88 2979.88 1618.78 2976.89 1610.75 2976.89 1600.8 2976.89 1581.03 2989.99 1563.3 3016.2 1547.64Z" fill="#FF0000" fill-rule="evenodd"/><text fill="#000000" fill-opacity="0" font-family="Arial,Arial_MSFontService,sans-serif" font-size="125.723" x="2976.89" y="1657.64">𝜑</text><path d="M3043.63 1510.46C3046.43 1510.46 3048.79 1511.46 3050.69 1513.46 3052.6 1515.45 3053.55 1517.97 3053.55 1521.01 3053.55 1524.05 3052.6 1526.56 3050.69 1528.56 3048.79 1530.55 3046.43 1531.55 3043.63 1531.55 3040.78 1531.55 3038.39 1530.55 3036.49 1528.56 3034.58 1526.56 3033.63 1524.05 3033.63 1521.01 3033.63 1517.97 3034.58 1515.45 3036.49 1513.46 3038.39 1511.46 3040.78 1510.46 3043.63 1510.46Z" fill="#FF0000" fill-rule="evenodd"/><text fill="#000000" fill-opacity="0" font-family="Arial,Arial_MSFontService,sans-serif" font-size="21.0879" x="3033.63" y="1528.92">ሶ</text><path d="M2120.53 224.239 3174.97 918.954 3171.19 924.695 2116.75 229.98ZM2114.9 241.112 2099.5 214.5 2130.03 218.148ZM3176.82 907.82 3192.22 934.432 3161.69 930.784Z"/><path d="M1991.45 1865.86 1996.2 1865.86 1976.39 1955.05C1975.2 1960.37 1974.61 1964.34 1974.61 1966.97 1974.61 1969.12 1974.96 1970.68 1975.66 1971.65 1976.36 1972.61 1977.46 1973.1 1978.96 1973.1 1980.57 1973.1 1982.29 1972.44 1984.12 1971.12 1985.95 1969.81 1988.52 1967.3 1991.85 1963.59L1996.45 1968.1C1991.24 1973.58 1986.98 1977.33 1983.68 1979.34 1980.37 1981.36 1976.68 1982.36 1972.6 1982.36 1969.11 1982.36 1966.31 1981.09 1964.22 1978.54 1962.13 1975.98 1961.08 1972.72 1961.08 1968.75 1961.08 1965.15 1961.83 1959.94 1963.33 1953.12L1977.76 1888.58C1978.4 1885.74 1978.86 1883.47 1979.12 1881.78 1979.39 1880.08 1979.53 1878.51 1979.53 1877.06 1979.53 1875.45 1979.23 1874.23 1978.64 1873.4 1978.05 1872.56 1977.2 1871.96 1976.1 1871.58 1975 1871.21 1973.03 1870.94 1970.18 1870.78L1971.15 1866.59Z" fill-rule="evenodd"/><text fill="#000000" fill-opacity="0" font-family="Arial,Arial_MSFontService,sans-serif" font-size="116.499" x="1961.08" y="1967.8">𝑙</text><path d="M2042.11 1963.02C2040.12 1963.02 2038.17 1963.39 2036.26 1964.14 2034.34 1964.88 2032.63 1965.85 2031.13 1967.07 2029.62 1968.28 2028.41 1969.65 2027.5 1971.2 2026.58 1972.74 2026.12 1974.33 2026.12 1975.97L2026.12 1993.14C2026.12 1996.42 2026.39 1999.15 2026.94 2001.31 2027.49 2003.48 2028.35 2005.22 2029.55 2006.53 2030.74 2007.84 2032.26 2008.76 2034.12 2009.31 2035.97 2009.86 2038.23 2010.13 2040.88 2010.13 2045.92 2010.13 2049.74 2008.15 2052.34 2004.18 2054.94 2000.22 2056.24 1994.37 2056.24 1986.64 2056.24 1970.89 2051.53 1963.02 2042.11 1963.02ZM2079.73 1956.17 2105.45 1956.17 2105.45 1959.92C2103.58 1960.15 2102.24 1960.55 2101.44 1961.12 2100.64 1961.68 2100.24 1962.36 2100.24 1963.14 2100.24 1963.92 2100.44 1964.72 2100.85 1965.54 2101.26 1966.36 2101.92 1967.34 2102.81 1968.47L2110.55 1978.96 2118.87 1968.88C2119.77 1967.87 2120.46 1966.92 2120.95 1966.04 2121.44 1965.16 2121.68 1964.16 2121.68 1963.02 2121.68 1962.32 2121.3 1961.68 2120.54 1961.12 2119.78 1960.55 2118.61 1960.15 2117.05 1959.92L2117.05 1956.17 2138.56 1956.17 2138.56 1959.92C2136.64 1960.39 2134.82 1961.32 2133.08 1962.73 2131.34 1964.14 2129.43 1966.05 2127.36 1968.47L2114.47 1983.94 2128.71 2002.16C2129.81 2003.61 2130.83 2004.85 2131.79 2005.88 2132.75 2006.92 2133.64 2007.79 2134.48 2008.49 2135.32 2009.19 2136.13 2009.74 2136.92 2010.13 2137.7 2010.52 2138.48 2010.82 2139.26 2011.01L2139.26 2014.76 2113.18 2014.76 2113.18 2010.83C2114.9 2010.64 2116.16 2010.25 2116.96 2009.66 2117.76 2009.08 2118.17 2008.39 2118.17 2007.61 2118.17 2006.95 2118.05 2006.26 2117.81 2005.56 2117.58 2004.86 2117.09 2004 2116.35 2002.98L2107.33 1990.85 2097.54 2002.87C2096.8 2003.76 2096.27 2004.57 2095.96 2005.27 2095.65 2005.97 2095.49 2006.71 2095.49 2007.5 2095.49 2008.24 2095.89 2008.93 2096.69 2009.58 2097.49 2010.22 2098.75 2010.64 2100.47 2010.83L2100.47 2014.76 2078.5 2014.76 2078.5 2011.01C2079.59 2010.62 2080.57 2010.22 2081.43 2009.81 2082.29 2009.4 2083.16 2008.85 2084.03 2008.17 2084.91 2007.49 2085.86 2006.62 2086.88 2005.56 2087.89 2004.51 2089.1 2003.14 2090.51 2001.46L2103.4 1986.05 2090.16 1968.65C2088.95 1967.05 2087.89 1965.72 2086.99 1964.66 2086.09 1963.61 2085.26 1962.75 2084.5 1962.08 2083.74 1961.42 2082.98 1960.93 2082.22 1960.62 2081.46 1960.31 2080.63 1960.07 2079.73 1959.92ZM2021.96 1929.74 2026.12 1929.74 2026.12 1965.48 2026.24 1965.48C2028.31 1963.45 2030.18 1961.77 2031.86 1960.44 2033.54 1959.12 2035.15 1958.05 2036.69 1957.25 2038.24 1956.45 2039.79 1955.88 2041.35 1955.55 2042.92 1955.22 2044.61 1955.01 2046.45 1954.94 2049.85 1954.94 2052.92 1955.59 2055.65 1956.9 2058.38 1958.21 2060.72 1960.13 2062.65 1962.67 2064.59 1965.21 2066.08 1968.34 2067.13 1972.08 2068.19 1975.81 2068.72 1980.07 2068.72 1984.88 2068.72 1990.31 2068.03 1994.97 2066.67 1998.85 2065.3 2002.74 2063.4 2005.94 2060.98 2008.46 2058.56 2010.98 2055.68 2012.84 2052.34 2014.03 2049 2015.22 2045.36 2015.82 2041.41 2015.82 2038.05 2015.82 2034.97 2015.53 2032.15 2014.97 2029.34 2014.4 2026.53 2013.45 2023.72 2012.12 2022.19 2013.41 2020.73 2014.64 2019.32 2015.82 2018.54 2015.62 2017.75 2015.46 2016.95 2015.35 2016.15 2015.23 2015.36 2015.07 2014.58 2014.88L2014.58 1950.07C2014.58 1947.96 2014.59 1946.14 2014.6 1944.59 2014.62 1943.05 2014.58 1941.73 2014.46 1940.64 2014.34 1939.55 2014.14 1938.64 2013.84 1937.92 2013.55 1937.19 2013.09 1936.6 2012.47 1936.13 2011.84 1935.66 2011.03 1935.28 2010.03 1934.99 2009.04 1934.69 2007.78 1934.43 2006.26 1934.19L2006.26 1930.33Z" fill-rule="evenodd"/><text fill="#000000" fill-opacity="0" font-family="Arial,Arial_MSFontService,sans-serif" font-size="86.0742" x="2006.26" y="2005.06">bx</text><path d="M22.9136-3.40977 1626.56-1.46878 1626.55 5.40622 22.9053 3.46523ZM27.4833 13.7833 0 0 27.5166-13.7167ZM1621.98-11.7868 1649.47 1.99646 1621.95 15.7132Z" transform="matrix(1 0 0 -1 1277.5 2043.5)"/><path d="M0 0 6.02943 1445.22" stroke="#000000" stroke-width="6.875" stroke-miterlimit="8" fill="none" fill-rule="evenodd" transform="matrix(-1 0 0 1 2942.53 872.5)"/><path d="M2870.5 1324.5C2870.5 1290.81 2900.05 1263.5 2936.5 1263.5 2972.95 1263.5 3002.5 1290.81 3002.5 1324.5 3002.5 1358.19 2972.95 1385.5 2936.5 1385.5 2900.05 1385.5 2870.5 1358.19 2870.5 1324.5Z" stroke="#000000" stroke-width="20.625" stroke-miterlimit="8" fill="none" fill-rule="evenodd"/><path d="M1205.5 1162.5C1205.5 1128.81 1235.27 1101.5 1272 1101.5 1308.73 1101.5 1338.5 1128.81 1338.5 1162.5 1338.5 1196.19 1308.73 1223.5 1272 1223.5 1235.27 1223.5 1205.5 1196.19 1205.5 1162.5Z" stroke="#000000" stroke-width="20.625" stroke-miterlimit="8" fill="none" fill-rule="evenodd"/><path d="M3563.08 1327.5 681.5 1327.5" stroke="#000000" stroke-width="6.875" stroke-miterlimit="8" fill="none" fill-rule="evenodd"/><path d="M2986.32 936.857 3056.45 936.857 3058.32 941.789 3011.27 995.84C3002.13 1006.29 2994.21 1015.17 2987.5 1022.47L2988.09 1023.16 3010.39 1023.16C3014.33 1023.16 3017.36 1022.95 3019.46 1022.52 3021.56 1022.09 3023.41 1021.29 3024.98 1020.1 3026.56 1018.92 3028.19 1017.13 3029.87 1014.73 3031.54 1012.33 3033.63 1008.56 3036.13 1003.43L3044.91 1003.43 3038.89 1031.15 2967.48 1031.15 2965.61 1026.32 3019.56 964.178C3027.19 955.433 3032.78 949.219 3036.33 945.537L3035.73 944.846 3012.65 944.846C3009.24 944.846 3006.74 945.077 3005.16 945.537 3003.58 945.997 3002 946.803 3000.42 947.953 2998.85 949.104 2997.15 950.814 2995.34 953.082 2993.54 955.351 2991.51 958.589 2989.28 962.798L2980.5 962.798Z" fill-rule="evenodd"/><text fill="#000000" fill-opacity="0" font-family="Arial,Arial_MSFontService,sans-serif" font-size="94.293" x="2965.61" y="1019.36">𝑧</text><path d="M2363.72 1210.63C2365.76 1210.63 2367.55 1210.86 2369.1 1211.32 2370.64 1211.78 2372.01 1212.49 2373.19 1213.45 2374.38 1214.4 2375.43 1215.63 2376.35 1217.14 2377.27 1218.66 2378.16 1220.71 2379.01 1223.31 2379.87 1225.91 2380.67 1229.13 2381.43 1232.97 2382.18 1236.82 2382.86 1240.82 2383.45 1244.96L2384.44 1244.96C2390.75 1236.08 2395.53 1229.59 2398.79 1225.48 2402.04 1221.37 2404.79 1218.31 2407.02 1216.31 2409.26 1214.3 2411.41 1212.89 2413.48 1212.06 2415.56 1211.24 2418.3 1210.83 2421.72 1210.83 2424.81 1210.83 2427.34 1211.23 2429.31 1212.01L2425.37 1229.87 2418.47 1229.87C2418.07 1227.11 2416.92 1225.72 2415.01 1225.72 2414.42 1225.72 2413.8 1225.82 2413.14 1226.02 2412.48 1226.22 2411.68 1226.65 2410.72 1227.3 2409.77 1227.96 2408.37 1229.24 2406.53 1231.15 2404.69 1233.06 2402.62 1235.39 2400.32 1238.15 2398.02 1240.91 2395.65 1243.81 2393.22 1246.83L2386.51 1255.22C2387.69 1261.53 2388.81 1266.99 2389.86 1271.59 2390.91 1276.19 2391.85 1280.02 2392.67 1283.08 2393.49 1286.14 2394.22 1288.55 2394.84 1290.33 2395.47 1292.1 2396.14 1293.44 2396.86 1294.32 2397.59 1295.21 2398.33 1295.84 2399.08 1296.2 2399.84 1296.56 2400.71 1296.74 2401.7 1296.74 2403.47 1296.74 2405.2 1296.05 2406.88 1294.67 2408.55 1293.29 2410.97 1290.16 2414.13 1285.3L2420.54 1289.54C2415.93 1296.38 2411.77 1301.2 2408.06 1303.99 2404.34 1306.78 2399.92 1308.18 2394.79 1308.18 2391.97 1308.18 2389.57 1307.67 2387.59 1306.65 2385.62 1305.63 2383.91 1304.01 2382.46 1301.77 2381.02 1299.54 2379.74 1296.05 2378.62 1291.32 2376.58 1282.9 2375.33 1276.45 2374.87 1271.98L2373.88 1271.98C2366.91 1281.78 2361.74 1288.82 2358.35 1293.09 2354.96 1297.37 2352.17 1300.52 2349.96 1302.56 2347.76 1304.6 2345.62 1306.03 2343.55 1306.85 2341.48 1307.67 2338.74 1308.08 2335.32 1308.08 2332.23 1308.08 2329.7 1307.69 2327.72 1306.9L2331.67 1289.05 2338.57 1289.05C2338.97 1291.81 2340.12 1293.19 2342.02 1293.19 2342.95 1293.19 2343.92 1292.94 2344.93 1292.45 2345.95 1291.96 2347.42 1290.77 2349.32 1288.9 2351.23 1287.03 2353.86 1284.08 2357.21 1280.07 2360.57 1276.06 2365.43 1270.04 2371.81 1262.02 2370.83 1256.83 2369.81 1251.83 2368.75 1247.03 2367.7 1242.23 2366.62 1237.76 2365.5 1233.62 2364.38 1229.47 2363.46 1226.76 2362.74 1225.48 2362.01 1224.2 2361.24 1223.31 2360.42 1222.82 2359.6 1222.32 2358.56 1222.08 2357.31 1222.08 2355.93 1222.08 2354.68 1222.39 2353.56 1223.01 2352.45 1223.64 2351.23 1224.72 2349.92 1226.27 2348.6 1227.81 2346.86 1230.23 2344.69 1233.52L2338.28 1229.28C2342.42 1223.03 2346.4 1218.36 2350.21 1215.27 2354.03 1212.18 2358.53 1210.63 2363.72 1210.63Z" fill-rule="evenodd"/><text fill="#000000" fill-opacity="0" font-family="Arial,Arial_MSFontService,sans-serif" font-size="97.5479" x="2327.72" y="1295.99">𝑥</text><path d="M1150.94 1183.42 1150.94 1311.15 1144.06 1311.15 1144.06 1183.42ZM1133.75 1188 1147.5 1160.5 1161.25 1188ZM1161.25 1306.56 1147.5 1334.06 1133.75 1306.56Z"/><path d="M956.555 1160.98 961.308 1160.98 941.489 1250.16C940.307 1255.48 939.716 1259.45 939.716 1262.09 939.716 1264.23 940.065 1265.79 940.764 1266.76 941.462 1267.73 942.563 1268.21 944.067 1268.21 945.678 1268.21 947.397 1267.55 949.223 1266.24 951.049 1264.92 953.627 1262.41 956.958 1258.7L961.55 1263.21C956.34 1268.69 952.083 1272.44 948.78 1274.45 945.477 1276.47 941.784 1277.47 937.702 1277.47 934.211 1277.47 931.418 1276.2 929.323 1273.65 927.229 1271.1 926.181 1267.83 926.181 1263.86 926.181 1260.26 926.933 1255.05 928.437 1248.23L942.858 1183.69C943.503 1180.85 943.959 1178.58 944.228 1176.89 944.497 1175.2 944.631 1173.62 944.631 1172.17 944.631 1170.56 944.335 1169.34 943.745 1168.51 943.154 1167.68 942.308 1167.07 941.207 1166.7 940.106 1166.32 938.132 1166.05 935.285 1165.89L936.252 1161.7Z" fill-rule="evenodd"/><text fill="#000000" fill-opacity="0" font-family="Arial,Arial_MSFontService,sans-serif" font-size="116.499" x="926.181" y="1262.91">𝑙</text><path d="M1007.22 1258.13C1005.23 1258.13 1003.27 1258.51 1001.36 1259.25 999.445 1259.99 997.736 1260.97 996.232 1262.18 994.728 1263.39 993.517 1264.77 992.599 1266.31 991.681 1267.85 991.222 1269.44 991.222 1271.08L991.222 1288.25C991.222 1291.53 991.495 1294.26 992.042 1296.43 992.589 1298.59 993.458 1300.33 994.65 1301.64 995.841 1302.95 997.364 1303.88 999.22 1304.42 1001.08 1304.97 1003.33 1305.24 1005.99 1305.24 1011.03 1305.24 1014.84 1303.26 1017.44 1299.3 1020.04 1295.33 1021.34 1289.48 1021.34 1281.75 1021.34 1266.01 1016.63 1258.13 1007.22 1258.13ZM1047.76 1251.28 1096.69 1251.28 1096.69 1255.15 1062.06 1304.01 1078.76 1304.01C1080.79 1304.01 1082.39 1303.93 1083.56 1303.75 1084.73 1303.57 1085.7 1303.08 1086.46 1302.26 1087.22 1301.44 1087.92 1300.2 1088.54 1298.56 1089.17 1296.92 1089.95 1294.64 1090.89 1291.71L1097.04 1291.71 1097.04 1309.87 1047.35 1309.87 1047.35 1306.12 1082.04 1257.14 1064.81 1257.14C1063.41 1257.14 1062.17 1257.3 1061.12 1257.64 1060.07 1257.97 1059.12 1258.56 1058.28 1259.42 1057.44 1260.28 1056.66 1261.44 1055.93 1262.91 1055.21 1264.37 1054.5 1266.22 1053.8 1268.45L1047.76 1268.45ZM987.062 1224.85 991.222 1224.85 991.222 1260.6 991.339 1260.6C993.409 1258.56 995.284 1256.88 996.964 1255.56 998.644 1254.23 1000.26 1253.16 1001.8 1252.36 1003.34 1251.56 1004.89 1251 1006.46 1250.66 1008.02 1250.33 1009.72 1250.13 1011.55 1250.05 1014.95 1250.05 1018.02 1250.7 1020.75 1252.01 1023.49 1253.32 1025.82 1255.24 1027.76 1257.78 1029.69 1260.32 1031.18 1263.46 1032.24 1267.19 1033.29 1270.92 1033.82 1275.19 1033.82 1279.99 1033.82 1285.42 1033.14 1290.08 1031.77 1293.96 1030.4 1297.85 1028.51 1301.05 1026.09 1303.57 1023.66 1306.09 1020.78 1307.95 1017.44 1309.14 1014.1 1310.33 1010.46 1310.93 1006.51 1310.93 1003.16 1310.93 1000.07 1310.64 997.257 1310.08 994.445 1309.51 991.632 1308.56 988.82 1307.24 987.296 1308.52 985.831 1309.76 984.425 1310.93 983.644 1310.73 982.853 1310.58 982.052 1310.46 981.251 1310.34 980.46 1310.19 979.679 1309.99L979.679 1245.19C979.679 1243.08 979.689 1241.25 979.708 1239.71 979.728 1238.16 979.679 1236.85 979.562 1235.75 979.445 1234.66 979.239 1233.75 978.946 1233.03 978.654 1232.3 978.195 1231.71 977.57 1231.24 976.945 1230.77 976.134 1230.39 975.138 1230.1 974.142 1229.8 972.882 1229.54 971.359 1229.31L971.359 1225.44Z" fill-rule="evenodd"/><text fill="#000000" fill-opacity="0" font-family="Arial,Arial_MSFontService,sans-serif" font-size="86.0742" x="971.359" y="1300.17">bz</text><path d="M2707.25 411.317 2712 411.317 2692.18 500.504C2691 505.822 2690.41 509.796 2690.41 512.428 2690.41 514.576 2690.76 516.134 2691.46 517.101 2692.16 518.068 2693.26 518.551 2694.76 518.551 2696.37 518.551 2698.09 517.893 2699.92 516.577 2701.74 515.261 2704.32 512.75 2707.65 509.044L2712.24 513.556C2707.03 519.034 2702.78 522.781 2699.48 524.795 2696.17 526.809 2692.48 527.816 2688.4 527.816 2684.91 527.816 2682.11 526.541 2680.02 523.989 2677.92 521.438 2676.88 518.175 2676.88 514.201 2676.88 510.602 2677.63 505.392 2679.13 498.571L2693.55 434.037C2694.2 431.19 2694.65 428.921 2694.92 427.229 2695.19 425.537 2695.33 423.966 2695.33 422.516 2695.33 420.905 2695.03 419.683 2694.44 418.85 2693.85 418.018 2693 417.413 2691.9 417.037 2690.8 416.661 2688.83 416.393 2685.98 416.232L2686.95 412.042Z" fill-rule="evenodd"/><text fill="#000000" fill-opacity="0" font-family="Arial,Arial_MSFontService,sans-serif" font-size="116.499" x="2676.88" y="513.254">𝑙</text><path d="M2764.3 500.39C2766.72 500.39 2769.03 500.625 2771.21 501.094L2771.21 515.625 2763.71 515.625C2763.28 514.531 2762.83 513.584 2762.37 512.783 2761.9 511.982 2761.36 511.318 2760.75 510.791 2760.15 510.263 2759.45 509.873 2758.65 509.619 2757.84 509.365 2756.9 509.238 2755.8 509.238 2754.67 509.238 2753.39 509.599 2751.97 510.322 2750.54 511.045 2749.2 512.031 2747.95 513.281 2746.7 514.531 2745.66 515.976 2744.82 517.617 2743.98 519.258 2743.56 520.996 2743.56 522.832L2743.56 545.273C2743.56 547.734 2743.66 549.619 2743.88 550.928 2744.09 552.236 2744.49 553.222 2745.08 553.887 2745.67 554.551 2746.47 555.029 2747.48 555.322 2748.5 555.615 2749.83 555.996 2751.47 556.465L2751.47 560.215 2725.04 560.215 2725.04 556.465C2726.57 555.918 2727.79 555.488 2728.7 555.176 2729.62 554.863 2730.32 554.385 2730.81 553.74 2731.3 553.096 2731.61 552.148 2731.75 550.898 2731.89 549.648 2731.96 547.832 2731.96 545.449L2731.96 520.254C2731.96 517.558 2731.95 515.351 2731.93 513.633 2731.91 511.914 2731.67 510.517 2731.22 509.443 2730.77 508.369 2730.01 507.549 2728.94 506.982 2727.86 506.416 2726.27 505.957 2724.16 505.605L2724.16 501.621 2739.51 500.976 2743.67 500.976 2742.85 511.406C2742.97 511.484 2743.07 511.533 2743.15 511.553 2743.23 511.572 2743.32 511.621 2743.44 511.699 2745.32 509.668 2747.04 507.93 2748.63 506.484 2750.21 505.039 2751.81 503.867 2753.43 502.969 2755.05 502.07 2756.73 501.416 2758.47 501.006 2760.21 500.596 2762.15 500.39 2764.3 500.39Z" fill-rule="evenodd"/><text fill="#000000" fill-opacity="0" font-family="Arial,Arial_MSFontService,sans-serif" font-size="59.8242" x="2724.16" y="552.737">r</text><path d="M1277.5 1037.5 1283.22 2104.36" stroke="#000000" stroke-width="6.875" stroke-miterlimit="8" stroke-dasharray="55 20.625 6.875 20.625" fill="none" fill-rule="evenodd"/><path d="M0 0 387.459 578.863" stroke="#000000" stroke-width="6.875" stroke-miterlimit="8" stroke-dasharray="55 20.625 6.875 20.625" fill="none" fill-rule="evenodd" transform="matrix(1 0 0 -1 1742.5 737.363)"/><path d="M2944 1410.78 2884.19 1501.95 2692.01 1375.87 2750.78 1286.28 1895.93 725.452 1850.04 785.415 1701.7 842.463C1678.1 826.279 1643.05 796.344 1619.46 780.16L1814.71 704.699 1837.35 672.766 1891.24 590.62 1913.66 554.104 1929.6 346.078C1955.79 363.357 1994.37 395.761 2020.57 413.04L2002.83 564.787 1962.8 623.53 2817.65 1184.36 2876.49 1094.66 3068.67 1220.74 3008.87 1311.91 2881.81 1228.55 2876.74 1236.26 2822 1319.71 2816.94 1327.42 2944 1410.78Z" stroke="#104862" stroke-width="6.875" stroke-miterlimit="8" fill="#A6CAEC" fill-rule="evenodd"/><path d="M0 0 324.854 463.126" stroke="#000000" stroke-width="6.875" stroke-miterlimit="8" stroke-dasharray="55 20.625 6.875 20.625" fill="none" fill-rule="evenodd" transform="matrix(1 0 0 -1 2918.5 1335.63)"/><g><path d="M2365.86 877.31C2413.21 877.31 2451.58 915.689 2451.58 963.031L2365.86 963.031Z" stroke="#000000" stroke-width="6.875" stroke-linejoin="round" stroke-miterlimit="10" fill="#FFFFFF" fill-rule="evenodd"/></g><g><path d="M2451.58 963.031C2451.58 1010.37 2413.21 1048.75 2365.86 1048.75L2365.86 963.031Z" stroke="#000000" stroke-width="6.875" stroke-linejoin="round" stroke-miterlimit="10" fill-rule="evenodd"/></g><g><path d="M2365.86 1048.75C2318.52 1048.75 2280.14 1010.37 2280.14 963.031L2365.86 963.031Z" stroke="#000000" stroke-width="6.875" stroke-linejoin="round" stroke-miterlimit="10" fill="#FFFFFF" fill-rule="evenodd"/></g><g><path d="M2280.14 963.031C2280.14 915.689 2318.52 877.31 2365.86 877.31L2365.86 963.031Z" stroke="#000000" stroke-width="6.875" stroke-linejoin="round" stroke-miterlimit="10" fill-rule="evenodd"/></g><path d="M10.3125-7.35992e-06 10.3128 454.109-10.3122 454.109-10.3125 7.35992e-06ZM30.9378 443.797 0.000360892 505.672-30.9372 443.797Z" transform="matrix(1 0 0 -1 2938.5 1324.17)"/><path d="M6.81369e-06-10.3125 494.648-10.3122 494.648 10.3128-6.81369e-06 10.3125ZM484.335-30.9372 546.21 0.000360892 484.335 30.9378Z" transform="matrix(-1 0 0 1 2945.71 1317.5)"/><path d="M2937.4 1666.9C2738.15 1691.16 2538.4 1544.73 2491.26 1339.84 2468.69 1241.78 2484.8 1143.11 2536.06 1065.4" stroke="#FF0000" stroke-width="6.875" stroke-miterlimit="8" fill="none" fill-rule="evenodd"/><path d="M2484.7 1098.6 2534.71 1071.09 2536.74 1128.13Z" stroke="#FF0000" stroke-width="6.875" stroke-miterlimit="8" fill="#FF0000" fill-rule="evenodd"/><path d="M3104.98 1232.53C3146.17 1330.53 3103.93 1441.78 3010.62 1481.01 2917.31 1520.23 2808.27 1472.58 2767.07 1374.57 2746.55 1325.75 2746.08 1271.04 2765.78 1223.31" stroke="#FF0000" stroke-width="20.625" stroke-miterlimit="8" fill="none" fill-rule="evenodd"/><path d="M2736.06 1214 2784.84 1184.36 2789.32 1241.27Z" stroke="#FF0000" stroke-width="6.875" stroke-miterlimit="8" fill="#FF0000" fill-rule="evenodd"/><path d="M0 0 1044.31 1500.35" stroke="#FF0000" stroke-width="6.875" stroke-miterlimit="8" stroke-dasharray="27.5 20.625 6.875 20.625" fill="none" fill-rule="evenodd" transform="matrix(-0.0270984 -0.999633 -0.999633 0.0270984 3062.77 1419.97)"/><path d="M3127.63 1333.7 1004.5 1143.5" stroke="#00B050" stroke-width="6.875" stroke-miterlimit="8" stroke-dasharray="27.5 20.625 6.875 20.625" fill="none" fill-rule="evenodd"/><path d="M2219.94 1303.02 2253.26 1256.67 2279.62 1307.29Z" stroke="#00B050" stroke-width="6.875" stroke-miterlimit="8" fill="#00B050" fill-rule="evenodd"/><path d="M2418.27 1639.73C2415.47 1652.66 2414.07 1663.53 2414.07 1672.35 2414.07 1679.02 2415.08 1683.92 2417.11 1687.05 2419.13 1690.18 2422.41 1691.74 2426.94 1691.74 2433.61 1691.74 2439.94 1687.26 2445.93 1678.29 2451.91 1669.33 2456.99 1656.47 2461.16 1639.73ZM2454.91 1579.51C2447.94 1579.51 2441.49 1583.92 2435.56 1592.73 2429.63 1601.55 2424.58 1614.18 2420.41 1630.62L2463.22 1630.62C2466.02 1618.05 2467.42 1607.24 2467.42 1598.18 2467.42 1591.93 2466.4 1587.25 2464.38 1584.16 2462.35 1581.06 2459.19 1579.51 2454.91 1579.51ZM2455.98 1572.27C2473.25 1572.27 2481.89 1583.23 2481.89 1605.15 2481.89 1611.35 2481.19 1618.75 2479.79 1627.36 2478.39 1635.97 2476.17 1644.74 2473.13 1653.67 2470.1 1662.61 2466.25 1670.52 2461.61 1677.4 2456.96 1684.28 2451.6 1689.6 2445.52 1693.35 2439.45 1697.1 2432.89 1698.98 2425.86 1698.98 2416.99 1698.98 2410.38 1696.27 2406.03 1690.85 2401.68 1685.43 2399.51 1677.29 2399.51 1666.45 2399.51 1660.55 2400.16 1653.29 2401.47 1644.65 2402.78 1636.01 2404.94 1627.18 2407.95 1618.16 2410.96 1609.13 2414.83 1601.12 2419.57 1594.12 2424.3 1587.12 2429.75 1581.73 2435.92 1577.95 2442.08 1574.16 2448.77 1572.27 2455.98 1572.27Z" fill="#00B050" fill-rule="evenodd"/><text fill="#000000" fill-opacity="0" font-family="Arial,Arial_MSFontService,sans-serif" font-size="126.706" x="2399.51" y="1683.14">𝜃</text><path d="M0 0 1924.86 5.27119" stroke="#000000" stroke-width="6.875" stroke-miterlimit="8" stroke-dasharray="55 20.625 6.875 20.625" fill="none" fill-rule="evenodd" transform="matrix(-1 0 0 1 3072.36 1160.5)"/></g></svg>