<svg width="2886" height="2178" xmlns="http://www.w3.org/2000/svg" xmlns:xlink="http://www.w3.org/1999/xlink" xml:space="preserve" overflow="hidden"><defs><clipPath id="clip0"><rect x="926" y="197" width="2886" height="2178"/></clipPath></defs><g clip-path="url(#clip0)" transform="translate(-926 -197)"><path d="M3176.36 1973.92C2778 2004 2474.28 1732.53 2497.98 1367.56 2499.32 1346.79 2501.74 1325.95 2505.22 1305.11" stroke="#00B050" stroke-width="6.875" stroke-miterlimit="8" fill="none" fill-rule="evenodd"/><path d="M2368.53 277.239 3422.97 971.953 3419.19 977.694 2364.75 282.98ZM2362.9 294.112 2347.5 267.5 2378.03 271.148ZM3424.82 960.82 3440.22 987.432 3409.69 983.784Z"/><path d="M2239.84 1919.09 2244.59 1919.09 2224.77 2008.28C2223.59 2013.59 2223 2017.57 2223 2020.2 2223 2022.35 2223.35 2023.91 2224.05 2024.87 2224.75 2025.84 2225.85 2026.32 2227.35 2026.32 2228.96 2026.32 2230.68 2025.67 2232.51 2024.35 2234.33 2023.03 2236.91 2020.52 2240.24 2016.82L2244.83 2021.33C2239.62 2026.81 2235.37 2030.55 2232.06 2032.57 2228.76 2034.58 2225.07 2035.59 2220.99 2035.59 2217.49 2035.59 2214.7 2034.31 2212.61 2031.76 2210.51 2029.21 2209.46 2025.95 2209.46 2021.97 2209.46 2018.37 2210.22 2013.16 2211.72 2006.34L2226.14 1941.81C2226.79 1938.96 2227.24 1936.69 2227.51 1935 2227.78 1933.31 2227.91 1931.74 2227.91 1930.29 2227.91 1928.68 2227.62 1927.45 2227.03 1926.62 2226.44 1925.79 2225.59 1925.19 2224.49 1924.81 2223.39 1924.43 2221.42 1924.16 2218.57 1924L2219.54 1919.81Z" fill-rule="evenodd"/><text fill="#000000" fill-opacity="0" font-family="Arial,Arial_MSFontService,sans-serif" font-size="116.499" x="2209.46" y="2021.03">𝑙</text><path d="M2290.5 2016.25C2288.51 2016.25 2286.56 2016.62 2284.64 2017.36 2282.73 2018.1 2281.02 2019.08 2279.52 2020.29 2278.01 2021.5 2276.8 2022.88 2275.88 2024.42 2274.96 2025.97 2274.51 2027.56 2274.51 2029.2L2274.51 2046.37C2274.51 2049.65 2274.78 2052.37 2275.33 2054.54 2275.87 2056.71 2276.74 2058.45 2277.93 2059.75 2279.12 2061.06 2280.65 2061.99 2282.5 2062.54 2284.36 2063.08 2286.61 2063.36 2289.27 2063.36 2294.31 2063.36 2298.13 2061.38 2300.73 2057.41 2303.32 2053.45 2304.62 2047.6 2304.62 2039.86 2304.62 2024.12 2299.92 2016.25 2290.5 2016.25ZM2328.11 2009.39 2353.84 2009.39 2353.84 2013.14C2351.96 2013.38 2350.62 2013.78 2349.82 2014.34 2349.02 2014.91 2348.62 2015.58 2348.62 2016.37 2348.62 2017.15 2348.83 2017.95 2349.24 2018.77 2349.65 2019.59 2350.3 2020.56 2351.2 2021.7L2358.94 2032.19 2367.26 2022.11C2368.15 2021.09 2368.85 2020.14 2369.34 2019.27 2369.82 2018.39 2370.07 2017.38 2370.07 2016.25 2370.07 2015.55 2369.69 2014.91 2368.93 2014.34 2368.16 2013.78 2367 2013.38 2365.44 2013.14L2365.44 2009.39 2386.94 2009.39 2386.94 2013.14C2385.03 2013.61 2383.2 2014.55 2381.46 2015.96 2379.73 2017.36 2377.82 2019.28 2375.75 2021.7L2362.86 2037.17 2377.1 2055.39C2378.19 2056.83 2379.22 2058.07 2380.18 2059.11 2381.13 2060.14 2382.03 2061.01 2382.87 2061.72 2383.71 2062.42 2384.52 2062.97 2385.3 2063.36 2386.08 2063.75 2386.86 2064.04 2387.65 2064.24L2387.65 2067.99 2361.57 2067.99 2361.57 2064.06C2363.29 2063.87 2364.55 2063.47 2365.35 2062.89 2366.15 2062.3 2366.55 2061.62 2366.55 2060.84 2366.55 2060.17 2366.44 2059.49 2366.2 2058.79 2365.97 2058.08 2365.48 2057.22 2364.74 2056.21L2355.71 2044.08 2345.93 2056.09C2345.19 2056.99 2344.66 2057.79 2344.35 2058.49 2344.03 2059.2 2343.88 2059.94 2343.88 2060.72 2343.88 2061.46 2344.28 2062.16 2345.08 2062.8 2345.88 2063.45 2347.14 2063.87 2348.86 2064.06L2348.86 2067.99 2326.88 2067.99 2326.88 2064.24C2327.98 2063.85 2328.95 2063.45 2329.81 2063.04 2330.67 2062.63 2331.54 2062.08 2332.42 2061.39 2333.3 2060.71 2334.25 2059.84 2335.26 2058.79 2336.28 2057.73 2337.49 2056.37 2338.9 2054.69L2351.79 2039.28 2338.54 2021.87C2337.33 2020.27 2336.28 2018.94 2335.38 2017.89 2334.48 2016.83 2333.65 2015.97 2332.89 2015.31 2332.13 2014.65 2331.37 2014.16 2330.6 2013.85 2329.84 2013.53 2329.01 2013.3 2328.11 2013.14ZM2270.35 1982.97 2274.51 1982.97 2274.51 2018.71 2274.62 2018.71C2276.69 2016.68 2278.57 2015 2280.25 2013.67 2281.93 2012.34 2283.54 2011.28 2285.08 2010.48 2286.62 2009.68 2288.18 2009.11 2289.74 2008.78 2291.3 2008.45 2293 2008.24 2294.84 2008.16 2298.24 2008.16 2301.3 2008.82 2304.04 2010.13 2306.77 2011.43 2309.1 2013.36 2311.04 2015.9 2312.97 2018.44 2314.47 2021.57 2315.52 2025.3 2316.58 2029.03 2317.1 2033.3 2317.1 2038.1 2317.1 2043.53 2316.42 2048.19 2315.05 2052.08 2313.69 2055.97 2311.79 2059.17 2309.37 2061.69 2306.95 2064.21 2304.07 2066.06 2300.73 2067.25 2297.39 2068.45 2293.74 2069.04 2289.8 2069.04 2286.44 2069.04 2283.35 2068.76 2280.54 2068.19 2277.73 2067.63 2274.92 2066.68 2272.1 2065.35 2270.58 2066.64 2269.11 2067.87 2267.71 2069.04 2266.93 2068.85 2266.14 2068.69 2265.34 2068.57 2264.53 2068.46 2263.74 2068.3 2262.96 2068.1L2262.96 2003.3C2262.96 2001.19 2262.97 1999.36 2262.99 1997.82 2263.01 1996.28 2262.96 1994.96 2262.85 1993.87 2262.73 1992.77 2262.52 1991.86 2262.23 1991.14 2261.94 1990.42 2261.48 1989.82 2260.85 1989.35 2260.23 1988.89 2259.42 1988.5 2258.42 1988.21 2257.43 1987.92 2256.17 1987.65 2254.64 1987.42L2254.64 1983.55Z" fill-rule="evenodd"/><text fill="#000000" fill-opacity="0" font-family="Arial,Arial_MSFontService,sans-serif" font-size="86.0742" x="2254.64" y="2058.28">bx</text><path d="M22.9136-3.40977 1626.56-1.46878 1626.55 5.40622 22.9053 3.46523ZM27.4833 13.7833 0 0 27.5166-13.7167ZM1621.98-11.7868 1649.47 1.99646 1621.95 15.7132Z" transform="matrix(1 0 0 -1 1525.5 2096.5)"/><path d="M0 0 6.02943 1445.22" stroke="#000000" stroke-width="6.875" stroke-miterlimit="8" fill="none" fill-rule="evenodd" transform="matrix(-1 0 0 1 3190.53 925.5)"/><path d="M3118.5 1377.5C3118.5 1343.81 3148.27 1316.5 3185 1316.5 3221.73 1316.5 3251.5 1343.81 3251.5 1377.5 3251.5 1411.19 3221.73 1438.5 3185 1438.5 3148.27 1438.5 3118.5 1411.19 3118.5 1377.5Z" stroke="#000000" stroke-width="20.625" stroke-miterlimit="8" fill="none" fill-rule="evenodd"/><path d="M1454.5 1215.5C1454.5 1181.81 1484.27 1154.5 1521 1154.5 1557.73 1154.5 1587.5 1181.81 1587.5 1215.5 1587.5 1249.19 1557.73 1276.5 1521 1276.5 1484.27 1276.5 1454.5 1249.19 1454.5 1215.5Z" stroke="#000000" stroke-width="20.625" stroke-miterlimit="8" fill="none" fill-rule="evenodd"/><path d="M3811.08 1381.5 929.5 1381.5" stroke="#000000" stroke-width="6.875" stroke-miterlimit="8" fill="none" fill-rule="evenodd"/><path d="M3234.71 990.083 3304.83 990.083 3306.71 995.015 3259.66 1049.07C3250.52 1059.52 3242.6 1068.4 3235.89 1075.7L3236.48 1076.39 3258.77 1076.39C3262.72 1076.39 3265.74 1076.17 3267.85 1075.75 3269.95 1075.32 3271.79 1074.51 3273.37 1073.33 3274.95 1072.15 3276.58 1070.35 3278.25 1067.95 3279.93 1065.55 3282.02 1061.79 3284.52 1056.66L3293.29 1056.66 3287.28 1084.38 3215.87 1084.38 3213.99 1079.54 3267.95 1017.4C3275.57 1008.66 3281.16 1002.45 3284.71 998.763L3284.12 998.072 3261.04 998.072C3257.62 998.072 3255.12 998.302 3253.55 998.763 3251.97 999.223 3250.39 1000.03 3248.81 1001.18 3247.23 1002.33 3245.54 1004.04 3243.73 1006.31 3241.92 1008.58 3239.9 1011.82 3237.67 1016.02L3228.89 1016.02Z" fill-rule="evenodd"/><text fill="#000000" fill-opacity="0" font-family="Arial,Arial_MSFontService,sans-serif" font-size="94.293" x="3213.99" y="1072.59">𝑧</text><path d="M2612.11 1263.86C2614.15 1263.86 2615.94 1264.09 2617.49 1264.55 2619.03 1265.01 2620.4 1265.72 2621.58 1266.67 2622.76 1267.62 2623.82 1268.86 2624.74 1270.37 2625.66 1271.88 2626.54 1273.94 2627.4 1276.53 2628.25 1279.13 2629.06 1282.35 2629.82 1286.2 2630.57 1290.05 2631.25 1294.04 2631.84 1298.18L2632.82 1298.18C2639.14 1289.31 2643.92 1282.81 2647.18 1278.7 2650.43 1274.59 2653.18 1271.54 2655.41 1269.53 2657.65 1267.53 2659.8 1266.11 2661.87 1265.29 2663.94 1264.47 2666.69 1264.06 2670.11 1264.06 2673.2 1264.06 2675.73 1264.45 2677.7 1265.24L2673.76 1283.09 2666.85 1283.09C2666.46 1280.33 2665.31 1278.95 2663.4 1278.95 2662.81 1278.95 2662.18 1279.05 2661.53 1279.25 2660.87 1279.44 2660.06 1279.87 2659.11 1280.53 2658.16 1281.19 2656.76 1282.47 2654.92 1284.38 2653.08 1286.28 2651.01 1288.62 2648.7 1291.38 2646.4 1294.14 2644.04 1297.03 2641.6 1300.06L2634.9 1308.44C2636.08 1314.75 2637.2 1320.21 2638.25 1324.81 2639.3 1329.42 2640.24 1333.25 2641.06 1336.31 2641.88 1339.36 2642.6 1341.78 2643.23 1343.56 2643.85 1345.33 2644.53 1346.66 2645.25 1347.55 2645.98 1348.44 2646.71 1349.06 2647.47 1349.42 2648.23 1349.79 2649.1 1349.97 2650.08 1349.97 2651.86 1349.97 2653.59 1349.28 2655.26 1347.9 2656.94 1346.51 2659.36 1343.39 2662.51 1338.52L2668.92 1342.77C2664.32 1349.6 2660.16 1354.42 2656.45 1357.22 2652.73 1360.01 2648.31 1361.41 2643.18 1361.41 2640.35 1361.41 2637.95 1360.9 2635.98 1359.88 2634.01 1358.86 2632.3 1357.23 2630.85 1355 2629.4 1352.76 2628.12 1349.28 2627 1344.54 2624.97 1336.12 2623.72 1329.68 2623.26 1325.21L2622.27 1325.21C2615.3 1335.01 2610.12 1342.04 2606.74 1346.32 2603.35 1350.59 2600.55 1353.75 2598.35 1355.79 2596.15 1357.82 2594.01 1359.25 2591.94 1360.08 2589.87 1360.9 2587.12 1361.31 2583.7 1361.31 2580.61 1361.31 2578.08 1360.91 2576.11 1360.13L2580.06 1342.27 2586.96 1342.27C2587.35 1345.03 2588.5 1346.42 2590.41 1346.42 2591.33 1346.42 2592.3 1346.17 2593.32 1345.68 2594.34 1345.18 2595.8 1344 2597.71 1342.12 2599.62 1340.25 2602.25 1337.31 2605.6 1333.3 2608.95 1329.29 2613.82 1323.27 2620.2 1315.25 2619.21 1310.05 2618.19 1305.06 2617.14 1300.26 2616.09 1295.46 2615 1290.98 2613.89 1286.84 2612.77 1282.7 2611.85 1279.99 2611.12 1278.7 2610.4 1277.42 2609.63 1276.53 2608.81 1276.04 2607.98 1275.55 2606.95 1275.3 2605.7 1275.3 2604.32 1275.3 2603.07 1275.61 2601.95 1276.24 2600.83 1276.86 2599.62 1277.95 2598.3 1279.49 2596.99 1281.04 2595.24 1283.45 2593.07 1286.74L2586.66 1282.5C2590.81 1276.25 2594.78 1271.59 2598.6 1268.5 2602.41 1265.41 2606.92 1263.86 2612.11 1263.86Z" fill-rule="evenodd"/><text fill="#000000" fill-opacity="0" font-family="Arial,Arial_MSFontService,sans-serif" font-size="97.5479" x="2576.11" y="1349.21">𝑥</text><path d="M1398.94 1237.42 1398.94 1365.15 1392.06 1365.15 1392.06 1237.42ZM1381.75 1242 1395.5 1214.5 1409.25 1242ZM1409.25 1360.56 1395.5 1388.06 1381.75 1360.56Z"/><path d="M1204.94 1214.2 1209.7 1214.2 1189.88 1303.39C1188.69 1308.71 1188.1 1312.68 1188.1 1315.31 1188.1 1317.46 1188.45 1319.02 1189.15 1319.98 1189.85 1320.95 1190.95 1321.43 1192.45 1321.43 1194.07 1321.43 1195.78 1320.78 1197.61 1319.46 1199.44 1318.15 1202.01 1315.63 1205.34 1311.93L1209.94 1316.44C1204.73 1321.92 1200.47 1325.66 1197.17 1327.68 1193.86 1329.69 1190.17 1330.7 1186.09 1330.7 1182.6 1330.7 1179.81 1329.42 1177.71 1326.87 1175.62 1324.32 1174.57 1321.06 1174.57 1317.08 1174.57 1313.49 1175.32 1308.28 1176.82 1301.45L1191.25 1236.92C1191.89 1234.07 1192.35 1231.8 1192.62 1230.11 1192.88 1228.42 1193.02 1226.85 1193.02 1225.4 1193.02 1223.79 1192.72 1222.57 1192.13 1221.73 1191.54 1220.9 1190.69 1220.3 1189.59 1219.92 1188.49 1219.55 1186.52 1219.28 1183.67 1219.12L1184.64 1214.93Z" fill-rule="evenodd"/><text fill="#000000" fill-opacity="0" font-family="Arial,Arial_MSFontService,sans-serif" font-size="116.499" x="1174.57" y="1316.14">𝑙</text><path d="M1255.6 1311.36C1253.61 1311.36 1251.66 1311.73 1249.75 1312.47 1247.83 1313.22 1246.12 1314.19 1244.62 1315.4 1243.11 1316.61 1241.9 1317.99 1240.99 1319.53 1240.07 1321.08 1239.61 1322.67 1239.61 1324.31L1239.61 1341.48C1239.61 1344.76 1239.88 1347.48 1240.43 1349.65 1240.98 1351.82 1241.85 1353.56 1243.04 1354.87 1244.23 1356.17 1245.75 1357.1 1247.61 1357.65 1249.46 1358.2 1251.72 1358.47 1254.37 1358.47 1259.41 1358.47 1263.23 1356.49 1265.83 1352.52 1268.43 1348.56 1269.73 1342.71 1269.73 1334.97 1269.73 1319.23 1265.02 1311.36 1255.6 1311.36ZM1296.15 1304.5 1345.07 1304.5 1345.07 1308.37 1310.44 1357.24 1327.14 1357.24C1329.18 1357.24 1330.78 1357.15 1331.95 1356.98 1333.12 1356.8 1334.09 1356.3 1334.85 1355.48 1335.61 1354.66 1336.3 1353.43 1336.93 1351.79 1337.55 1350.15 1338.34 1347.86 1339.27 1344.93L1345.43 1344.93 1345.43 1363.1 1295.74 1363.1 1295.74 1359.35 1330.43 1310.36 1313.2 1310.36C1311.79 1310.36 1310.56 1310.53 1309.51 1310.86 1308.45 1311.19 1307.51 1311.79 1306.67 1312.65 1305.83 1313.51 1305.04 1314.67 1304.32 1316.14 1303.6 1317.6 1302.89 1319.45 1302.18 1321.67L1296.15 1321.67ZM1235.45 1278.08 1239.61 1278.08 1239.61 1313.82 1239.73 1313.82C1241.8 1311.79 1243.67 1310.11 1245.35 1308.78 1247.03 1307.45 1248.64 1306.39 1250.19 1305.59 1251.73 1304.79 1253.28 1304.22 1254.84 1303.89 1256.41 1303.56 1258.1 1303.35 1259.94 1303.27 1263.34 1303.27 1266.41 1303.93 1269.14 1305.24 1271.87 1306.55 1274.21 1308.47 1276.14 1311.01 1278.08 1313.55 1279.57 1316.68 1280.62 1320.41 1281.68 1324.14 1282.21 1328.41 1282.21 1333.22 1282.21 1338.65 1281.52 1343.3 1280.16 1347.19 1278.79 1351.08 1276.89 1354.28 1274.47 1356.8 1272.05 1359.32 1269.17 1361.17 1265.83 1362.37 1262.49 1363.56 1258.85 1364.15 1254.9 1364.15 1251.54 1364.15 1248.46 1363.87 1245.64 1363.3 1242.83 1362.74 1240.02 1361.79 1237.21 1360.46 1235.68 1361.75 1234.22 1362.98 1232.81 1364.15 1232.03 1363.96 1231.24 1363.8 1230.44 1363.68 1229.64 1363.57 1228.85 1363.41 1228.07 1363.22L1228.07 1298.41C1228.07 1296.3 1228.08 1294.48 1228.1 1292.93 1228.11 1291.39 1228.07 1290.07 1227.95 1288.98 1227.83 1287.88 1227.63 1286.98 1227.33 1286.25 1227.04 1285.53 1226.58 1284.93 1225.96 1284.47 1225.33 1284 1224.52 1283.62 1223.52 1283.32 1222.53 1283.03 1221.27 1282.77 1219.75 1282.53L1219.75 1278.66Z" fill-rule="evenodd"/><text fill="#000000" fill-opacity="0" font-family="Arial,Arial_MSFontService,sans-serif" font-size="86.0742" x="1219.75" y="1353.39">bz</text><path d="M2955.64 464.543 2960.39 464.543 2940.57 553.73C2939.39 559.047 2938.8 563.022 2938.8 565.654 2938.8 567.802 2939.15 569.36 2939.85 570.327 2940.54 571.294 2941.65 571.777 2943.15 571.777 2944.76 571.777 2946.48 571.119 2948.31 569.803 2950.13 568.487 2952.71 565.976 2956.04 562.27L2960.63 566.782C2955.42 572.26 2951.17 576.007 2947.86 578.021 2944.56 580.035 2940.87 581.042 2936.78 581.042 2933.29 581.042 2930.5 579.766 2928.41 577.215 2926.31 574.664 2925.26 571.401 2925.26 567.426 2925.26 563.828 2926.02 558.618 2927.52 551.797L2941.94 487.263C2942.58 484.416 2943.04 482.147 2943.31 480.455 2943.58 478.763 2943.71 477.192 2943.71 475.742 2943.71 474.13 2943.42 472.909 2942.83 472.076 2942.24 471.244 2941.39 470.639 2940.29 470.263 2939.19 469.887 2937.21 469.619 2934.37 469.458L2935.33 465.268Z" fill-rule="evenodd"/><text fill="#000000" fill-opacity="0" font-family="Arial,Arial_MSFontService,sans-serif" font-size="116.499" x="2925.26" y="566.48">𝑙</text><path d="M3012.69 553.616C3015.11 553.616 3017.41 553.851 3019.6 554.319L3019.6 568.851 3012.1 568.851C3011.67 567.757 3011.22 566.81 3010.75 566.009 3010.28 565.208 3009.75 564.544 3009.14 564.017 3008.54 563.489 3007.83 563.099 3007.03 562.845 3006.23 562.591 3005.28 562.464 3004.19 562.464 3003.06 562.464 3001.78 562.825 3000.35 563.548 2998.93 564.271 2997.59 565.257 2996.34 566.507 2995.09 567.757 2994.04 569.202 2993.2 570.843 2992.36 572.483 2991.94 574.222 2991.94 576.058L2991.94 598.499C2991.94 600.96 2992.05 602.845 2992.27 604.153 2992.48 605.462 2992.88 606.448 2993.47 607.112 2994.05 607.776 2994.85 608.255 2995.87 608.548 2996.89 608.841 2998.21 609.222 2999.85 609.69L2999.85 613.44 2973.43 613.44 2973.43 609.69C2974.95 609.144 2976.17 608.714 2977.09 608.401 2978.01 608.089 2978.71 607.61 2979.2 606.966 2979.69 606.321 2980 605.374 2980.14 604.124 2980.27 602.874 2980.34 601.058 2980.34 598.675L2980.34 573.48C2980.34 570.784 2980.33 568.577 2980.31 566.858 2980.29 565.14 2980.06 563.743 2979.61 562.669 2979.16 561.595 2978.4 560.774 2977.33 560.208 2976.25 559.642 2974.66 559.183 2972.55 558.831L2972.55 554.847 2987.9 554.202 2992.06 554.202 2991.24 564.632C2991.36 564.71 2991.46 564.759 2991.53 564.778 2991.61 564.798 2991.71 564.847 2991.83 564.925 2993.7 562.894 2995.43 561.155 2997.01 559.71 2998.59 558.265 3000.2 557.093 3001.82 556.194 3003.44 555.296 3005.12 554.642 3006.86 554.232 3008.59 553.821 3010.54 553.616 3012.69 553.616Z" fill-rule="evenodd"/><text fill="#000000" fill-opacity="0" font-family="Arial,Arial_MSFontService,sans-serif" font-size="59.8242" x="2972.55" y="605.962">r</text><path d="M1525.5 1091.5 1531.22 2158.36" stroke="#000000" stroke-width="6.875" stroke-miterlimit="8" stroke-dasharray="55 20.625 6.875 20.625" fill="none" fill-rule="evenodd"/><path d="M0 0 387.459 578.863" stroke="#000000" stroke-width="6.875" stroke-miterlimit="8" stroke-dasharray="55 20.625 6.875 20.625" fill="none" fill-rule="evenodd" transform="matrix(1 0 0 -1 1990.5 790.363)"/><path d="M3192.38 1464.01 3132.58 1555.17 2940.4 1429.09 2999.17 1339.51 2144.32 778.678 2098.42 838.641 1950.08 895.689C1926.49 879.504 1891.44 849.57 1867.85 833.386L2063.09 757.925 2085.74 725.992 2139.63 643.846 2162.04 607.33 2177.98 399.304C2204.18 416.583 2242.76 448.987 2268.96 466.266L2251.22 618.013 2211.18 676.756 3066.04 1237.59 3124.88 1147.89 3317.06 1273.97 3257.25 1365.13 3130.19 1281.77 3125.13 1289.49 3070.39 1372.94 3065.32 1380.65 3192.38 1464.01Z" stroke="#104862" stroke-width="6.875" stroke-miterlimit="8" fill="#A6CAEC" fill-rule="evenodd"/><path d="M0 0 324.854 463.126" stroke="#000000" stroke-width="6.875" stroke-miterlimit="8" stroke-dasharray="55 20.625 6.875 20.625" fill="none" fill-rule="evenodd" transform="matrix(1 0 0 -1 3166.5 1388.63)"/><g><path d="M2614.25 930.536C2661.59 930.536 2699.97 968.914 2699.97 1016.26L2614.25 1016.26Z" stroke="#000000" stroke-width="6.875" stroke-linejoin="round" stroke-miterlimit="10" fill="#FFFFFF" fill-rule="evenodd"/></g><g><path d="M2699.97 1016.26C2699.97 1063.6 2661.59 1101.98 2614.25 1101.98L2614.25 1016.26Z" stroke="#000000" stroke-width="6.875" stroke-linejoin="round" stroke-miterlimit="10" fill-rule="evenodd"/></g><g><path d="M2614.25 1101.98C2566.91 1101.98 2528.53 1063.6 2528.53 1016.26L2614.25 1016.26Z" stroke="#000000" stroke-width="6.875" stroke-linejoin="round" stroke-miterlimit="10" fill="#FFFFFF" fill-rule="evenodd"/></g><g><path d="M2528.53 1016.26C2528.53 968.914 2566.91 930.536 2614.25 930.536L2614.25 1016.26Z" stroke="#000000" stroke-width="6.875" stroke-linejoin="round" stroke-miterlimit="10" fill-rule="evenodd"/></g><path d="M10.3125-7.35992e-06 10.3128 454.109-10.3122 454.109-10.3125 7.35992e-06ZM30.9378 443.797 0.000360892 505.672-30.9372 443.797Z" transform="matrix(1 0 0 -1 3186.5 1377.17)"/><path d="M6.81369e-06-10.3125 494.648-10.3122 494.648 10.3128-6.81369e-06 10.3125ZM484.335-30.9372 546.21 0.000360892 484.335 30.9378Z" transform="matrix(-1 0 0 1 3193.71 1370.5)"/><path d="M3351.93 1486.32 1990.5 618.5" stroke="#FF0000" stroke-width="6.875" stroke-miterlimit="8" stroke-dasharray="27.5 20.625 6.875 20.625" fill="none" fill-rule="evenodd"/><path d="M3375.63 1386.7 1252.5 1196.5" stroke="#00B050" stroke-width="6.875" stroke-miterlimit="8" stroke-dasharray="27.5 20.625 6.875 20.625" fill="none" fill-rule="evenodd"/><path d="M2468.33 1356.24 2501.64 1309.89 2528.01 1360.52Z" stroke="#00B050" stroke-width="6.875" stroke-miterlimit="8" fill="#00B050" fill-rule="evenodd"/><path d="M2666.66 1692.96C2663.86 1705.89 2662.46 1716.76 2662.46 1725.58 2662.46 1732.25 2663.47 1737.15 2665.5 1740.27 2667.52 1743.4 2670.8 1744.97 2675.32 1744.97 2682 1744.97 2688.33 1740.48 2694.31 1731.52 2700.3 1722.55 2705.38 1709.7 2709.55 1692.96ZM2703.29 1632.74C2696.32 1632.74 2689.87 1637.14 2683.95 1645.96 2678.02 1654.78 2672.97 1667.41 2668.8 1683.85L2711.6 1683.85C2714.4 1671.28 2715.8 1660.47 2715.8 1651.41 2715.8 1645.16 2714.79 1640.48 2712.76 1637.38 2710.74 1634.28 2707.58 1632.74 2703.29 1632.74ZM2704.36 1625.5C2721.64 1625.5 2730.28 1636.46 2730.28 1658.38 2730.28 1664.58 2729.58 1671.98 2728.18 1680.58 2726.78 1689.19 2724.56 1697.96 2721.52 1706.9 2718.48 1715.84 2714.64 1723.74 2709.99 1730.62 2705.35 1737.5 2699.99 1742.82 2693.91 1746.57 2687.83 1750.33 2681.28 1752.2 2674.25 1752.2 2665.38 1752.2 2658.76 1749.49 2654.42 1744.07 2650.07 1738.65 2647.89 1730.52 2647.89 1719.68 2647.89 1713.78 2648.55 1706.51 2649.86 1697.88 2651.17 1689.24 2653.33 1680.41 2656.34 1671.38 2659.34 1662.36 2663.22 1654.34 2667.95 1647.34 2672.69 1640.35 2678.14 1634.95 2684.3 1631.17 2690.47 1627.39 2697.16 1625.5 2704.36 1625.5Z" fill="#00B050" fill-rule="evenodd"/><text fill="#000000" fill-opacity="0" font-family="Arial,Arial_MSFontService,sans-serif" font-size="126.706" x="2647.89" y="1736.37">𝜃</text><path d="M0 0 1924.86 5.27119" stroke="#000000" stroke-width="6.875" stroke-miterlimit="8" stroke-dasharray="55 20.625 6.875 20.625" fill="none" fill-rule="evenodd" transform="matrix(-1 0 0 1 3320.36 1214.5)"/><text font-family="Times New Roman,Times New Roman_MSFontService,sans-serif" font-weight="700" font-size="128" transform="matrix(1 0 0 1 1828.83 360)">claw1</text><text font-family="Times New Roman,Times New Roman_MSFontService,sans-serif" font-weight="700" font-size="128" transform="matrix(1 0 0 1 1479.32 866)">claw2</text><path d="M2058.85 402.303 2184.53 487.218 2176.84 498.612 2051.15 413.697ZM2186.54 471.976 2209.17 512.159 2163.44 506.156Z"/><path d="M1816.84 828.177 1932.08 842.371 1930.4 856.018 1815.16 841.823ZM1926.94 827.884 1965.36 853.397 1921.9 868.824Z"/></g></svg>