<svg width="5236" height="1458" xmlns="http://www.w3.org/2000/svg" xmlns:xlink="http://www.w3.org/1999/xlink" xml:space="preserve" overflow="hidden"><g transform="translate(645 -363)"><path d="M3337.5 1203.84C3337.5 1140.69 3388.69 1089.5 3451.84 1089.5L4473.16 1089.5C4536.31 1089.5 4587.5 1140.69 4587.5 1203.84L4587.5 1661.16C4587.5 1724.31 4536.31 1775.5 4473.16 1775.5L3451.84 1775.5C3388.69 1775.5 3337.5 1724.31 3337.5 1661.16Z" stroke="#042433" stroke-width="6.875" stroke-miterlimit="8" fill="#FFFFFF" fill-rule="evenodd"/><path d="M4440.5 1285.5C4440.5 1266.17 4456.17 1250.5 4475.5 1250.5 4494.83 1250.5 4510.5 1266.17 4510.5 1285.5 4510.5 1304.83 4494.83 1320.5 4475.5 1320.5 4456.17 1320.5 4440.5 1304.83 4440.5 1285.5Z" stroke="#000000" stroke-width="6.875" stroke-miterlimit="8" fill-rule="evenodd"/><text fill="#FFFFFF" font-family="Yu Gothic,Yu Gothic_MSFontService,sans-serif" font-weight="700" font-size="83" transform="matrix(1 0 0 1 4451.4 1311)">1</text><path d="M4040.5 1280C4040.5 1260.95 4056.17 1245.5 4075.5 1245.5 4094.83 1245.5 4110.5 1260.95 4110.5 1280 4110.5 1299.05 4094.83 1314.5 4075.5 1314.5 4056.17 1314.5 4040.5 1299.05 4040.5 1280Z" stroke="#000000" stroke-width="6.875" stroke-miterlimit="8" fill-rule="evenodd"/><text fill="#FFFFFF" font-family="Yu Gothic,Yu Gothic_MSFontService,sans-serif" font-weight="700" font-size="83" transform="matrix(1 0 0 1 4033.59 1306)">ï¼’</text><path d="M3477.5 1280C3477.5 1260.95 3492.95 1245.5 3512 1245.5 3531.05 1245.5 3546.5 1260.95 3546.5 1280 3546.5 1299.05 3531.05 1314.5 3512 1314.5 3492.95 1314.5 3477.5 1299.05 3477.5 1280Z" stroke="#000000" stroke-width="6.875" stroke-miterlimit="8" fill-rule="evenodd"/><text fill="#FFFFFF" font-family="Yu Gothic,Yu Gothic_MSFontService,sans-serif" font-weight="700" font-size="83" transform="matrix(1 0 0 1 3487.55 1306)">3</text><path d="M120.476 356.684 120.476 295.834 82.439 295.834 82.439 60.8533 120.476 60.8533 120.476 0.00288714 90.0502 0.00288714 90.0502 36.8283 82.4394 36.8283 82.4394 36.8255 30.4258 36.8255 30.4258 0 0.000360892 0 0.000360892 60.8504 36.3545 60.8504 36.3545 295.834 0 295.834 0 356.684 30.4254 356.684 30.4254 319.859 82.439 319.859 82.439 319.859 90.0509 319.859 90.0509 356.684Z" fill="#0B76A0" fill-rule="evenodd" transform="matrix(0.956571 0.2915 0.2915 -0.956571 3352.42 1600.41)"/><text font-family="Segoe UI,Segoe UI_MSFontService,sans-serif" font-weight="400" font-size="110" transform="matrix(1 0 0 1 3532.05 1729)">(4) Grasping bar 3</text><path d="M634.5 821.836C634.5 758.69 685.69 707.5 748.836 707.5L1770.16 707.5C1833.31 707.5 1884.5 758.69 1884.5 821.836L1884.5 1279.16C1884.5 1342.31 1833.31 1393.5 1770.16 1393.5L748.836 1393.5C685.69 1393.5 634.5 1342.31 634.5 1279.16Z" stroke="#042433" stroke-width="6.875" stroke-miterlimit="8" fill="#FFFFFF" fill-rule="evenodd"/><path d="M1745.5 900C1745.5 880.946 1761.17 865.5 1780.5 865.5 1799.83 865.5 1815.5 880.946 1815.5 900 1815.5 919.054 1799.83 934.5 1780.5 934.5 1761.17 934.5 1745.5 919.054 1745.5 900Z" stroke="#000000" stroke-width="6.875" stroke-miterlimit="8" fill-rule="evenodd"/><text fill="#FFFFFF" font-family="Yu Gothic,Yu Gothic_MSFontService,sans-serif" font-weight="700" font-size="83" transform="matrix(1 0 0 1 1756.11 926)">1</text><path d="M1337.5 899C1337.5 879.946 1352.95 864.5 1372 864.5 1391.05 864.5 1406.5 879.946 1406.5 899 1406.5 918.054 1391.05 933.5 1372 933.5 1352.95 933.5 1337.5 918.054 1337.5 899Z" stroke="#000000" stroke-width="6.875" stroke-miterlimit="8" fill-rule="evenodd"/><text fill="#FFFFFF" font-family="Yu Gothic,Yu Gothic_MSFontService,sans-serif" font-weight="700" font-size="83" transform="matrix(1 0 0 1 1330.36 925)">ï¼’</text><path d="M773.5 899C773.5 879.946 789.17 864.5 808.5 864.5 827.83 864.5 843.5 879.946 843.5 899 843.5 918.054 827.83 933.5 808.5 933.5 789.17 933.5 773.5 918.054 773.5 899Z" stroke="#000000" stroke-width="6.875" stroke-miterlimit="8" fill-rule="evenodd"/><text fill="#FFFFFF" font-family="Yu Gothic,Yu Gothic_MSFontService,sans-serif" font-weight="700" font-size="83" transform="matrix(1 0 0 1 784.316 925)">3</text><path d="M121 356.999 121 296.096 82.7976 296.096 82.7976 60.9072 121 60.9072 121 0.0028897 90.4419 0.0028897 90.4419 36.861 82.7979 36.861 82.7979 36.8581 30.5581 36.8581 30.5581 0 0.000362462 0 0.000362462 60.9043 36.5126 60.9043 36.5126 296.096 0 296.096 0 357 30.5577 357 30.5577 320.142 82.7976 320.142 82.7976 320.142 90.4426 320.142 90.4426 356.999Z" fill="#0B76A0" fill-rule="evenodd" transform="matrix(1 -1.22465e-16 -1.22465e-16 -1 1308 1261)"/><path d="M1357 1158 1272.5 1158C1239.64 1158 1213 1131.36 1213 1098.5L1213 1056 1196 1056 1230 1022 1264 1056 1247 1056 1247 1098.5C1247 1112.58 1258.42 1124 1272.5 1124L1357 1124Z" fill="#C00000" fill-rule="evenodd"/><text fill="#C00000" font-family="Yu Gothic,Yu Gothic_MSFontService,sans-serif" font-weight="700" font-size="110" transform="matrix(1 0 0 1 673.638 1165)">Excitation</text><text font-family="Segoe UI,Segoe UI_MSFontService,sans-serif" font-weight="400" font-size="110" transform="matrix(1 0 0 1 806.378 1350)">(2) Swinging phase</text><path d="M-641.5 821.836C-641.5 758.69-590.31 707.5-527.164 707.5L493.164 707.5C556.31 707.5 607.5 758.69 607.5 821.836L607.5 1279.16C607.5 1342.31 556.31 1393.5 493.164 1393.5L-527.164 1393.5C-590.31 1393.5-641.5 1342.31-641.5 1279.16Z" stroke="#042433" stroke-width="6.875" stroke-miterlimit="8" fill="#FFFFFF" fill-rule="evenodd"/><path d="M462.5 889C462.5 869.946 477.946 854.5 497 854.5 516.054 854.5 531.5 869.946 531.5 889 531.5 908.054 516.054 923.5 497 923.5 477.946 923.5 462.5 908.054 462.5 889Z" stroke="#000000" stroke-width="6.875" stroke-miterlimit="8" fill-rule="evenodd"/><text fill="#FFFFFF" font-family="Yu Gothic,Yu Gothic_MSFontService,sans-serif" font-weight="700" font-size="83" transform="matrix(1 0 0 1 472.728 915)">1</text><path d="M54.5002 889C54.5002 869.946 69.9463 854.5 89 854.5 108.054 854.5 123.5 869.946 123.5 889 123.5 908.054 108.054 923.5 89 923.5 69.9463 923.5 54.5002 908.054 54.5002 889Z" stroke="#000000" stroke-width="6.875" stroke-miterlimit="8" fill-rule="evenodd"/><text fill="#FFFFFF" font-family="Yu Gothic,Yu Gothic_MSFontService,sans-serif" font-weight="700" font-size="83" transform="matrix(1 0 0 1 47.2412 915)">ï¼’</text><path d="M-509.5 889C-509.5 869.946-493.83 854.5-474.5 854.5-455.17 854.5-439.5 869.946-439.5 889-439.5 908.054-455.17 923.5-474.5 923.5-493.83 923.5-509.5 908.054-509.5 889Z" stroke="#000000" stroke-width="6.875" stroke-miterlimit="8" fill-rule="evenodd"/><text fill="#FFFFFF" font-family="Yu Gothic,Yu Gothic_MSFontService,sans-serif" font-weight="700" font-size="83" transform="matrix(1 0 0 1 -498.798 915)">3</text><path d="M120 385 120 319.319 82.1133 319.319 82.1133 65.6843 120 65.6843 120 0.00311634 89.6944 0.00311634 89.6944 39.752 82.1136 39.752 82.1136 39.7489 30.3055 39.7489 30.3055 0 0.000359466 0 0.000359466 65.6811 36.2109 65.6811 36.2109 319.319 0 319.319 0 385 30.3052 385 30.3052 345.251 82.1133 345.251 82.1133 345.251 89.6951 345.251 89.6951 385Z" fill="#0B76A0" fill-rule="evenodd" transform="matrix(-6.12323e-17 -1 -1 6.12323e-17 486 946)"/><text font-family="Yu Gothic,Yu Gothic_MSFontService,sans-serif" font-weight="700" font-size="110" transform="matrix(1 0 0 1 -552.514 1030)">Bar</text><text fill="#156082" font-family="Yu Gothic,Yu Gothic_MSFontService,sans-serif" font-weight="700" font-size="110" transform="matrix(1 0 0 1 105.233 815)">Robot</text><text font-family="Segoe UI,Segoe UI_MSFontService,sans-serif" font-weight="400" font-size="110" transform="matrix(1 0 0 1 -472.354 1344)">(1) Releasing bar 1 </text><path d="M1932.5 1203.84C1932.5 1140.69 1983.69 1089.5 2046.84 1089.5L3191.16 1089.5C3254.31 1089.5 3305.5 1140.69 3305.5 1203.84L3305.5 1661.16C3305.5 1724.31 3254.31 1775.5 3191.16 1775.5L2046.84 1775.5C1983.69 1775.5 1932.5 1724.31 1932.5 1661.16Z" stroke="#042433" stroke-width="6.875" stroke-miterlimit="8" fill="#FFFFFF" fill-rule="evenodd"/><path d="M3035.5 1280C3035.5 1260.95 3051.17 1245.5 3070.5 1245.5 3089.83 1245.5 3105.5 1260.95 3105.5 1280 3105.5 1299.05 3089.83 1314.5 3070.5 1314.5 3051.17 1314.5 3035.5 1299.05 3035.5 1280Z" stroke="#000000" stroke-width="6.875" stroke-miterlimit="8" fill-rule="evenodd"/><text fill="#FFFFFF" font-family="Yu Gothic,Yu Gothic_MSFontService,sans-serif" font-weight="700" font-size="83" transform="matrix(1 0 0 1 3046.1 1306)">1</text><path d="M2635.5 1280C2635.5 1260.95 2650.95 1245.5 2670 1245.5 2689.05 1245.5 2704.5 1260.95 2704.5 1280 2704.5 1299.05 2689.05 1314.5 2670 1314.5 2650.95 1314.5 2635.5 1299.05 2635.5 1280Z" stroke="#000000" stroke-width="6.875" stroke-miterlimit="8" fill-rule="evenodd"/><text fill="#FFFFFF" font-family="Yu Gothic,Yu Gothic_MSFontService,sans-serif" font-weight="700" font-size="83" transform="matrix(1 0 0 1 2628.26 1306)">ï¼’</text><path d="M2071.5 1280C2071.5 1260.95 2087.17 1245.5 2106.5 1245.5 2125.83 1245.5 2141.5 1260.95 2141.5 1280 2141.5 1299.05 2125.83 1314.5 2106.5 1314.5 2087.17 1314.5 2071.5 1299.05 2071.5 1280Z" stroke="#000000" stroke-width="6.875" stroke-miterlimit="8" fill-rule="evenodd"/><text fill="#FFFFFF" font-family="Yu Gothic,Yu Gothic_MSFontService,sans-serif" font-weight="700" font-size="83" transform="matrix(1 0 0 1 2082.22 1306)">3</text><path d="M120.476 356.684 120.476 295.834 82.439 295.834 82.439 60.8533 120.476 60.8533 120.476 0.00288714 90.0502 0.00288714 90.0502 36.8283 82.4394 36.8283 82.4394 36.8255 30.4258 36.8255 30.4258 0 0.000360892 0 0.000360892 60.8504 36.3545 60.8504 36.3545 295.834 0 295.834 0 356.684 30.4254 356.684 30.4254 319.859 82.439 319.859 82.439 319.859 90.0509 319.859 90.0509 356.684Z" fill="#A6A6A6" fill-rule="evenodd" transform="matrix(-0.875961 -0.482382 -0.482382 0.875961 2722.72 1317.22)"/><path d="M120.476 356.684 120.476 295.834 82.439 295.834 82.439 60.8533 120.476 60.8533 120.476 0.00288714 90.0502 0.00288714 90.0502 36.8284 82.4394 36.8284 82.4394 36.8255 30.4258 36.8255 30.4258 0 0.000360892 0 0.000360892 60.8504 36.3545 60.8504 36.3545 295.834 0 295.834 0 356.684 30.4254 356.684 30.4254 319.859 82.439 319.859 82.439 319.859 90.051 319.859 90.051 356.684Z" fill="#7F7F7F" fill-rule="evenodd" transform="matrix(-0.346131 -0.938186 -0.938186 0.346131 2638.99 1408.49)"/><text fill="#FF0000" font-family="Yu Gothic,Yu Gothic_MSFontService,sans-serif" font-weight="700" font-size="110" transform="matrix(1 0 0 1 2711.7 1613)">Release</text><path d="M2706.99 1578.26 2591.08 1537 2595.69 1524.05 2711.6 1565.31ZM2592.95 1552.26 2561 1519 2606.78 1513.4Z" fill="#FF0000"/><text font-family="Segoe UI,Segoe UI_MSFontService,sans-serif" font-weight="400" font-size="105" transform="matrix(1 0 0 1 1963.45 1730)">(3</text><text font-family="Segoe UI,Segoe UI_MSFontService,sans-serif" font-weight="400" font-size="105" transform="matrix(1 0 0 1 2052.25 1730)">-</text><text font-family="Segoe UI,Segoe UI_MSFontService,sans-serif" font-weight="400" font-size="105" transform="matrix(1 0 0 1 2094.65 1730)">2) Release &amp; Aerial phase</text><path d="M1921.5 480.836C1921.5 417.69 1972.69 366.5 2035.84 366.5L3191.16 366.5C3254.31 366.5 3305.5 417.69 3305.5 480.836L3305.5 938.164C3305.5 1001.31 3254.31 1052.5 3191.16 1052.5L2035.84 1052.5C1972.69 1052.5 1921.5 1001.31 1921.5 938.164Z" stroke="#042433" stroke-width="6.875" stroke-miterlimit="8" fill="#FFFFFF" fill-rule="evenodd"/><path d="M3037.5 692C3037.5 672.946 3053.17 657.5 3072.5 657.5 3091.83 657.5 3107.5 672.946 3107.5 692 3107.5 711.054 3091.83 726.5 3072.5 726.5 3053.17 726.5 3037.5 711.054 3037.5 692Z" stroke="#000000" stroke-width="6.875" stroke-miterlimit="8" fill-rule="evenodd"/><text fill="#FFFFFF" font-family="Yu Gothic,Yu Gothic_MSFontService,sans-serif" font-weight="700" font-size="83" transform="matrix(1 0 0 1 3048.21 718)">1</text><path d="M2639.5 693C2639.5 673.946 2654.95 658.5 2674 658.5 2693.05 658.5 2708.5 673.946 2708.5 693 2708.5 712.054 2693.05 727.5 2674 727.5 2654.95 727.5 2639.5 712.054 2639.5 693Z" stroke="#000000" stroke-width="6.875" stroke-miterlimit="8" fill-rule="evenodd"/><text fill="#FFFFFF" font-family="Yu Gothic,Yu Gothic_MSFontService,sans-serif" font-weight="700" font-size="83" transform="matrix(1 0 0 1 2632.46 719)">ï¼’</text><path d="M2141.5 692C2141.5 672.946 2157.17 657.5 2176.5 657.5 2195.83 657.5 2211.5 672.946 2211.5 692 2211.5 711.054 2195.83 726.5 2176.5 726.5 2157.17 726.5 2141.5 711.054 2141.5 692Z" stroke="#000000" stroke-width="6.875" stroke-miterlimit="8" fill-rule="evenodd"/><text fill="#FFFFFF" font-family="Yu Gothic,Yu Gothic_MSFontService,sans-serif" font-weight="700" font-size="83" transform="matrix(1 0 0 1 2152.13 718)">3</text><text font-family="Segoe UI,Segoe UI_MSFontService,sans-serif" font-weight="400" font-size="110" transform="matrix(1 0 0 1 1969.66 889)">(3</text><text font-family="Segoe UI,Segoe UI_MSFontService,sans-serif" font-weight="400" font-size="110" transform="matrix(1 0 0 1 2062.47 889)">-</text><text font-family="Segoe UI,Segoe UI_MSFontService,sans-serif" font-weight="400" font-size="110" transform="matrix(1 0 0 1 2106.58 889)">1) Extending </text><text font-family="Segoe UI,Segoe UI_MSFontService,sans-serif" font-weight="400" font-size="110" transform="matrix(1 0 0 1 2299.66 1021)">&amp; Grasping bar 3 </text><path d="M120.476 356.684 120.476 295.834 82.439 295.834 82.439 60.8533 120.476 60.8533 120.476 0.00288714 90.0502 0.00288714 90.0502 36.8283 82.4394 36.8283 82.4394 36.8255 30.4258 36.8255 30.4258 0 0.000360892 0 0.000360892 60.8504 36.3545 60.8504 36.3545 295.834 0 295.834 0 356.684 30.4254 356.684 30.4254 319.859 82.439 319.859 82.439 319.859 90.0509 319.859 90.0509 356.684Z" fill="#A6A6A6" fill-rule="evenodd" transform="matrix(0.794079 -0.607815 -0.607815 -0.794079 2613.8 724.026)"/><path d="M120.476 428.014 120.476 354.995 82.439 354.995 82.439 73.0229 120.476 73.0229 120.476 0.00346452 90.0502 0.00346452 90.0502 44.1934 82.4394 44.1934 82.4394 44.1899 30.4258 44.1899 30.4258 0 0.000360892 0 0.000360892 73.0194 36.3545 73.0194 36.3545 354.995 0 354.995 0 428.014 30.4254 428.014 30.4254 383.825 82.439 383.825 82.439 383.825 90.051 383.825 90.051 428.014Z" fill="#7F7F7F" fill-rule="evenodd" transform="matrix(0.426506 -0.904485 -0.904485 -0.426506 2635.57 747.388)"/><path d="M120 502 120 416.359 82.1133 416.359 82.1133 85.6455 120 85.6455 120 0.00406339 89.6944 0.00406339 89.6944 51.8325 82.1136 51.8325 82.1136 51.8285 30.3055 51.8285 30.3055 0 0.000359466 0 0.000359466 85.6414 36.2109 85.6414 36.2109 416.359 0 416.359 0 502 30.3052 502 30.3052 450.172 82.1133 450.172 82.1133 450.172 89.6951 450.172 89.6951 502Z" fill="#0B76A0" fill-rule="evenodd" transform="matrix(-6.12323e-17 -1 -1 6.12323e-17 2677 747)"/><path d="M527.5 958.5 607.5 958.5 607.5 889.5 687.5 1027.5 607.5 1165.5 607.5 1096.5 527.5 1096.5Z" stroke="#000000" stroke-width="6.875" stroke-miterlimit="8" fill-rule="evenodd"/><path d="M1792.48 766.038 1869.98 744.459 1851.44 677.899 1966 789.44 1925.58 944.138 1907.04 877.579 1829.55 899.158Z" stroke="#000000" stroke-width="6.875" stroke-miterlimit="8" fill-rule="evenodd"/><path d="M3224.5 1365.5 3305 1365.5 3305 1296.5 3385.5 1434.5 3305 1572.5 3305 1503.5 3224.5 1503.5Z" stroke="#000000" stroke-width="6.875" stroke-miterlimit="8" fill-rule="evenodd"/><path d="M1839.22 1157.64 1917.43 1176.43 1933.58 1109.25 1979.51 1262.41 1869.01 1377.97 1885.15 1310.79 1806.93 1292Z" stroke="#000000" stroke-width="6.875" stroke-miterlimit="8" fill-rule="evenodd"/><path d="M120.476 356.684 120.476 295.834 82.439 295.834 82.439 60.8533 120.476 60.8533 120.476 0.00288714 90.0502 0.00288714 90.0502 36.8283 82.4394 36.8283 82.4394 36.8255 30.4258 36.8255 30.4258 0 0.000360892 0 0.000360892 60.8504 36.3545 60.8504 36.3545 295.834 0 295.834 0 356.684 30.4254 356.684 30.4254 319.859 82.439 319.859 82.439 319.859 90.0509 319.859 90.0509 356.684Z" fill="#0B76A0" fill-rule="evenodd" transform="matrix(0.185586 -0.982628 -0.982628 -0.185586 2551.46 1459.46)"/><path d="M87.5002 926.5 87.5005 1239.07" stroke="#000000" stroke-width="6.875" stroke-miterlimit="8" stroke-dasharray="27.5 20.625 6.875 20.625" fill="none" fill-rule="evenodd"/><path d="M260.5 921C260.5 1014.06 187.746 1089.5 98 1089.5 96.1924 1089.5 94.3849 1089.47 92.5783 1089.41" stroke="#000000" stroke-width="6.875" stroke-miterlimit="8" fill="none" fill-rule="evenodd"/><path d="M243.5 935.5 260 914.5 276.5 935.5Z" stroke="#000000" stroke-width="6.875" stroke-miterlimit="8" fill-rule="evenodd"/><path d="M275.616 1046.4C272.716 1046.4 270.236 1048.03 268.177 1051.29 266.118 1054.55 264.301 1059.69 262.725 1066.71L257.247 1091.04C262.331 1090.86 266.718 1089.18 270.406 1086.02 274.094 1082.85 276.941 1078.56 278.946 1073.15 280.951 1067.74 281.954 1062.16 281.954 1056.39 281.954 1053.28 281.408 1050.83 280.316 1049.06 279.223 1047.29 277.657 1046.4 275.616 1046.4ZM250.801 1042 253.594 1045.71C248.331 1049.46 244.141 1053.92 241.026 1059.08 237.911 1064.24 236.353 1069.32 236.353 1074.33 236.353 1078.99 237.392 1082.66 239.468 1085.34 241.545 1088.03 244.678 1089.8 248.868 1090.66L254.346 1066.01C256.173 1057.84 259.064 1051.82 263.021 1047.93 266.977 1044.05 271.444 1042.11 276.422 1042.11 281.327 1042.11 285.015 1043.48 287.486 1046.22 289.957 1048.95 291.192 1053.06 291.192 1058.54 291.192 1065.38 289.769 1071.59 286.922 1077.18 284.075 1082.77 280.02 1087.13 274.757 1090.29 269.493 1093.44 263.37 1095.07 256.387 1095.17L251.339 1117.57 242.906 1117.57 247.955 1095.07C241.295 1094.31 236.165 1092.1 232.567 1088.43 228.968 1084.76 227.169 1079.94 227.169 1073.96 227.169 1062.07 235.046 1051.42 250.801 1042Z" fill-rule="evenodd"/><text fill="#000000" fill-opacity="0" font-family="Arial,Arial_MSFontService,sans-serif" font-size="75.5713" x="227.169" y="1108.12">ğœ‘</text></g></svg>