<?xml version="1.0" encoding="UTF-8" standalone="no"?>
<svg
   width="5128"
   height="925"
   xml:space="preserve"
   overflow="hidden"
   version="1.1"
   id="svg30"
   sodipodi:docname="brachiationFig-3.svg"
   inkscape:version="1.4 (86a8ad7, 2024-10-11)"
   xmlns:inkscape="http://www.inkscape.org/namespaces/inkscape"
   xmlns:sodipodi="http://sodipodi.sourceforge.net/DTD/sodipodi-0.dtd"
   xmlns="http://www.w3.org/2000/svg"
   xmlns:svg="http://www.w3.org/2000/svg"><defs
     id="defs30" /><sodipodi:namedview
     id="namedview30"
     pagecolor="#505050"
     bordercolor="#eeeeee"
     borderopacity="1"
     inkscape:showpageshadow="0"
     inkscape:pageopacity="0"
     inkscape:pagecheckerboard="0"
     inkscape:deskcolor="#505050"
     showgrid="false"
     inkscape:zoom="0.2225039"
     inkscape:cx="2564"
     inkscape:cy="438.19457"
     inkscape:window-width="1920"
     inkscape:window-height="991"
     inkscape:window-x="-9"
     inkscape:window-y="666"
     inkscape:window-maximized="1"
     inkscape:current-layer="svg30" /><g
     transform="matrix(0.99300516,0,0,0.95803685,360.57311,-1459.6513)"
     id="g30"><path
       d="m -332.5,1712 c 0,-63.24 51.265,-114.5 114.503,-114.5 H 801.997 c 63.238,0 114.503,51.26 114.503,114.5 v 458 c 0,63.24 -51.265,114.5 -114.503,114.5 H -217.997 c -63.238,0 -114.503,-51.26 -114.503,-114.5 z"
       stroke="#042433"
       stroke-width="6.875"
       stroke-miterlimit="8"
       fill="#d9d9d9"
       fill-rule="evenodd"
       id="path1" /><path
       d="m 778.5,1789 c 0,-19.05 15.446,-34.5 34.5,-34.5 19.054,0 34.5,15.45 34.5,34.5 0,19.05 -15.446,34.5 -34.5,34.5 -19.054,0 -34.5,-15.45 -34.5,-34.5 z"
       stroke="#000000"
       stroke-width="6.875"
       stroke-miterlimit="8"
       fill-rule="evenodd"
       id="path2" /><text
       fill="#ffffff"
       font-family="'Yu Gothic', 'Yu Gothic_MSFontService', sans-serif"
       font-weight="700"
       font-size="83px"
       transform="translate(788.541,1815)"
       id="text2">1</text><path
       d="m 370.5,1789 c 0,-19.05 15.446,-34.5 34.5,-34.5 19.054,0 34.5,15.45 34.5,34.5 0,19.05 -15.446,34.5 -34.5,34.5 -19.054,0 -34.5,-15.45 -34.5,-34.5 z"
       stroke="#000000"
       stroke-width="6.875"
       stroke-miterlimit="8"
       fill-rule="evenodd"
       id="path3" /><text
       fill="#ffffff"
       font-family="'Yu Gothic', 'Yu Gothic_MSFontService', sans-serif"
       font-weight="700"
       font-size="83px"
       transform="translate(363.054,1815)"
       id="text3">２</text><path
       d="m -193.5,1789 c 0,-19.05 15.67,-34.5 35,-34.5 19.33,0 35,15.45 35,34.5 0,19.05 -15.67,34.5 -35,34.5 -19.33,0 -35,-15.45 -35,-34.5 z"
       stroke="#000000"
       stroke-width="6.875"
       stroke-miterlimit="8"
       fill-rule="evenodd"
       id="path4" /><text
       fill="#ffffff"
       font-family="'Yu Gothic', 'Yu Gothic_MSFontService', sans-serif"
       font-weight="700"
       font-size="83px"
       transform="translate(-182.985,1815)"
       id="text4">3</text><path
       d="m 958.5,1712 c 0,-63.24 51.26,-114.5 114.5,-114.5 h 1020 c 63.24,0 114.5,51.26 114.5,114.5 v 458 c 0,63.24 -51.26,114.5 -114.5,114.5 H 1073 c -63.24,0 -114.5,-51.26 -114.5,-114.5 z"
       stroke="#042433"
       stroke-width="6.875"
       stroke-miterlimit="8"
       fill="#d9d9d9"
       fill-rule="evenodd"
       id="path5" /><path
       d="m 2069.5,1791 c 0,-19.05 15.45,-34.5 34.5,-34.5 19.05,0 34.5,15.45 34.5,34.5 0,19.05 -15.45,34.5 -34.5,34.5 -19.05,0 -34.5,-15.45 -34.5,-34.5 z"
       stroke="#000000"
       stroke-width="6.875"
       stroke-miterlimit="8"
       fill-rule="evenodd"
       id="path6" /><text
       fill="#ffffff"
       font-family="'Yu Gothic', 'Yu Gothic_MSFontService', sans-serif"
       font-weight="700"
       font-size="83px"
       transform="translate(2079.81,1817)"
       id="text6">1</text><path
       d="m 1661.5,1789 c 0,-19.05 15.45,-34.5 34.5,-34.5 19.05,0 34.5,15.45 34.5,34.5 0,19.05 -15.45,34.5 -34.5,34.5 -19.05,0 -34.5,-15.45 -34.5,-34.5 z"
       stroke="#000000"
       stroke-width="6.875"
       stroke-miterlimit="8"
       fill-rule="evenodd"
       id="path7" /><text
       fill="#ffffff"
       font-family="'Yu Gothic', 'Yu Gothic_MSFontService', sans-serif"
       font-weight="700"
       font-size="83px"
       transform="translate(1654.06,1815)"
       id="text7">２</text><path
       d="m 1097.5,1789 c 0,-19.05 15.67,-34.5 35,-34.5 19.33,0 35,15.45 35,34.5 0,19.05 -15.67,34.5 -35,34.5 -19.33,0 -35,-15.45 -35,-34.5 z"
       stroke="#000000"
       stroke-width="6.875"
       stroke-miterlimit="8"
       fill-rule="evenodd"
       id="path8" /><text
       fill="#ffffff"
       font-family="'Yu Gothic', 'Yu Gothic_MSFontService', sans-serif"
       font-weight="700"
       font-size="83px"
       transform="translate(1108.02,1815)"
       id="text8">3</text><path
       d="m 2248.5,1712.84 c 0,-63.15 51.19,-114.34 114.34,-114.34 h 1021.32 c 63.15,0 114.34,51.19 114.34,114.34 v 457.32 c 0,63.15 -51.19,114.34 -114.34,114.34 H 2362.84 c -63.15,0 -114.34,-51.19 -114.34,-114.34 z"
       stroke="#042433"
       stroke-width="6.875"
       stroke-miterlimit="8"
       fill="#d9d9d9"
       fill-rule="evenodd"
       id="path9" /><path
       d="m 3352.5,1789 c 0,-19.05 15.45,-34.5 34.5,-34.5 19.05,0 34.5,15.45 34.5,34.5 0,19.05 -15.45,34.5 -34.5,34.5 -19.05,0 -34.5,-15.45 -34.5,-34.5 z"
       stroke="#000000"
       stroke-width="6.875"
       stroke-miterlimit="8"
       fill-rule="evenodd"
       id="path10" /><text
       fill="#ffffff"
       font-family="'Yu Gothic', 'Yu Gothic_MSFontService', sans-serif"
       font-weight="700"
       font-size="83px"
       transform="translate(3362.51,1815)"
       id="text10">1</text><path
       d="m 2951.5,1789 c 0,-19.05 15.67,-34.5 35,-34.5 19.33,0 35,15.45 35,34.5 0,19.05 -15.67,34.5 -35,34.5 -19.33,0 -35,-15.45 -35,-34.5 z"
       stroke="#000000"
       stroke-width="6.875"
       stroke-miterlimit="8"
       fill-rule="evenodd"
       id="path11" /><text
       fill="#ffffff"
       font-family="'Yu Gothic', 'Yu Gothic_MSFontService', sans-serif"
       font-weight="700"
       font-size="83px"
       transform="translate(2944.67,1815)"
       id="text11">２</text><path
       d="m 2388.5,1789 c 0,-19.05 15.45,-34.5 34.5,-34.5 19.05,0 34.5,15.45 34.5,34.5 0,19.05 -15.45,34.5 -34.5,34.5 -19.05,0 -34.5,-15.45 -34.5,-34.5 z"
       stroke="#000000"
       stroke-width="6.875"
       stroke-miterlimit="8"
       fill-rule="evenodd"
       id="path12" /><text
       fill="#ffffff"
       font-family="'Yu Gothic', 'Yu Gothic_MSFontService', sans-serif"
       font-weight="700"
       font-size="83px"
       transform="translate(2398.63,1815)"
       id="text12">3</text><path
       d="m 3538.5,1712 c 0,-63.24 51.26,-114.5 114.5,-114.5 h 1021 c 63.24,0 114.5,51.26 114.5,114.5 v 458 c 0,63.24 -51.26,114.5 -114.5,114.5 H 3653 c -63.24,0 -114.5,-51.26 -114.5,-114.5 z"
       stroke="#042433"
       stroke-width="6.875"
       stroke-miterlimit="8"
       fill="#d9d9d9"
       fill-rule="evenodd"
       id="path13" /><path
       d="m 4642.5,1794 c 0,-19.05 15.45,-34.5 34.5,-34.5 19.05,0 34.5,15.45 34.5,34.5 0,19.05 -15.45,34.5 -34.5,34.5 -19.05,0 -34.5,-15.45 -34.5,-34.5 z"
       stroke="#000000"
       stroke-width="6.875"
       stroke-miterlimit="8"
       fill-rule="evenodd"
       id="path14" /><text
       fill="#ffffff"
       font-family="'Yu Gothic', 'Yu Gothic_MSFontService', sans-serif"
       font-weight="700"
       font-size="83px"
       transform="translate(4652.75,1820)"
       id="text14">1</text><path
       d="m 4241.5,1789 c 0,-19.05 15.67,-34.5 35,-34.5 19.33,0 35,15.45 35,34.5 0,19.05 -15.67,34.5 -35,34.5 -19.33,0 -35,-15.45 -35,-34.5 z"
       stroke="#000000"
       stroke-width="6.875"
       stroke-miterlimit="8"
       fill-rule="evenodd"
       id="path15" /><text
       fill="#ffffff"
       font-family="'Yu Gothic', 'Yu Gothic_MSFontService', sans-serif"
       font-weight="700"
       font-size="83px"
       transform="translate(4234.93,1815)"
       id="text15">２</text><path
       d="m 3678.5,1789 c 0,-19.05 15.45,-34.5 34.5,-34.5 19.05,0 34.5,15.45 34.5,34.5 0,19.05 -15.45,34.5 -34.5,34.5 -19.05,0 -34.5,-15.45 -34.5,-34.5 z"
       stroke="#000000"
       stroke-width="6.875"
       stroke-miterlimit="8"
       fill-rule="evenodd"
       id="path16" /><text
       fill="#ffffff"
       font-family="'Yu Gothic', 'Yu Gothic_MSFontService', sans-serif"
       font-weight="700"
       font-size="83px"
       transform="translate(3688.89,1815)"
       id="text16">3</text><path
       d="m 120.476,356.684 v -60.85 H 82.439 V 60.8533 h 38.037 V 0.00288714 H 90.0502 V 36.8283 H 82.4394 V 36.8255 H 30.4258 V 0 H 3.60892e-4 V 60.8504 H 36.3545 V 295.834 H 0 v 60.85 H 30.4254 V 319.859 H 82.439 v 0 h 7.6119 v 36.825 z"
       fill="#a6a6a6"
       fill-rule="evenodd"
       transform="matrix(-0.875961,-0.482382,-0.482382,0.875961,3039.14,1826.28)"
       id="path17" /><path
       d="m 120.476,356.684 v -60.85 H 82.439 V 60.8533 h 38.037 V 0.00288714 H 90.0502 V 36.8284 H 82.4394 V 36.8255 H 30.4258 V 0 H 3.60892e-4 V 60.8504 H 36.3545 V 295.834 H 0 v 60.85 H 30.4254 V 319.859 H 82.439 v 0 h 7.612 v 36.825 z"
       fill="#7f7f7f"
       fill-rule="evenodd"
       transform="matrix(-0.346131,-0.938186,-0.938186,0.346131,2955.41,1917.55)"
       id="path18" /><path
       d="m 120.476,356.684 v -60.85 H 82.439 V 60.8533 h 38.037 V 0.00288714 H 90.0502 V 36.8283 H 82.4394 V 36.8255 H 30.4258 V 0 H 3.60892e-4 V 60.8504 H 36.3545 V 295.834 H 0 v 60.85 H 30.4254 V 319.859 H 82.439 v 0 h 7.6119 v 36.825 z"
       fill="#0b76a0"
       fill-rule="evenodd"
       transform="matrix(0.185586,-0.982628,-0.982628,-0.185586,2867.88,1973.24)"
       id="path19" /><text
       fill="#ff0000"
       font-family="'Yu Gothic', 'Yu Gothic_MSFontService', sans-serif"
       font-weight="700"
       font-size="110px"
       transform="translate(3028.12,2122)"
       id="text19">Release</text><path
       d="m 3022.99,2087.26 -115.91,-41.26 4.61,-12.95 115.91,41.26 z m -114.04,-26 -31.95,-33.26 45.78,-5.6 z"
       fill="#ff0000"
       id="path20" /><path
       d="M 120,385 V 319.319 H 82.1133 V 65.6843 H 120 V 0.00311634 H 89.6944 V 39.752 H 82.1136 V 39.7489 H 30.3055 V 0 H 3.59466e-4 V 65.6811 H 36.2109 V 319.319 H 0 V 385 h 30.3052 v -39.749 h 51.8081 v 0 h 7.5818 V 385 Z"
       fill="#0b76a0"
       fill-rule="evenodd"
       transform="matrix(0,-1,-1,0,802,1846)"
       id="path21" /><path
       d="M 121,356.999 V 296.096 H 82.7976 V 60.9072 H 121 V 0.0028897 H 90.4419 V 36.861 h -7.644 V 36.8581 H 30.5581 V 0 H 3.62462e-4 V 60.9043 H 36.5126 V 296.096 H 0 V 357 h 30.5577 v -36.858 h 52.2399 v 0 h 7.645 v 36.857 z"
       fill="#0b76a0"
       fill-rule="evenodd"
       transform="matrix(1,0,0,-1,1632,2152)"
       id="path22" /><path
       d="m 120.476,356.684 v -60.85 H 82.439 V 60.8533 h 38.037 V 0.00288714 H 90.0502 V 36.8283 H 82.4394 V 36.8255 H 30.4258 V 0 H 3.60892e-4 V 60.8504 H 36.3545 V 295.834 H 0 v 60.85 H 30.4254 V 319.859 H 82.439 v 0 h 7.6119 v 36.825 z"
       fill="#0b76a0"
       fill-rule="evenodd"
       transform="matrix(0.956571,0.2915,0.2915,-0.956571,3553.76,2109.36)"
       id="path23" /><path
       d="m 1681,2049 h -84.5 c -32.86,0 -59.5,-26.64 -59.5,-59.5 V 1947 h -17 l 34,-34 34,34 h -17 v 42.5 c 0,14.08 11.42,25.5 25.5,25.5 h 84.5 z"
       fill="#c00000"
       fill-rule="evenodd"
       id="path24" /><text
       fill="#c00000"
       font-family="'Yu Gothic', 'Yu Gothic_MSFontService', sans-serif"
       font-weight="700"
       font-size="110px"
       transform="translate(1026.65,2114)"
       id="text24">Excitation</text><text
       font-family="'Yu Gothic', 'Yu Gothic_MSFontService', sans-serif"
       font-weight="700"
       font-size="110px"
       transform="translate(-236.701,1930)"
       id="text25">Bar</text><text
       fill="#156082"
       font-family="'Yu Gothic', 'Yu Gothic_MSFontService', sans-serif"
       font-weight="700"
       font-size="110px"
       transform="translate(439.021,1982)"
       id="text26">Robot</text><text
       font-family="'Segoe UI', 'Segoe UI_MSFontService', sans-serif"
       font-weight="400"
       font-size="110px"
       transform="translate(1172.45,2417)"
       id="text27">(2) Swinging phase</text><text
       font-family="'Segoe UI', 'Segoe UI_MSFontService', sans-serif"
       font-weight="400"
       font-size="110px"
       transform="translate(-133.806,2427)"
       id="text28">(1) Releasing bar 1 </text><text
       font-family="'Segoe UI', 'Segoe UI_MSFontService', sans-serif"
       font-weight="400"
       font-size="110px"
       transform="translate(3732.67,2417)"
       id="text29">(4) Grasping bar 3</text><text
       font-family="'Segoe UI', 'Segoe UI_MSFontService', sans-serif"
       font-weight="400"
       font-size="110px"
       transform="translate(2238.74,2417)"
       id="text30">(3) Release &amp; Aerial phase</text></g></svg>
