<svg width="5236" height="1458" xmlns="http://www.w3.org/2000/svg" xmlns:xlink="http://www.w3.org/1999/xlink" xml:space="preserve" overflow="hidden"><g transform="translate(585 -377)"><path d="M3397.5 1217.84C3397.5 1154.69 3448.69 1103.5 3511.84 1103.5L4533.16 1103.5C4596.31 1103.5 4647.5 1154.69 4647.5 1217.84L4647.5 1675.16C4647.5 1738.31 4596.31 1789.5 4533.16 1789.5L3511.84 1789.5C3448.69 1789.5 3397.5 1738.31 3397.5 1675.16Z" stroke="#042433" stroke-width="6.875" stroke-miterlimit="8" fill="#FFFFFF" fill-rule="evenodd"/><path d="M4501.5 1300C4501.5 1280.95 4516.95 1265.5 4536 1265.5 4555.05 1265.5 4570.5 1280.95 4570.5 1300 4570.5 1319.05 4555.05 1334.5 4536 1334.5 4516.95 1334.5 4501.5 1319.05 4501.5 1300Z" stroke="#000000" stroke-width="6.875" stroke-miterlimit="8" fill-rule="evenodd"/><text fill="#FFFFFF" font-family="Yu Gothic,Yu Gothic_MSFontService,sans-serif" font-weight="700" font-size="83" transform="matrix(1 0 0 1 4511.72 1326)">1</text><path d="M4100.5 1294C4100.5 1274.95 4116.17 1259.5 4135.5 1259.5 4154.83 1259.5 4170.5 1274.95 4170.5 1294 4170.5 1313.05 4154.83 1328.5 4135.5 1328.5 4116.17 1328.5 4100.5 1313.05 4100.5 1294Z" stroke="#000000" stroke-width="6.875" stroke-miterlimit="8" fill-rule="evenodd"/><text fill="#FFFFFF" font-family="Yu Gothic,Yu Gothic_MSFontService,sans-serif" font-weight="700" font-size="83" transform="matrix(1 0 0 1 4093.91 1320)">２</text><path d="M3537.5 1294C3537.5 1274.95 3552.95 1259.5 3572 1259.5 3591.05 1259.5 3606.5 1274.95 3606.5 1294 3606.5 1313.05 3591.05 1328.5 3572 1328.5 3552.95 1328.5 3537.5 1313.05 3537.5 1294Z" stroke="#000000" stroke-width="6.875" stroke-miterlimit="8" fill-rule="evenodd"/><text fill="#FFFFFF" font-family="Yu Gothic,Yu Gothic_MSFontService,sans-serif" font-weight="700" font-size="83" transform="matrix(1 0 0 1 3547.87 1320)">3</text><path d="M120.476 356.684 120.476 295.834 82.439 295.834 82.439 60.8533 120.476 60.8533 120.476 0.00288714 90.0502 0.00288714 90.0502 36.8283 82.4394 36.8283 82.4394 36.8255 30.4258 36.8255 30.4258 0 0.000360892 0 0.000360892 60.8504 36.3545 60.8504 36.3545 295.834 0 295.834 0 356.684 30.4254 356.684 30.4254 319.859 82.439 319.859 82.439 319.859 90.0509 319.859 90.0509 356.684Z" fill="#0B76A0" fill-rule="evenodd" transform="matrix(0.956571 0.2915 0.2915 -0.956571 3412.74 1614.6)"/><text font-family="Segoe UI,Segoe UI_MSFontService,sans-serif" font-weight="400" font-size="110" transform="matrix(1 0 0 1 3592.37 1743)">(4) Grasping bar 3</text><path d="M694.5 836.003C694.5 772.765 745.764 721.5 809.003 721.5L1830 721.5C1893.24 721.5 1944.5 772.765 1944.5 836.003L1944.5 1294C1944.5 1357.24 1893.24 1408.5 1830 1408.5L809.003 1408.5C745.764 1408.5 694.5 1357.24 694.5 1294Z" stroke="#042433" stroke-width="6.875" stroke-miterlimit="8" fill="#FFFFFF" fill-rule="evenodd"/><path d="M1805.5 915C1805.5 895.946 1821.17 880.5 1840.5 880.5 1859.83 880.5 1875.5 895.946 1875.5 915 1875.5 934.054 1859.83 949.5 1840.5 949.5 1821.17 949.5 1805.5 934.054 1805.5 915Z" stroke="#000000" stroke-width="6.875" stroke-miterlimit="8" fill-rule="evenodd"/><text fill="#FFFFFF" font-family="Yu Gothic,Yu Gothic_MSFontService,sans-serif" font-weight="700" font-size="83" transform="matrix(1 0 0 1 1816.43 941)">1</text><path d="M1397.5 913C1397.5 893.946 1413.17 878.5 1432.5 878.5 1451.83 878.5 1467.5 893.946 1467.5 913 1467.5 932.054 1451.83 947.5 1432.5 947.5 1413.17 947.5 1397.5 932.054 1397.5 913Z" stroke="#000000" stroke-width="6.875" stroke-miterlimit="8" fill-rule="evenodd"/><text fill="#FFFFFF" font-family="Yu Gothic,Yu Gothic_MSFontService,sans-serif" font-weight="700" font-size="83" transform="matrix(1 0 0 1 1390.68 939)">２</text><path d="M834.5 913C834.5 893.946 849.946 878.5 869 878.5 888.054 878.5 903.5 893.946 903.5 913 903.5 932.054 888.054 947.5 869 947.5 849.946 947.5 834.5 932.054 834.5 913Z" stroke="#000000" stroke-width="6.875" stroke-miterlimit="8" fill-rule="evenodd"/><text fill="#FFFFFF" font-family="Yu Gothic,Yu Gothic_MSFontService,sans-serif" font-weight="700" font-size="83" transform="matrix(1 0 0 1 844.639 939)">3</text><path d="M120 356 120 295.266 82.1133 295.266 82.1133 60.7366 120 60.7366 120 0.0028816 89.6944 0.0028816 89.6944 36.7577 82.1136 36.7577 82.1136 36.7549 30.3055 36.7549 30.3055 0 0.000359466 0 0.000359466 60.7338 36.2109 60.7338 36.2109 295.266 0 295.266 0 356 30.3052 356 30.3052 319.245 82.1133 319.245 82.1133 319.245 89.6951 319.245 89.6951 356Z" fill="#0B76A0" fill-rule="evenodd" transform="matrix(1 -1.22465e-16 -1.22465e-16 -1 1369 1275)"/><path d="M1417 1172 1332.5 1172C1299.64 1172 1273 1145.36 1273 1112.5L1273 1070 1256 1070 1290 1036 1324 1070 1307 1070 1307 1112.5C1307 1126.58 1318.42 1138 1332.5 1138L1417 1138Z" fill="#C00000" fill-rule="evenodd"/><text fill="#C00000" font-family="Yu Gothic,Yu Gothic_MSFontService,sans-serif" font-weight="700" font-size="110" transform="matrix(1 0 0 1 733.961 1179)">Excitation</text><text font-family="Segoe UI,Segoe UI_MSFontService,sans-serif" font-weight="400" font-size="110" transform="matrix(1 0 0 1 866.701 1365)">(2) Swinging phase</text><path d="M-581.5 836.003C-581.5 772.765-530.236 721.5-466.997 721.5L553.997 721.5C617.235 721.5 668.5 772.765 668.5 836.003L668.5 1294C668.5 1357.24 617.235 1408.5 553.997 1408.5L-466.997 1408.5C-530.236 1408.5-581.5 1357.24-581.5 1294Z" stroke="#042433" stroke-width="6.875" stroke-miterlimit="8" fill="#FFFFFF" fill-rule="evenodd"/><path d="M522.5 903C522.5 883.946 538.17 868.5 557.5 868.5 576.83 868.5 592.5 883.946 592.5 903 592.5 922.054 576.83 937.5 557.5 937.5 538.17 937.5 522.5 922.054 522.5 903Z" stroke="#000000" stroke-width="6.875" stroke-miterlimit="8" fill-rule="evenodd"/><text fill="#FFFFFF" font-family="Yu Gothic,Yu Gothic_MSFontService,sans-serif" font-weight="700" font-size="83" transform="matrix(1 0 0 1 533.05 929)">1</text><path d="M114.5 903C114.5 883.946 130.17 868.5 149.5 868.5 168.83 868.5 184.5 883.946 184.5 903 184.5 922.054 168.83 937.5 149.5 937.5 130.17 937.5 114.5 922.054 114.5 903Z" stroke="#000000" stroke-width="6.875" stroke-miterlimit="8" fill-rule="evenodd"/><text fill="#FFFFFF" font-family="Yu Gothic,Yu Gothic_MSFontService,sans-serif" font-weight="700" font-size="83" transform="matrix(1 0 0 1 107.564 929)">２</text><path d="M-448.5 903C-448.5 883.946-433.054 868.5-414 868.5-394.946 868.5-379.5 883.946-379.5 903-379.5 922.054-394.946 937.5-414 937.5-433.054 937.5-448.5 922.054-448.5 903Z" stroke="#000000" stroke-width="6.875" stroke-miterlimit="8" fill-rule="evenodd"/><text fill="#FFFFFF" font-family="Yu Gothic,Yu Gothic_MSFontService,sans-serif" font-weight="700" font-size="83" transform="matrix(1 0 0 1 -438.476 929)">3</text><path d="M121 384 121 318.489 82.7976 318.489 82.7976 65.5136 121 65.5136 121 0.00310824 90.4419 0.00310824 90.4419 39.6488 82.7979 39.6488 82.7979 39.6457 30.5581 39.6457 30.5581 0 0.000362462 0 0.000362462 65.5105 36.5126 65.5105 36.5126 318.489 0 318.489 0 384 30.5577 384 30.5577 344.354 82.7976 344.354 82.7976 344.354 90.4426 344.354 90.4426 384Z" fill="#0B76A0" fill-rule="evenodd" transform="matrix(-6.12323e-17 -1 -1 6.12323e-17 546 961)"/><text font-family="Yu Gothic,Yu Gothic_MSFontService,sans-serif" font-weight="700" font-size="110" transform="matrix(1 0 0 1 -492.192 1044)">Bar</text><text fill="#156082" font-family="Yu Gothic,Yu Gothic_MSFontService,sans-serif" font-weight="700" font-size="110" transform="matrix(1 0 0 1 183.531 1096)">Robot</text><text font-family="Segoe UI,Segoe UI_MSFontService,sans-serif" font-weight="400" font-size="110" transform="matrix(1 0 0 1 -412.032 1358)">(1) Releasing bar 1 </text><path d="M1992.5 1217.84C1992.5 1154.69 2043.69 1103.5 2106.84 1103.5L3251.16 1103.5C3314.31 1103.5 3365.5 1154.69 3365.5 1217.84L3365.5 1675.16C3365.5 1738.31 3314.31 1789.5 3251.16 1789.5L2106.84 1789.5C2043.69 1789.5 1992.5 1738.31 1992.5 1675.16Z" stroke="#042433" stroke-width="6.875" stroke-miterlimit="8" fill="#FFFFFF" fill-rule="evenodd"/><path d="M3095.5 1294C3095.5 1274.95 3111.17 1259.5 3130.5 1259.5 3149.83 1259.5 3165.5 1274.95 3165.5 1294 3165.5 1313.05 3149.83 1328.5 3130.5 1328.5 3111.17 1328.5 3095.5 1313.05 3095.5 1294Z" stroke="#000000" stroke-width="6.875" stroke-miterlimit="8" fill-rule="evenodd"/><text fill="#FFFFFF" font-family="Yu Gothic,Yu Gothic_MSFontService,sans-serif" font-weight="700" font-size="83" transform="matrix(1 0 0 1 3106.42 1320)">1</text><path d="M2695.5 1294C2695.5 1274.95 2711.17 1259.5 2730.5 1259.5 2749.83 1259.5 2765.5 1274.95 2765.5 1294 2765.5 1313.05 2749.83 1328.5 2730.5 1328.5 2711.17 1328.5 2695.5 1313.05 2695.5 1294Z" stroke="#000000" stroke-width="6.875" stroke-miterlimit="8" fill-rule="evenodd"/><text fill="#FFFFFF" font-family="Yu Gothic,Yu Gothic_MSFontService,sans-serif" font-weight="700" font-size="83" transform="matrix(1 0 0 1 2688.58 1320)">２</text><path d="M2132.5 1294C2132.5 1274.95 2147.95 1259.5 2167 1259.5 2186.05 1259.5 2201.5 1274.95 2201.5 1294 2201.5 1313.05 2186.05 1328.5 2167 1328.5 2147.95 1328.5 2132.5 1313.05 2132.5 1294Z" stroke="#000000" stroke-width="6.875" stroke-miterlimit="8" fill-rule="evenodd"/><text fill="#FFFFFF" font-family="Yu Gothic,Yu Gothic_MSFontService,sans-serif" font-weight="700" font-size="83" transform="matrix(1 0 0 1 2142.54 1320)">3</text><path d="M120.476 356.684 120.476 295.834 82.439 295.834 82.439 60.8533 120.476 60.8533 120.476 0.00288714 90.0502 0.00288714 90.0502 36.8283 82.4394 36.8283 82.4394 36.8255 30.4258 36.8255 30.4258 0 0.000360892 0 0.000360892 60.8504 36.3545 60.8504 36.3545 295.834 0 295.834 0 356.684 30.4254 356.684 30.4254 319.859 82.439 319.859 82.439 319.859 90.0509 319.859 90.0509 356.684Z" fill="#A6A6A6" fill-rule="evenodd" transform="matrix(-0.875961 -0.482382 -0.482382 0.875961 2783.04 1331.41)"/><path d="M120.476 356.684 120.476 295.834 82.439 295.834 82.439 60.8533 120.476 60.8533 120.476 0.00288714 90.0502 0.00288714 90.0502 36.8284 82.4394 36.8284 82.4394 36.8255 30.4258 36.8255 30.4258 0 0.000360892 0 0.000360892 60.8504 36.3545 60.8504 36.3545 295.834 0 295.834 0 356.684 30.4254 356.684 30.4254 319.859 82.439 319.859 82.439 319.859 90.051 319.859 90.051 356.684Z" fill="#7F7F7F" fill-rule="evenodd" transform="matrix(-0.346131 -0.938186 -0.938186 0.346131 2699.32 1422.68)"/><text fill="#FF0000" font-family="Yu Gothic,Yu Gothic_MSFontService,sans-serif" font-weight="700" font-size="110" transform="matrix(1 0 0 1 2772.02 1627)">Release</text><path d="M2766.99 1592.26 2651.08 1551 2655.69 1538.05 2771.6 1579.31ZM2652.95 1566.26 2621 1533 2666.78 1527.4Z" fill="#FF0000"/><text font-family="Segoe UI,Segoe UI_MSFontService,sans-serif" font-weight="400" font-size="105" transform="matrix(1 0 0 1 2023.77 1744)">(3</text><text font-family="Segoe UI,Segoe UI_MSFontService,sans-serif" font-weight="400" font-size="105" transform="matrix(1 0 0 1 2112.57 1744)">-</text><text font-family="Segoe UI,Segoe UI_MSFontService,sans-serif" font-weight="400" font-size="105" transform="matrix(1 0 0 1 2154.97 1744)">2) Release &amp; Aerial phase</text><path d="M1982.5 494.837C1982.5 431.69 2033.69 380.5 2096.84 380.5L3251.16 380.5C3314.31 380.5 3365.5 431.69 3365.5 494.837L3365.5 952.167C3365.5 1015.31 3314.31 1066.5 3251.16 1066.5L2096.84 1066.5C2033.69 1066.5 1982.5 1015.31 1982.5 952.167Z" stroke="#042433" stroke-width="6.875" stroke-miterlimit="8" fill="#FFFFFF" fill-rule="evenodd"/><path d="M3098.5 706C3098.5 686.946 3113.95 671.5 3133 671.5 3152.05 671.5 3167.5 686.946 3167.5 706 3167.5 725.054 3152.05 740.5 3133 740.5 3113.95 740.5 3098.5 725.054 3098.5 706Z" stroke="#000000" stroke-width="6.875" stroke-miterlimit="8" fill-rule="evenodd"/><text fill="#FFFFFF" font-family="Yu Gothic,Yu Gothic_MSFontService,sans-serif" font-weight="700" font-size="83" transform="matrix(1 0 0 1 3108.54 732)">1</text><path d="M2699.5 707C2699.5 687.946 2715.17 672.5 2734.5 672.5 2753.83 672.5 2769.5 687.946 2769.5 707 2769.5 726.054 2753.83 741.5 2734.5 741.5 2715.17 741.5 2699.5 726.054 2699.5 707Z" stroke="#000000" stroke-width="6.875" stroke-miterlimit="8" fill-rule="evenodd"/><text fill="#FFFFFF" font-family="Yu Gothic,Yu Gothic_MSFontService,sans-serif" font-weight="700" font-size="83" transform="matrix(1 0 0 1 2692.78 733)">２</text><path d="M2202.5 706C2202.5 686.946 2217.95 671.5 2237 671.5 2256.05 671.5 2271.5 686.946 2271.5 706 2271.5 725.054 2256.05 740.5 2237 740.5 2217.95 740.5 2202.5 725.054 2202.5 706Z" stroke="#000000" stroke-width="6.875" stroke-miterlimit="8" fill-rule="evenodd"/><text fill="#FFFFFF" font-family="Yu Gothic,Yu Gothic_MSFontService,sans-serif" font-weight="700" font-size="83" transform="matrix(1 0 0 1 2212.46 732)">3</text><text font-family="Segoe UI,Segoe UI_MSFontService,sans-serif" font-weight="400" font-size="110" transform="matrix(1 0 0 1 2029.98 903)">(3</text><text font-family="Segoe UI,Segoe UI_MSFontService,sans-serif" font-weight="400" font-size="110" transform="matrix(1 0 0 1 2122.79 903)">-</text><text font-family="Segoe UI,Segoe UI_MSFontService,sans-serif" font-weight="400" font-size="110" transform="matrix(1 0 0 1 2166.91 903)">1) Extending </text><text font-family="Segoe UI,Segoe UI_MSFontService,sans-serif" font-weight="400" font-size="110" transform="matrix(1 0 0 1 2359.98 1035)">&amp; Grasping bar 3 </text><path d="M120.476 356.684 120.476 295.834 82.439 295.834 82.439 60.8533 120.476 60.8533 120.476 0.00288714 90.0502 0.00288714 90.0502 36.8283 82.4394 36.8283 82.4394 36.8255 30.4258 36.8255 30.4258 0 0.000360892 0 0.000360892 60.8504 36.3545 60.8504 36.3545 295.834 0 295.834 0 356.684 30.4254 356.684 30.4254 319.859 82.439 319.859 82.439 319.859 90.0509 319.859 90.0509 356.684Z" fill="#A6A6A6" fill-rule="evenodd" transform="matrix(0.794079 -0.607815 -0.607815 -0.794079 2674.12 738.22)"/><path d="M120.476 428.014 120.476 354.995 82.439 354.995 82.439 73.0229 120.476 73.0229 120.476 0.00346452 90.0502 0.00346452 90.0502 44.1934 82.4394 44.1934 82.4394 44.1899 30.4258 44.1899 30.4258 0 0.000360892 0 0.000360892 73.0194 36.3545 73.0194 36.3545 354.995 0 354.995 0 428.014 30.4254 428.014 30.4254 383.825 82.439 383.825 82.439 383.825 90.051 383.825 90.051 428.014Z" fill="#7F7F7F" fill-rule="evenodd" transform="matrix(0.426506 -0.904485 -0.904485 -0.426506 2695.89 761.582)"/><path d="M121 501.999 121 416.359 82.7976 416.359 82.7976 85.6454 121 85.6454 121 0.00406338 90.4419 0.00406338 90.4419 51.8325 82.7979 51.8325 82.7979 51.8284 30.5581 51.8284 30.5581 0 0.000362462 0 0.000362462 85.6414 36.5126 85.6414 36.5126 416.359 0 416.359 0 502 30.5577 502 30.5577 450.171 82.7976 450.171 82.7976 450.171 90.4426 450.171 90.4426 501.999Z" fill="#0B76A0" fill-rule="evenodd" transform="matrix(-6.12323e-17 -1 -1 6.12323e-17 2737 762)"/><path d="M587.5 972.5 668 972.5 668 903.5 748.5 1041.5 668 1179.5 668 1110.5 587.5 1110.5Z" stroke="#000000" stroke-width="6.875" stroke-miterlimit="8" fill-rule="evenodd"/><path d="M1852.8 780.232 1930.3 758.653 1911.76 692.093 2026.33 803.633 1985.9 958.332 1967.37 891.772 1889.87 913.351Z" stroke="#000000" stroke-width="6.875" stroke-miterlimit="8" fill-rule="evenodd"/><path d="M3285.5 1379.5 3365.5 1379.5 3365.5 1310.5 3445.5 1448.5 3365.5 1586.5 3365.5 1517.5 3285.5 1517.5Z" stroke="#000000" stroke-width="6.875" stroke-miterlimit="8" fill-rule="evenodd"/><path d="M1899.54 1171.83 1977.76 1190.62 1993.9 1123.45 2039.83 1276.6 1929.33 1392.16 1945.47 1324.98 1867.25 1306.19Z" stroke="#000000" stroke-width="6.875" stroke-miterlimit="8" fill-rule="evenodd"/><path d="M120.476 356.684 120.476 295.834 82.439 295.834 82.439 60.8533 120.476 60.8533 120.476 0.00288714 90.0502 0.00288714 90.0502 36.8283 82.4394 36.8283 82.4394 36.8255 30.4258 36.8255 30.4258 0 0.000360892 0 0.000360892 60.8504 36.3545 60.8504 36.3545 295.834 0 295.834 0 356.684 30.4254 356.684 30.4254 319.859 82.439 319.859 82.439 319.859 90.0509 319.859 90.0509 356.684Z" fill="#0B76A0" fill-rule="evenodd" transform="matrix(0.185586 -0.982628 -0.982628 -0.185586 2611.78 1473.65)"/></g></svg>