<svg width="1447" height="1674" xmlns="http://www.w3.org/2000/svg" xmlns:xlink="http://www.w3.org/1999/xlink" xml:space="preserve" overflow="hidden"><defs><clipPath id="clip0"><rect x="1422" y="400" width="1447" height="1674"/></clipPath></defs><g clip-path="url(#clip0)" transform="translate(-1422 -400)"><path d="M1623.5 690C1623.5 647.198 1659.54 612.5 1704 612.5 1748.46 612.5 1784.5 647.198 1784.5 690 1784.5 732.802 1748.46 767.5 1704 767.5 1659.54 767.5 1623.5 732.802 1623.5 690Z" stroke="#000000" stroke-width="6.875" stroke-miterlimit="8" fill="none" fill-rule="evenodd"/><path d="M1808 633.607C1840.56 694.755 1819.87 769.485 1761.78 800.519 1703.69 831.554 1630.21 807.142 1597.65 745.994 1597.6 745.899 1597.54 745.804 1597.49 745.71" stroke="#000000" stroke-width="10.3125" stroke-miterlimit="8" fill="none" fill-rule="evenodd"/><g><path d="M2042.7 1160.19C2082.57 1160.19 2114.9 1192.51 2114.9 1232.39L2042.7 1232.39Z" stroke="#000000" stroke-width="6.875" stroke-linejoin="round" stroke-miterlimit="10" fill="#FFFFFF" fill-rule="evenodd"/></g><g><path d="M2114.9 1232.39C2114.9 1272.26 2082.57 1304.58 2042.7 1304.58L2042.7 1232.39Z" stroke="#000000" stroke-width="6.875" stroke-linejoin="round" stroke-miterlimit="10" fill-rule="evenodd"/></g><g><path d="M2042.7 1304.58C2002.83 1304.58 1970.5 1272.26 1970.5 1232.39L2042.7 1232.39Z" stroke="#000000" stroke-width="6.875" stroke-linejoin="round" stroke-miterlimit="10" fill="#FFFFFF" fill-rule="evenodd"/></g><g><path d="M1970.5 1232.39C1970.5 1192.51 2002.83 1160.19 2042.7 1160.19L2042.7 1232.39Z" stroke="#000000" stroke-width="6.875" stroke-linejoin="round" stroke-miterlimit="10" fill-rule="evenodd"/></g><path d="M0 0 0.887795 1302.7" stroke="#000000" stroke-width="6.875" stroke-miterlimit="8" stroke-dasharray="27.5 20.625 6.875 20.625" fill="none" fill-rule="evenodd" transform="matrix(-1 0 0 1 1704.39 767.5)"/><path d="M1771 800 2341.23 1703.06" stroke="#000000" stroke-width="10.3125" stroke-miterlimit="8" fill="none" fill-rule="evenodd"/><path d="M2307.77 1872.67C2271.35 1813.73 2287.2 1737.83 2343.18 1703.13 2399.16 1668.43 2474.06 1688.08 2510.48 1747.01 2510.53 1747.1 2510.59 1747.2 2510.65 1747.29" stroke="#000000" stroke-width="10.3125" stroke-miterlimit="8" fill="none" fill-rule="evenodd"/><path d="M0 0 340.332 215.232" stroke="#000000" stroke-width="6.875" stroke-miterlimit="8" fill="none" fill-rule="evenodd" transform="matrix(1 0 0 -1 1825.5 624.732)"/><path d="M2139.81 445.886 2824.16 1506.15 2818.39 1509.88 2134.04 449.614ZM2127.86 459.062 2124.5 428.5 2150.97 444.149ZM2830.34 1496.71 2833.7 1527.27 2807.24 1511.62Z"/><path d="M2557.98 843.977 2562.73 843.977 2542.91 933.164C2541.73 938.481 2541.14 942.456 2541.14 945.087 2541.14 947.236 2541.49 948.794 2542.18 949.76 2542.88 950.727 2543.98 951.211 2545.49 951.211 2547.1 951.211 2548.82 950.553 2550.64 949.237 2552.47 947.921 2555.05 945.41 2558.38 941.704L2562.97 946.215C2557.76 951.694 2553.5 955.44 2550.2 957.454 2546.9 959.469 2543.2 960.476 2539.12 960.476 2535.63 960.476 2532.84 959.2 2530.74 956.649 2528.65 954.097 2527.6 950.835 2527.6 946.86 2527.6 943.261 2528.35 938.051 2529.86 931.23L2544.28 866.696C2544.92 863.85 2545.38 861.58 2545.65 859.888 2545.92 858.197 2546.05 856.626 2546.05 855.175 2546.05 853.564 2545.76 852.342 2545.17 851.51 2544.57 850.677 2543.73 850.073 2542.63 849.697 2541.53 849.321 2539.55 849.052 2536.71 848.891L2537.67 844.702Z" fill-rule="evenodd"/><text fill="#000000" fill-opacity="0" font-family="Arial,Arial_MSFontService,sans-serif" font-size="116.499" x="2527.6" y="945.913">𝑙</text><path d="M0 0 231.437 143.488" stroke="#000000" stroke-width="6.875" stroke-miterlimit="8" fill="none" fill-rule="evenodd" transform="matrix(1 0 0 -1 2110.5 1179.99)"/><path d="M0 0 340.332 215.232" stroke="#000000" stroke-width="6.875" stroke-miterlimit="8" fill="none" fill-rule="evenodd" transform="matrix(1 0 0 -1 2524.5 1722.73)"/><path d="M1906.79 599.913 2222.45 1090.57 2216.67 1094.29 1901.01 603.633ZM1894.82 613.067 1891.5 582.5 1917.94 598.188ZM2228.64 1081.14 2231.96 1111.71 2205.51 1096.02Z"/><path d="M2093.22 714.493 2097.97 714.493 2078.15 803.68C2076.97 808.998 2076.38 812.972 2076.38 815.604 2076.38 817.752 2076.73 819.31 2077.43 820.277 2078.12 821.244 2079.22 821.727 2080.73 821.727 2082.34 821.727 2084.06 821.069 2085.88 819.753 2087.71 818.437 2090.29 815.926 2093.62 812.22L2098.21 816.732C2093 822.21 2088.74 825.957 2085.44 827.971 2082.14 829.985 2078.45 830.992 2074.36 830.992 2070.87 830.992 2068.08 829.717 2065.98 827.165 2063.89 824.614 2062.84 821.351 2062.84 817.376 2062.84 813.778 2063.59 808.568 2065.1 801.747L2079.52 737.213C2080.16 734.366 2080.62 732.097 2080.89 730.405 2081.16 728.713 2081.29 727.142 2081.29 725.692 2081.29 724.081 2081 722.859 2080.41 722.026 2079.82 721.194 2078.97 720.589 2077.87 720.213 2076.77 719.837 2074.79 719.569 2071.95 719.408L2072.91 715.218Z" fill-rule="evenodd"/><text fill="#000000" fill-opacity="0" font-family="Arial,Arial_MSFontService,sans-serif" font-size="116.499" x="2062.84" y="816.43">𝑙</text><path d="M2172.43 714.413 2184.92 714.413 2126.75 864.347 2114.1 864.347Z" fill-rule="evenodd"/><text fill="#000000" fill-opacity="0" font-family="Arial,Arial_MSFontService,sans-serif" font-size="149.934" x="2114.1" y="845.605">/</text><path d="M2236.22 718.441C2246.21 718.441 2253.75 720.63 2258.85 725.007 2263.96 729.385 2266.51 735.736 2266.51 744.061 2266.51 746.908 2266.23 749.526 2265.66 751.916 2265.1 754.306 2264.21 756.67 2263 759.006 2261.79 761.343 2260.17 763.854 2258.13 766.539 2256.09 769.225 2253.83 771.95 2251.36 774.717 2248.89 777.483 2244.62 782.088 2238.55 788.534 2228.35 799.33 2220.85 808.756 2216.07 816.812L2246.45 816.812C2249.08 816.812 2251.2 816.651 2252.81 816.329 2254.42 816.007 2255.71 815.47 2256.68 814.718 2257.65 813.966 2258.41 812.986 2258.98 811.777 2259.54 810.569 2260.25 808.702 2261.11 806.178L2267.96 806.178 2266.59 829.703 2200.28 829.703 2200.28 825.836C2202.59 820.196 2205.71 814.422 2209.63 808.514 2213.55 802.606 2219.11 795.65 2226.31 787.647 2232.54 780.772 2237.02 775.562 2239.76 772.018 2242.77 768.15 2245.01 764.807 2246.49 761.987 2247.96 759.167 2249.03 756.509 2249.67 754.011 2250.31 751.513 2250.64 749.002 2250.64 746.478 2250.64 742.45 2249.99 738.891 2248.7 735.803 2247.41 732.715 2245.44 730.284 2242.78 728.512 2240.12 726.739 2236.78 725.853 2232.75 725.853 2222.71 725.853 2215.94 731.439 2212.45 742.611L2202.7 742.611 2202.7 727.142C2209.2 724.081 2215.28 721.865 2220.95 720.495 2226.61 719.126 2231.7 718.441 2236.22 718.441Z" fill-rule="evenodd"/><text fill="#000000" fill-opacity="0" font-family="Arial,Arial_MSFontService,sans-serif" font-size="111.262" x="2200.28" y="815.795">2</text><path d="M1961.53 1567.57C1957.18 1567.57 1953.46 1570.01 1950.37 1574.9 1947.28 1579.79 1944.56 1587.49 1942.2 1598.02L1933.98 1634.52C1941.6 1634.25 1948.18 1631.74 1953.72 1626.99 1959.25 1622.23 1963.52 1615.8 1966.53 1607.69 1969.53 1599.58 1971.04 1591.2 1971.04 1582.55 1971.04 1577.88 1970.22 1574.21 1968.58 1571.56 1966.94 1568.9 1964.59 1567.57 1961.53 1567.57ZM1924.31 1560.96 1928.5 1566.52C1920.6 1572.16 1914.32 1578.85 1909.65 1586.58 1904.97 1594.32 1902.64 1601.94 1902.64 1609.46 1902.64 1616.44 1904.2 1621.95 1907.31 1625.98 1910.43 1630.01 1915.13 1632.67 1921.41 1633.95L1929.63 1596.97C1932.37 1584.73 1936.7 1575.69 1942.64 1569.86 1948.57 1564.04 1955.27 1561.12 1962.74 1561.12 1970.1 1561.12 1975.63 1563.18 1979.34 1567.29 1983.04 1571.39 1984.9 1577.56 1984.9 1585.78 1984.9 1596.03 1982.76 1605.35 1978.49 1613.73 1974.22 1622.11 1968.14 1628.66 1960.24 1633.39 1952.35 1638.12 1943.16 1640.56 1932.69 1640.72L1925.12 1674.32 1912.47 1674.32 1920.04 1640.56C1910.05 1639.43 1902.36 1636.12 1896.96 1630.61 1891.56 1625.11 1888.86 1617.87 1888.86 1608.9 1888.86 1591.07 1900.68 1575.09 1924.31 1560.96Z" fill-rule="evenodd"/><text fill="#000000" fill-opacity="0" font-family="Arial,Arial_MSFontService,sans-serif" font-size="113.357" x="1888.86" y="1660.15">𝜑</text><path d="M2180.66 1242.49C2184.04 1242.49 2186.71 1243.6 2188.67 1245.83 2190.63 1248.06 2191.61 1250.98 2191.61 1254.58 2191.61 1257.53 2190.99 1260.67 2189.76 1264L2190.73 1264.32C2195.67 1256.97 2200.58 1251.5 2205.47 1247.93 2210.36 1244.36 2215.3 1242.57 2220.29 1242.57 2225.45 1242.57 2229.37 1244.03 2232.06 1246.96 2234.74 1249.89 2236.09 1254.12 2236.09 1259.65L2236.09 1260.78C2236.09 1261.16 2236.06 1261.56 2236 1261.99 2240.62 1255.43 2245.23 1250.56 2249.82 1247.36 2254.41 1244.17 2259.18 1242.57 2264.12 1242.57 2269.06 1242.57 2272.88 1243.99 2275.56 1246.84 2278.25 1249.69 2279.59 1253.69 2279.59 1258.85 2279.59 1262.23 2278.81 1267.04 2277.25 1273.27L2272.02 1294.38C2270.57 1300.23 2269.84 1304.37 2269.84 1306.78 2269.84 1308.93 2270.19 1310.49 2270.89 1311.46 2271.59 1312.42 2272.69 1312.91 2274.19 1312.91 2275.8 1312.91 2277.52 1312.25 2279.35 1310.93 2281.18 1309.62 2283.75 1307.1 2287.08 1303.4L2291.68 1307.91C2287.06 1312.8 2283.03 1316.4 2279.59 1318.71 2276.15 1321.02 2272.23 1322.17 2267.83 1322.17 2264.34 1322.17 2261.54 1320.92 2259.45 1318.42 2257.35 1315.93 2256.31 1312.74 2256.31 1308.88 2256.31 1305.39 2257.19 1300.26 2258.97 1293.49L2262.51 1279.55C2263.8 1274.5 2264.65 1270.77 2265.05 1268.35 2265.45 1265.94 2265.65 1263.97 2265.65 1262.47 2265.65 1258.76 2265.04 1256.09 2263.8 1254.45 2262.56 1252.82 2260.55 1252 2257.76 1252 2255.5 1252 2253.08 1252.84 2250.51 1254.54 2247.93 1256.23 2245.22 1258.86 2242.37 1262.43 2239.52 1266 2237.2 1269.52 2235.4 1272.98 2233.6 1276.45 2232.16 1280.68 2231.09 1285.67L2223.76 1320.88 2209.82 1320.88 2219.09 1279.95C2220.21 1274.96 2220.98 1271.27 2221.38 1268.88 2221.78 1266.49 2221.99 1264.43 2221.99 1262.71 2221.99 1258.85 2221.3 1256.09 2219.93 1254.45 2218.56 1252.82 2216.43 1252 2213.53 1252 2211.49 1252 2209.16 1252.84 2206.56 1254.54 2203.95 1256.23 2201.17 1258.94 2198.22 1262.67 2195.26 1266.41 2192.96 1269.99 2191.29 1273.43 2189.63 1276.87 2188.23 1281.05 2187.1 1286L2179.45 1320.88 2165.51 1320.88 2177.27 1269.8C2178.45 1264.65 2179.04 1260.67 2179.04 1257.88 2179.04 1255.73 2178.7 1254.17 2178 1253.21 2177.3 1252.24 2176.2 1251.76 2174.69 1251.76 2173.03 1251.76 2171.27 1252.44 2169.42 1253.81 2167.56 1255.18 2165.03 1257.66 2161.8 1261.26L2157.21 1256.75C2161.94 1251.81 2166.01 1248.2 2169.42 1245.91 2172.83 1243.63 2176.57 1242.49 2180.66 1242.49Z" fill-rule="evenodd"/><text fill="#000000" fill-opacity="0" font-family="Arial,Arial_MSFontService,sans-serif" font-size="79.6802" x="2157.21" y="1312.21">𝑚</text><path d="M2144.72 1418.04C2025.5 1518.94 1865.58 1559.18 1708.44 1527.83" stroke="#000000" stroke-width="6.875" stroke-miterlimit="8" fill="none" fill-rule="evenodd"/><path d="M2123.82 1414.37 2153.73 1415.39 2146.28 1444.38Z" stroke="#000000" stroke-width="6.875" stroke-miterlimit="8" fill-rule="evenodd"/><path d="M1422.5 480.5 1986.6 480.5" stroke="#000000" stroke-width="6.875" stroke-miterlimit="8" fill="none" fill-rule="evenodd"/><path d="M0 0 46.2711 71.744" stroke="#000000" stroke-width="6.875" stroke-miterlimit="8" fill="none" fill-rule="evenodd" transform="matrix(1 0 0 -1 1460.5 481.244)"/><path d="M0 0 46.2711 71.744" stroke="#000000" stroke-width="6.875" stroke-miterlimit="8" fill="none" fill-rule="evenodd" transform="matrix(1 0 0 -1 1530.5 482.244)"/><path d="M0 0 46.2711 71.744" stroke="#000000" stroke-width="6.875" stroke-miterlimit="8" fill="none" fill-rule="evenodd" transform="matrix(1 0 0 -1 1598.5 481.244)"/><path d="M0 0 46.2711 71.744" stroke="#000000" stroke-width="6.875" stroke-miterlimit="8" fill="none" fill-rule="evenodd" transform="matrix(1 0 0 -1 1667.5 478.244)"/><path d="M0 0 46.2711 71.744" stroke="#000000" stroke-width="6.875" stroke-miterlimit="8" fill="none" fill-rule="evenodd" transform="matrix(1 0 0 -1 1737.5 481.244)"/><path d="M0 0 46.2711 71.744" stroke="#000000" stroke-width="6.875" stroke-miterlimit="8" fill="none" fill-rule="evenodd" transform="matrix(1 0 0 -1 1941.5 477.244)"/><path d="M0 0 46.2711 71.744" stroke="#000000" stroke-width="6.875" stroke-miterlimit="8" fill="none" fill-rule="evenodd" transform="matrix(1 0 0 -1 1873.5 477.244)"/><path d="M0 0 46.2711 71.744" stroke="#000000" stroke-width="6.875" stroke-miterlimit="8" fill="none" fill-rule="evenodd" transform="matrix(1 0 0 -1 1804.5 477.244)"/><path d="M1563.5 480.5 1847.5 480.5 1749.07 625.701 1737.82 618.41C1728.16 614.48 1717.54 612.307 1706.39 612.307 1695.24 612.307 1684.61 614.48 1674.95 618.41L1662.47 626.5Z" stroke="#000000" stroke-width="6.875" stroke-miterlimit="8" fill="none" fill-rule="evenodd"/></g></svg>