<svg width="5816" height="1237" xmlns="http://www.w3.org/2000/svg" xmlns:xlink="http://www.w3.org/1999/xlink" xml:space="preserve" overflow="hidden"><g transform="translate(990 -1630)"><path d="M485.5 1794.34C485.5 1705.51 557.509 1633.5 646.336 1633.5L1707.66 1633.5C1796.49 1633.5 1868.5 1705.51 1868.5 1794.34L1868.5 2437.66C1868.5 2526.49 1796.49 2598.5 1707.66 2598.5L646.336 2598.5C557.509 2598.5 485.5 2526.49 485.5 2437.66Z" stroke="#042433" stroke-width="6.875" stroke-miterlimit="8" fill="#D9D9D9" fill-rule="evenodd"/><path d="M1601.5 2106C1601.5 2086.95 1616.95 2071.5 1636 2071.5 1655.05 2071.5 1670.5 2086.95 1670.5 2106 1670.5 2125.05 1655.05 2140.5 1636 2140.5 1616.95 2140.5 1601.5 2125.05 1601.5 2106Z" stroke="#000000" stroke-width="6.875" stroke-miterlimit="8" fill-rule="evenodd"/><text fill="#FFFFFF" font-family="Yu Gothic,Yu Gothic_MSFontService,sans-serif" font-weight="700" font-size="83" transform="matrix(1 0 0 1 1611.8 2132)">1</text><path d="M1203.5 2106C1203.5 2086.95 1218.95 2071.5 1238 2071.5 1257.05 2071.5 1272.5 2086.95 1272.5 2106 1272.5 2125.05 1257.05 2140.5 1238 2140.5 1218.95 2140.5 1203.5 2125.05 1203.5 2106Z" stroke="#000000" stroke-width="6.875" stroke-miterlimit="8" fill-rule="evenodd"/><text fill="#FFFFFF" font-family="Yu Gothic,Yu Gothic_MSFontService,sans-serif" font-weight="700" font-size="83" transform="matrix(1 0 0 1 1196.04 2132)">２</text><path d="M733.5 1964C733.5 1944.95 748.946 1929.5 768 1929.5 787.054 1929.5 802.5 1944.95 802.5 1964 802.5 1983.05 787.054 1998.5 768 1998.5 748.946 1998.5 733.5 1983.05 733.5 1964Z" stroke="#000000" stroke-width="6.875" stroke-miterlimit="8" fill-rule="evenodd"/><text fill="#FFFFFF" font-family="Yu Gothic,Yu Gothic_MSFontService,sans-serif" font-weight="700" font-size="83" transform="matrix(1 0 0 1 743.778 1990)">3</text><path d="M120.476 356.684 120.476 295.834 82.439 295.834 82.439 60.8533 120.476 60.8533 120.476 0.00288714 90.0502 0.00288714 90.0502 36.8283 82.4394 36.8283 82.4394 36.8255 30.4258 36.8255 30.4258 0 0.000360892 0 0.000360892 60.8504 36.3545 60.8504 36.3545 295.834 0 295.834 0 356.684 30.4254 356.684 30.4254 319.859 82.439 319.859 82.439 319.859 90.0509 319.859 90.0509 356.684Z" fill="#A6A6A6" fill-rule="evenodd" transform="matrix(0.794079 -0.607815 -0.607815 -0.794079 1177.38 2137.86)"/><path d="M120.476 428.014 120.476 354.995 82.439 354.995 82.439 73.0229 120.476 73.0229 120.476 0.00346452 90.0502 0.00346452 90.0502 44.1934 82.4394 44.1934 82.4394 44.1899 30.4258 44.1899 30.4258 0 0.000360892 0 0.000360892 73.0194 36.3545 73.0194 36.3545 354.995 0 354.995 0 428.014 30.4254 428.014 30.4254 383.825 82.439 383.825 82.439 383.825 90.0509 383.825 90.0509 428.014Z" fill="#7F7F7F" fill-rule="evenodd" transform="matrix(0.50244 -0.864612 -0.864612 -0.50244 1203.79 2142.29)"/><path d="M120.476 502.318 120.476 416.623 82.439 416.623 82.439 85.6998 120.476 85.6998 120.476 0.00406596 90.0502 0.00406596 90.0502 51.8654 82.4394 51.8654 82.4394 51.8613 30.4258 51.8613 30.4258 0 0.000360892 0 0.000360892 85.6957 36.3545 85.6957 36.3545 416.623 0 416.623 0 502.319 30.4254 502.319 30.4254 450.457 82.439 450.457 82.439 450.457 90.0509 450.457 90.0509 502.318Z" fill="#0B76A0" fill-rule="evenodd" transform="matrix(0.285349 -0.958424 -0.958424 -0.285349 1227.71 2164.82)"/><path d="M-986.5 1803.17C-986.5 1713.88-914.118 1641.5-824.831 1641.5L234.831 1641.5C324.118 1641.5 396.5 1713.88 396.5 1803.17L396.5 2449.83C396.5 2539.12 324.118 2611.5 234.831 2611.5L-824.831 2611.5C-914.118 2611.5-986.5 2539.12-986.5 2449.83Z" stroke="#042433" stroke-width="6.875" stroke-miterlimit="8" fill="#D9D9D9" fill-rule="evenodd"/><path d="M137.5 2187C137.5 2167.95 152.946 2152.5 172 2152.5 191.054 2152.5 206.5 2167.95 206.5 2187 206.5 2206.05 191.054 2221.5 172 2221.5 152.946 2221.5 137.5 2206.05 137.5 2187Z" stroke="#000000" stroke-width="6.875" stroke-miterlimit="8" fill-rule="evenodd"/><text fill="#FFFFFF" font-family="Yu Gothic,Yu Gothic_MSFontService,sans-serif" font-weight="700" font-size="83" transform="matrix(1 0 0 1 147.564 2213)">1</text><path d="M-261.5 2188C-261.5 2168.95-245.83 2153.5-226.5 2153.5-207.17 2153.5-191.5 2168.95-191.5 2188-191.5 2207.05-207.17 2222.5-226.5 2222.5-245.83 2222.5-261.5 2207.05-261.5 2188Z" stroke="#000000" stroke-width="6.875" stroke-miterlimit="8" fill-rule="evenodd"/><text fill="#FFFFFF" font-family="Yu Gothic,Yu Gothic_MSFontService,sans-serif" font-weight="700" font-size="83" transform="matrix(1 0 0 1 -268.192 2214)">２</text><path d="M-745.5 2045C-745.5 2025.95-729.83 2010.5-710.5 2010.5-691.17 2010.5-675.5 2025.95-675.5 2045-675.5 2064.05-691.17 2079.5-710.5 2079.5-729.83 2079.5-745.5 2064.05-745.5 2045Z" stroke="#000000" stroke-width="6.875" stroke-miterlimit="8" fill-rule="evenodd"/><text fill="#FFFFFF" font-family="Yu Gothic,Yu Gothic_MSFontService,sans-serif" font-weight="700" font-size="83" transform="matrix(1 0 0 1 -734.877 2071)">3</text><path d="M120.476 356.684 120.476 295.834 82.439 295.834 82.439 60.8533 120.476 60.8533 120.476 0.00288714 90.0502 0.00288714 90.0502 36.8283 82.4394 36.8283 82.4394 36.8255 30.4258 36.8255 30.4258 0 0.000360892 0 0.000360892 60.8504 36.3545 60.8504 36.3545 295.834 0 295.834 0 356.684 30.4254 356.684 30.4254 319.859 82.439 319.859 82.439 319.859 90.0509 319.859 90.0509 356.684Z" fill="#A6A6A6" fill-rule="evenodd" transform="matrix(-0.62559 -0.780152 -0.780152 0.62559 -209.327 2217.65)"/><path d="M120.476 428.014 120.476 354.995 82.439 354.995 82.439 73.0229 120.476 73.0229 120.476 0.00346452 90.0502 0.00346452 90.0502 44.1934 82.4394 44.1934 82.4394 44.1899 30.4258 44.1899 30.4258 0 0.000360892 0 0.000360892 73.0194 36.3545 73.0194 36.3545 354.995 0 354.995 0 428.014 30.4254 428.014 30.4254 383.825 82.439 383.825 82.439 383.825 90.0509 383.825 90.0509 428.014Z" fill="#7F7F7F" fill-rule="evenodd" transform="matrix(-0.0856995 -0.996321 -0.996321 0.0856995 -214.768 2243.59)"/><path d="M120.476 502.318 120.476 416.623 82.439 416.623 82.439 85.6998 120.476 85.6998 120.476 0.00406596 90.0502 0.00406596 90.0502 51.8654 82.4394 51.8654 82.4394 51.8613 30.4258 51.8613 30.4258 0 0.000360892 0 0.000360892 85.6957 36.3545 85.6957 36.3545 416.623 0 416.623 0 502.319 30.4254 502.319 30.4254 450.457 82.439 450.457 82.439 450.457 90.0509 450.457 90.0509 502.318Z" fill="#0B76A0" fill-rule="evenodd" transform="matrix(0.275072 -0.961424 -0.961424 -0.275072 -245.734 2247.36)"/><path d="M1957.5 1798.17C1957.5 1708.88 2029.88 1636.5 2119.17 1636.5L3179.83 1636.5C3269.12 1636.5 3341.5 1708.88 3341.5 1798.17L3341.5 2444.83C3341.5 2534.12 3269.12 2606.5 3179.83 2606.5L2119.17 2606.5C2029.88 2606.5 1957.5 2534.12 1957.5 2444.83Z" stroke="#042433" stroke-width="6.875" stroke-miterlimit="8" fill="#D9D9D9" fill-rule="evenodd"/><path d="M3071.5 2178C3071.5 2158.95 3087.17 2143.5 3106.5 2143.5 3125.83 2143.5 3141.5 2158.95 3141.5 2178 3141.5 2197.05 3125.83 2212.5 3106.5 2212.5 3087.17 2212.5 3071.5 2197.05 3071.5 2178Z" stroke="#000000" stroke-width="6.875" stroke-miterlimit="8" fill-rule="evenodd"/><text fill="#FFFFFF" font-family="Yu Gothic,Yu Gothic_MSFontService,sans-serif" font-weight="700" font-size="83" transform="matrix(1 0 0 1 3082.02 2204)">1</text><path d="M2673.5 2179C2673.5 2159.95 2688.95 2144.5 2708 2144.5 2727.05 2144.5 2742.5 2159.95 2742.5 2179 2742.5 2198.05 2727.05 2213.5 2708 2213.5 2688.95 2213.5 2673.5 2198.05 2673.5 2179Z" stroke="#000000" stroke-width="6.875" stroke-miterlimit="8" fill-rule="evenodd"/><text fill="#FFFFFF" font-family="Yu Gothic,Yu Gothic_MSFontService,sans-serif" font-weight="700" font-size="83" transform="matrix(1 0 0 1 2666.26 2205)">２</text><path d="M2203.5 2036C2203.5 2016.95 2218.95 2001.5 2238 2001.5 2257.05 2001.5 2272.5 2016.95 2272.5 2036 2272.5 2055.05 2257.05 2070.5 2238 2070.5 2218.95 2070.5 2203.5 2055.05 2203.5 2036Z" stroke="#000000" stroke-width="6.875" stroke-miterlimit="8" fill-rule="evenodd"/><text fill="#FFFFFF" font-family="Yu Gothic,Yu Gothic_MSFontService,sans-serif" font-weight="700" font-size="83" transform="matrix(1 0 0 1 2214 2062)">3</text><path d="M120.476 502.318 120.476 416.623 82.439 416.623 82.439 85.6998 120.476 85.6998 120.476 0.00406596 90.0502 0.00406596 90.0502 51.8654 82.4394 51.8654 82.4394 51.8613 30.4258 51.8613 30.4258 0 0.000360892 0 0.000360892 85.6957 36.3545 85.6957 36.3545 416.623 0 416.623 0 502.319 30.4254 502.319 30.4254 450.457 82.439 450.457 82.439 450.457 90.0509 450.457 90.0509 502.318Z" fill="#0B76A0" fill-rule="evenodd" transform="matrix(0.285349 -0.958424 -0.958424 -0.285349 2697.93 2237.47)"/><path d="M120.476 502.318 120.476 416.623 82.439 416.623 82.439 85.6998 120.476 85.6998 120.476 0.00406596 90.0502 0.00406596 90.0502 51.8654 82.4394 51.8654 82.4394 51.8613 30.4258 51.8613 30.4258 0 0.000360892 0 0.000360892 85.6957 36.3545 85.6957 36.3545 416.623 0 416.623 0 502.319 30.4254 502.319 30.4254 450.457 82.439 450.457 82.439 450.457 90.0509 450.457 90.0509 502.318Z" fill="#0B76A0" fill-rule="evenodd" transform="matrix(0.741923 -0.670485 -0.670485 -0.741923 2667.65 2224.54)"/><path d="M120.476 502.318 120.476 416.623 82.439 416.623 82.439 85.6998 120.476 85.6998 120.476 0.00406596 90.0502 0.00406596 90.0502 51.8654 82.4394 51.8654 82.4394 51.8613 30.4258 51.8613 30.4258 0 0.000360892 0 0.000360892 85.6957 36.3545 85.6957 36.3545 416.623 0 416.623 0 502.319 30.4254 502.319 30.4254 450.457 82.439 450.457 82.439 450.457 90.0509 450.457 90.0509 502.318Z" fill="#0B76A0" fill-rule="evenodd" transform="matrix(0.980715 -0.195443 -0.195443 -0.980715 2640.02 2194.82)"/><path d="M120.476 428.014 120.476 354.995 82.439 354.995 82.439 73.0229 120.476 73.0229 120.476 0.00346452 90.0502 0.00346452 90.0502 44.1934 82.4394 44.1934 82.4394 44.1899 30.4258 44.1899 30.4258 0 0.000360892 0 0.000360892 73.0194 36.3545 73.0194 36.3545 354.995 0 354.995 0 428.014 30.4254 428.014 30.4254 383.825 82.439 383.825 82.439 383.825 90.0509 383.825 90.0509 428.014Z" fill="#7F7F7F" fill-rule="evenodd" transform="matrix(0.980468 -0.196679 -0.196679 -0.980468 2643.86 2203.15)"/><path d="M120.476 356.684 120.476 295.834 82.439 295.834 82.439 60.8533 120.476 60.8533 120.476 0.00288714 90.0502 0.00288714 90.0502 36.8283 82.4394 36.8283 82.4394 36.8255 30.4258 36.8255 30.4258 0 0.000360892 0 0.000360892 60.8504 36.3545 60.8504 36.3545 295.834 0 295.834 0 356.684 30.4254 356.684 30.4254 319.859 82.439 319.859 82.439 319.859 90.0509 319.859 90.0509 356.684Z" fill="#A6A6A6" fill-rule="evenodd" transform="matrix(-0.977887 0.209135 0.209135 0.977887 2704.35 1813.58)"/><path d="M3438.5 1803.34C3438.5 1714.51 3510.51 1642.5 3599.34 1642.5L4661.66 1642.5C4750.49 1642.5 4822.5 1714.51 4822.5 1803.34L4822.5 2446.66C4822.5 2535.49 4750.49 2607.5 4661.66 2607.5L3599.34 2607.5C3510.51 2607.5 3438.5 2535.49 3438.5 2446.66Z" stroke="#042433" stroke-width="6.875" stroke-miterlimit="8" fill="#D9D9D9" fill-rule="evenodd"/><path d="M4555.5 2173C4555.5 2153.95 4570.95 2138.5 4590 2138.5 4609.05 2138.5 4624.5 2153.95 4624.5 2173 4624.5 2192.05 4609.05 2207.5 4590 2207.5 4570.95 2207.5 4555.5 2192.05 4555.5 2173Z" stroke="#000000" stroke-width="6.875" stroke-miterlimit="8" fill-rule="evenodd"/><text fill="#FFFFFF" font-family="Yu Gothic,Yu Gothic_MSFontService,sans-serif" font-weight="700" font-size="83" transform="matrix(1 0 0 1 4565.61 2199)">1</text><path d="M4156.5 2174C4156.5 2154.95 4172.17 2139.5 4191.5 2139.5 4210.83 2139.5 4226.5 2154.95 4226.5 2174 4226.5 2193.05 4210.83 2208.5 4191.5 2208.5 4172.17 2208.5 4156.5 2193.05 4156.5 2174Z" stroke="#000000" stroke-width="6.875" stroke-miterlimit="8" fill-rule="evenodd"/><text fill="#FFFFFF" font-family="Yu Gothic,Yu Gothic_MSFontService,sans-serif" font-weight="700" font-size="83" transform="matrix(1 0 0 1 4149.85 2200)">２</text><path d="M3672.5 2031C3672.5 2011.95 3688.17 1996.5 3707.5 1996.5 3726.83 1996.5 3742.5 2011.95 3742.5 2031 3742.5 2050.05 3726.83 2065.5 3707.5 2065.5 3688.17 2065.5 3672.5 2050.05 3672.5 2031Z" stroke="#000000" stroke-width="6.875" stroke-miterlimit="8" fill-rule="evenodd"/><text fill="#FFFFFF" font-family="Yu Gothic,Yu Gothic_MSFontService,sans-serif" font-weight="700" font-size="83" transform="matrix(1 0 0 1 3683.17 2057)">3</text><path d="M120.476 502.318 120.476 416.623 82.439 416.623 82.439 85.6998 120.476 85.6998 120.476 0.00406596 90.0502 0.00406596 90.0502 51.8654 82.4394 51.8654 82.4394 51.8613 30.4258 51.8613 30.4258 0 0.000360892 0 0.000360892 85.6957 36.3545 85.6957 36.3545 416.623 0 416.623 0 502.319 30.4254 502.319 30.4254 450.457 82.439 450.457 82.439 450.457 90.0509 450.457 90.0509 502.318Z" fill="#0B76A0" fill-rule="evenodd" transform="matrix(0.275072 -0.961424 -0.961424 -0.275072 4172.31 2233.47)"/><path d="M120.476 502.318 120.476 416.623 82.439 416.623 82.439 85.6998 120.476 85.6998 120.476 0.00406596 90.0502 0.00406596 90.0502 51.8654 82.4394 51.8654 82.4394 51.8613 30.4258 51.8613 30.4258 0 0.000360892 0 0.000360892 85.6957 36.3545 85.6957 36.3545 416.623 0 416.623 0 502.319 30.4254 502.319 30.4254 450.457 82.439 450.457 82.439 450.457 90.0509 450.457 90.0509 502.318Z" fill="#0B76A0" fill-rule="evenodd" transform="matrix(-0.439583 -0.898202 -0.898202 0.439583 4675.11 1994.72)"/><path d="M120.476 428.014 120.476 354.995 82.439 354.995 82.439 73.0229 120.476 73.0229 120.476 0.00346452 90.0502 0.00346452 90.0502 44.1934 82.4394 44.1934 82.4394 44.1899 30.4258 44.1899 30.4258 0 0.000360892 0 0.000360892 73.0194 36.3545 73.0194 36.3545 354.995 0 354.995 0 428.014 30.4254 428.014 30.4254 383.825 82.439 383.825 82.439 383.825 90.0509 383.825 90.0509 428.014Z" fill="#7F7F7F" fill-rule="evenodd" transform="matrix(0.456795 0.889572 0.889572 -0.456795 4167.35 2118.65)"/><path d="M120.476 356.684 120.476 295.834 82.439 295.834 82.439 60.8533 120.476 60.8533 120.476 0.00288714 90.0502 0.00288714 90.0502 36.8283 82.4394 36.8283 82.4394 36.8255 30.4258 36.8255 30.4258 0 0.000360892 0 0.000360892 60.8504 36.3545 60.8504 36.3545 295.834 0 295.834 0 356.684 30.4254 356.684 30.4254 319.859 82.439 319.859 82.439 319.859 90.0509 319.859 90.0509 356.684Z" fill="#A6A6A6" fill-rule="evenodd" transform="matrix(-0.473118 -0.880999 -0.880999 0.473118 4547.94 2059.61)"/><path d="M120.476 502.318 120.476 416.623 82.439 416.623 82.439 85.6998 120.476 85.6998 120.476 0.00406596 90.0502 0.00406596 90.0502 51.8654 82.4394 51.8654 82.4394 51.8613 30.4258 51.8613 30.4258 0 0.000360892 0 0.000360892 85.6957 36.3545 85.6957 36.3545 416.623 0 416.623 0 502.319 30.4254 502.319 30.4254 450.457 82.439 450.457 82.439 450.457 90.0509 450.457 90.0509 502.318Z" fill="#0B76A0" fill-rule="evenodd" transform="matrix(0.741923 -0.670485 -0.670485 -0.741923 4483.68 2586.85)"/><text font-family="Segoe UI,Segoe UI_MSFontService,sans-serif" font-weight="400" font-size="128" transform="matrix(1 0 0 1 -684.224 2759)">(1) </text><text font-family="Segoe UI,Segoe UI_MSFontService,sans-serif" font-weight="400" font-size="128" transform="matrix(1 0 0 1 -502.037 2759)">metho</text><text font-family="Segoe UI,Segoe UI_MSFontService,sans-serif" font-weight="400" font-size="128" transform="matrix(1 0 0 1 -133.078 2759)">d</text><text font-family="Segoe UI,Segoe UI_MSFontService,sans-serif" font-weight="400" font-size="128" transform="matrix(1 0 0 1 -22.5054 2759)">1 </text><text font-family="Segoe UI,Segoe UI_MSFontService,sans-serif" font-weight="400" font-size="128" transform="matrix(1 0 0 1 2320.45 2747)">(</text><text font-family="Segoe UI,Segoe UI_MSFontService,sans-serif" font-weight="400" font-size="128" transform="matrix(1 0 0 1 2359.41 2747)">3</text><text font-family="Segoe UI,Segoe UI_MSFontService,sans-serif" font-weight="400" font-size="128" transform="matrix(1 0 0 1 2428.74 2747)">) </text><text font-family="Segoe UI,Segoe UI_MSFontService,sans-serif" font-weight="400" font-size="128" transform="matrix(1 0 0 1 2502.64 2747)">metho</text><text font-family="Segoe UI,Segoe UI_MSFontService,sans-serif" font-weight="400" font-size="128" transform="matrix(1 0 0 1 2871.6 2747)">d</text><text font-family="Segoe UI,Segoe UI_MSFontService,sans-serif" font-weight="400" font-size="128" transform="matrix(1 0 0 1 2982.17 2747)">3</text><text font-family="Segoe UI,Segoe UI_MSFontService,sans-serif" font-weight="400" font-size="128" transform="matrix(1 0 0 1 755.419 2761)">(</text><text font-family="Segoe UI,Segoe UI_MSFontService,sans-serif" font-weight="400" font-size="128" transform="matrix(1 0 0 1 794.378 2761)">2</text><text font-family="Segoe UI,Segoe UI_MSFontService,sans-serif" font-weight="400" font-size="128" transform="matrix(1 0 0 1 863.7 2761)">) </text><text font-family="Segoe UI,Segoe UI_MSFontService,sans-serif" font-weight="400" font-size="128" transform="matrix(1 0 0 1 937.607 2761)">metho</text><text font-family="Segoe UI,Segoe UI_MSFontService,sans-serif" font-weight="400" font-size="128" transform="matrix(1 0 0 1 1306.56 2761)">d</text><text font-family="Segoe UI,Segoe UI_MSFontService,sans-serif" font-weight="400" font-size="128" transform="matrix(1 0 0 1 1417.14 2761)">2</text><text font-family="Segoe UI,Segoe UI_MSFontService,sans-serif" font-weight="400" font-size="128" transform="matrix(1 0 0 1 3760.1 2747)">(</text><text font-family="Segoe UI,Segoe UI_MSFontService,sans-serif" font-weight="400" font-size="128" transform="matrix(1 0 0 1 3799.06 2747)">4</text><text font-family="Segoe UI,Segoe UI_MSFontService,sans-serif" font-weight="400" font-size="128" transform="matrix(1 0 0 1 3868.38 2747)">) </text><text font-family="Segoe UI,Segoe UI_MSFontService,sans-serif" font-weight="400" font-size="128" transform="matrix(1 0 0 1 3942.28 2747)">metho</text><text font-family="Segoe UI,Segoe UI_MSFontService,sans-serif" font-weight="400" font-size="128" transform="matrix(1 0 0 1 4311.24 2747)">d</text><text font-family="Segoe UI,Segoe UI_MSFontService,sans-serif" font-weight="400" font-size="128" transform="matrix(1 0 0 1 4421.82 2747)">4</text></g></svg>