<svg width="3248" height="1717" xmlns="http://www.w3.org/2000/svg" xmlns:xlink="http://www.w3.org/1999/xlink" xml:space="preserve" overflow="hidden"><g transform="translate(-681 -308)"><path d="M2568.9 1334.04 2504.53 1246.04 2690.04 1110.34 2753.29 1196.81 3578.48 593.173 3538.43 529.154 3537.08 370.228C3560.51 353.817 3600.84 331.503 3624.28 315.092L3626.42 524.399 3648.37 556.811 3706.38 636.105 3732.7 669.911 3921.9 757.846C3896.53 776.315 3852.64 801.063 3827.27 819.531L3691.4 749.663 3650.45 691.557 2825.26 1295.2 2888.6 1381.78 2703.09 1517.48 2638.72 1429.48 2761.37 1339.76 2755.92 1332.31 2697 1251.76 2691.55 1244.32 2568.9 1334.04Z" stroke="#104862" stroke-width="6.875" stroke-miterlimit="8" fill="#A6CAEC" fill-rule="evenodd"/><path d="M2640.55 1938.43C2242.19 1968.52 1938.47 1697.04 1962.17 1332.08 1963.52 1311.31 1965.94 1290.47 1969.41 1269.63" stroke="#00B050" stroke-width="6.875" stroke-miterlimit="8" fill="none" fill-rule="evenodd"/><path d="M2407.72 1458.09 2375.91 1514.38 2410.84 1514.38 2409.32 1485.61C2409.15 1481.68 2409 1476.76 2408.88 1470.87 2408.76 1464.97 2408.7 1460.71 2408.7 1458.09ZM2408.25 1439.23 2421.75 1439.23 2428.18 1538.87C2428.48 1543.57 2429.01 1547.25 2429.79 1549.9 2430.56 1552.55 2431.62 1554.52 2432.96 1555.8 2434.3 1557.08 2436.25 1557.9 2438.81 1558.26L2437.83 1562.63 2400.66 1562.63 2401.64 1558.26C2405.15 1557.96 2407.78 1556.59 2409.5 1554.15 2411.23 1551.7 2412.09 1547.41 2412.09 1541.28 2412.09 1538.96 2412.01 1536.42 2411.83 1533.68L2411.2 1522.16 2371.88 1522.16 2366.97 1530.91C2364.65 1535.02 2362.95 1538.55 2361.88 1541.5 2360.8 1544.45 2360.27 1547.06 2360.27 1549.32 2360.27 1554.32 2363.28 1557.3 2369.29 1558.26L2368.31 1562.63 2331.76 1562.63 2332.75 1558.26C2334.59 1558.02 2336.34 1557.29 2337.97 1556.07 2339.61 1554.85 2341.35 1553 2343.2 1550.53 2345.05 1548.05 2347.64 1543.96 2350.98 1538.24Z" fill="#FF0000" fill-rule="evenodd"/><text fill="#000000" fill-opacity="0" font-family="Arial,Arial_MSFontService,sans-serif" font-size="123.4" x="2331.76" y="1547.21">𝐴</text><path d="M2489.15 1515.78 2493.14 1515.78C2493.06 1518.18 2492.99 1520.33 2492.95 1522.23 2492.9 1524.13 2492.87 1525.97 2492.85 1527.76 2492.83 1529.55 2492.82 1531.31 2492.82 1533.06L2492.82 1582.78C2492.82 1584.14 2492.86 1585.3 2492.95 1586.28 2493.04 1587.27 2493.18 1588.09 2493.37 1588.77 2493.57 1589.45 2493.83 1590.03 2494.16 1590.5 2494.49 1590.98 2494.87 1591.4 2495.3 1591.75 2495.83 1592.27 2496.53 1592.67 2497.4 1592.96 2498.27 1593.24 2499.38 1593.48 2500.73 1593.68 2502.09 1593.87 2503.71 1594.03 2505.61 1594.14 2507.51 1594.25 2509.79 1594.32 2512.45 1594.37L2512.45 1600.06 2460.56 1600.06 2460.56 1594.37C2463.13 1594.28 2465.32 1594.18 2467.1 1594.07 2468.89 1593.96 2470.42 1593.81 2471.68 1593.61 2472.95 1593.42 2473.96 1593.2 2474.73 1592.96 2475.49 1592.72 2476.15 1592.42 2476.72 1592.08 2477.33 1591.68 2477.86 1591.26 2478.29 1590.8 2478.73 1590.34 2479.08 1589.76 2479.34 1589.07 2479.6 1588.37 2479.81 1587.52 2479.96 1586.51 2480.11 1585.51 2480.19 1584.27 2480.19 1582.78L2480.19 1535.87C2480.19 1534.17 2479.86 1532.97 2479.21 1532.27 2478.55 1531.57 2477.62 1531.23 2476.39 1531.23 2475.04 1531.23 2473.04 1531.92 2470.38 1533.32 2467.71 1534.72 2464.27 1536.79 2460.04 1539.54 2459.47 1538.53 2458.95 1537.53 2458.47 1536.53 2457.99 1535.52 2457.49 1534.5 2456.96 1533.45 2462.37 1530.48 2467.73 1527.53 2473.02 1524.58 2478.32 1521.64 2483.7 1518.71 2489.15 1515.78Z" fill="#FF0000" fill-rule="evenodd"/><text fill="#000000" fill-opacity="0" font-family="Arial,Arial_MSFontService,sans-serif" font-size="84.2734" x="2456.96" y="1589.52">1</text><path d="M0 0 3.96224 1130.99" stroke="#000000" stroke-width="6.875" stroke-miterlimit="8" fill="none" fill-rule="evenodd" transform="matrix(-1 0 0 1 2655.46 890.5)"/><path d="M2582.5 1342C2582.5 1308.03 2612.27 1280.5 2649 1280.5 2685.73 1280.5 2715.5 1308.03 2715.5 1342 2715.5 1375.97 2685.73 1403.5 2649 1403.5 2612.27 1403.5 2582.5 1375.97 2582.5 1342Z" stroke="#000000" stroke-width="20.625" stroke-miterlimit="8" fill="none" fill-rule="evenodd"/><path d="M918.5 1180C918.5 1146.03 948.273 1118.5 985 1118.5 1021.73 1118.5 1051.5 1146.03 1051.5 1180 1051.5 1213.97 1021.73 1241.5 985 1241.5 948.273 1241.5 918.5 1213.97 918.5 1180Z" stroke="#000000" stroke-width="20.625" stroke-miterlimit="8" fill="none" fill-rule="evenodd"/><path d="M0 0 2591.01 5.76887" stroke="#000000" stroke-width="6.875" stroke-miterlimit="8" fill="none" fill-rule="evenodd" transform="matrix(-1 0 0 1 3275.51 1345.5)"/><path d="M2698.9 954.599 2769.03 954.599 2770.9 959.53 2723.85 1013.58C2714.71 1024.04 2706.79 1032.91 2700.08 1040.21L2700.68 1040.9 2722.97 1040.9C2726.91 1040.9 2729.94 1040.69 2732.04 1040.26 2734.15 1039.83 2735.99 1039.03 2737.56 1037.84 2739.14 1036.66 2740.77 1034.87 2742.45 1032.47 2744.12 1030.07 2746.21 1026.3 2748.71 1021.18L2757.49 1021.18 2751.47 1048.89 2680.06 1048.89 2678.19 1044.06 2732.14 981.92C2739.77 973.174 2745.36 966.961 2748.91 963.278L2748.32 962.588 2725.24 962.588C2721.82 962.588 2719.32 962.818 2717.74 963.278 2716.16 963.739 2714.58 964.544 2713 965.695 2711.43 966.846 2709.73 968.555 2707.93 970.824 2706.12 973.092 2704.09 976.331 2701.86 980.539L2693.08 980.539Z" fill-rule="evenodd"/><text fill="#000000" fill-opacity="0" font-family="Arial,Arial_MSFontService,sans-serif" font-size="94.293" x="2678.19" y="1037.1">𝑧</text><path d="M2076.3 1228.38C2078.34 1228.38 2080.14 1228.61 2081.68 1229.07 2083.23 1229.53 2084.59 1230.23 2085.77 1231.19 2086.96 1232.14 2088.01 1233.37 2088.93 1234.89 2089.85 1236.4 2090.74 1238.45 2091.59 1241.05 2092.45 1243.65 2093.25 1246.87 2094.01 1250.72 2094.77 1254.56 2095.44 1258.56 2096.03 1262.7L2097.02 1262.7C2103.33 1253.82 2108.11 1247.33 2111.37 1243.22 2114.62 1239.11 2117.37 1236.05 2119.6 1234.05 2121.84 1232.04 2123.99 1230.63 2126.06 1229.81 2128.14 1228.98 2130.88 1228.57 2134.3 1228.57 2137.39 1228.57 2139.92 1228.97 2141.9 1229.76L2137.95 1247.61 2131.05 1247.61C2130.65 1244.85 2129.5 1243.47 2127.59 1243.47 2127 1243.47 2126.38 1243.56 2125.72 1243.76 2125.06 1243.96 2124.26 1244.39 2123.3 1245.04 2122.35 1245.7 2120.95 1246.98 2119.11 1248.89 2117.27 1250.8 2115.2 1253.13 2112.9 1255.89 2110.6 1258.66 2108.23 1261.55 2105.8 1264.57L2099.09 1272.96C2100.27 1279.27 2101.39 1284.73 2102.44 1289.33 2103.49 1293.93 2104.43 1297.76 2105.25 1300.82 2106.08 1303.88 2106.8 1306.3 2107.42 1308.07 2108.05 1309.85 2108.72 1311.18 2109.45 1312.07 2110.17 1312.95 2110.91 1313.58 2111.66 1313.94 2112.42 1314.3 2113.29 1314.48 2114.28 1314.48 2116.05 1314.48 2117.78 1313.79 2119.46 1312.41 2121.13 1311.03 2123.55 1307.91 2126.71 1303.04L2133.12 1307.28C2128.51 1314.12 2124.36 1318.94 2120.64 1321.73 2116.93 1324.53 2112.5 1325.92 2107.37 1325.92 2104.55 1325.92 2102.15 1325.41 2100.17 1324.39 2098.2 1323.38 2096.49 1321.75 2095.04 1319.51 2093.6 1317.28 2092.32 1313.79 2091.2 1309.06 2089.16 1300.64 2087.91 1294.2 2087.45 1289.73L2086.46 1289.73C2079.49 1299.52 2074.32 1306.56 2070.93 1310.83 2067.54 1315.11 2064.75 1318.26 2062.55 1320.3 2060.34 1322.34 2058.21 1323.77 2056.13 1324.59 2054.06 1325.41 2051.32 1325.82 2047.9 1325.82 2044.81 1325.82 2042.28 1325.43 2040.3 1324.64L2044.25 1306.79 2051.15 1306.79C2051.55 1309.55 2052.7 1310.93 2054.61 1310.93 2055.53 1310.93 2056.5 1310.68 2057.52 1310.19 2058.53 1309.7 2060 1308.51 2061.9 1306.64 2063.81 1304.77 2066.44 1301.82 2069.79 1297.81 2073.15 1293.8 2078.01 1287.79 2084.39 1279.76 2083.41 1274.57 2082.39 1269.57 2081.33 1264.77 2080.28 1259.97 2079.2 1255.5 2078.08 1251.36 2076.96 1247.21 2076.04 1244.5 2075.32 1243.22 2074.59 1241.94 2073.82 1241.05 2073 1240.56 2072.18 1240.06 2071.14 1239.82 2069.89 1239.82 2068.51 1239.82 2067.26 1240.13 2066.15 1240.75 2065.03 1241.38 2063.81 1242.46 2062.5 1244.01 2061.18 1245.55 2059.44 1247.97 2057.27 1251.26L2050.86 1247.02C2055 1240.77 2058.98 1236.1 2062.79 1233.01 2066.61 1229.92 2071.11 1228.38 2076.3 1228.38Z" fill-rule="evenodd"/><text fill="#000000" fill-opacity="0" font-family="Arial,Arial_MSFontService,sans-serif" font-size="97.5479" x="2040.3" y="1313.73">𝑥</text><path d="M2660.95 1399.71 2623.96 1502.28 2392.75 1418.89 2429.1 1318.1 1400.66 947.184 1369.6 1016.04 1232.52 1103.81C1203.95 1092.88 1159.92 1070.83 1131.35 1059.9L1311.67 944.005 1326.37 907.717 1359.7 815.298 1372.93 774.543 1333.53 566.136C1365.07 577.593 1413.38 601.325 1444.93 612.783L1467.39 766.107 1442.02 832.515 2470.46 1203.43 2506.85 1102.52 2738.06 1185.91 2701.07 1288.47 2548.21 1233.34 2545.08 1242.02 2511.22 1335.9 2508.08 1344.58 2660.95 1399.71Z" stroke="#104862" stroke-width="6.875" stroke-miterlimit="8" fill="#A6CAEC" fill-rule="evenodd"/><path d="M10.3125-7.35992e-06 10.3128 454.109-10.3122 454.109-10.3125 7.35992e-06ZM30.9378 443.797 0.000360892 505.672-30.9372 443.797Z" transform="matrix(1 0 0 -1 2651.5 1342.17)"/><path d="M6.81369e-06-10.3125 494.648-10.3122 494.648 10.3128-6.81369e-06 10.3125ZM484.335-30.9372 546.21 0.000360892 484.335 30.9378Z" transform="matrix(-1 0 0 1 2657.71 1334.5)"/><path d="M2649.98 1684.64C2450.73 1708.9 2250.98 1562.47 2203.84 1357.59 2191.26 1302.91 2190.58 1247.47 2201.87 1195.25" stroke="#FF0000" stroke-width="6.875" stroke-miterlimit="8" fill="none" fill-rule="evenodd"/><path d="M2167.07 1227.51 2209.87 1189.74 2224.31 1244.96Z" stroke="#FF0000" stroke-width="6.875" stroke-miterlimit="8" fill="#FF0000" fill-rule="evenodd"/><path d="M2829.49 1409.67 1174.5 794.5" stroke="#FF0000" stroke-width="6.875" stroke-miterlimit="8" stroke-dasharray="27.5 20.625 6.875 20.625" fill="none" fill-rule="evenodd"/><path d="M2840.63 1351.7 717.5 1161.5" stroke="#00B050" stroke-width="6.875" stroke-miterlimit="8" stroke-dasharray="27.5 20.625 6.875 20.625" fill="none" fill-rule="evenodd"/><path d="M1932.52 1320.76 1965.84 1274.41 1992.2 1325.04Z" stroke="#00B050" stroke-width="6.875" stroke-miterlimit="8" fill="#00B050" fill-rule="evenodd"/><path d="M2130.85 1657.48C2128.05 1670.4 2126.65 1681.28 2126.65 1690.09 2126.65 1696.76 2127.66 1701.66 2129.69 1704.79 2131.71 1707.92 2134.99 1709.48 2139.52 1709.48 2146.19 1709.48 2152.52 1705 2158.51 1696.03 2164.49 1687.07 2169.57 1674.22 2173.74 1657.48ZM2167.49 1597.25C2160.52 1597.25 2154.07 1601.66 2148.14 1610.48 2142.21 1619.29 2137.17 1631.92 2133 1648.36L2175.8 1648.36C2178.6 1635.79 2180 1624.98 2180 1615.93 2180 1609.67 2178.98 1605 2176.96 1601.9 2174.93 1598.8 2171.78 1597.25 2167.49 1597.25ZM2168.56 1590.01C2185.83 1590.01 2194.47 1600.97 2194.47 1622.9 2194.47 1629.09 2193.77 1636.49 2192.37 1645.1 2190.97 1653.71 2188.75 1662.48 2185.72 1671.42 2182.68 1680.35 2178.83 1688.26 2174.19 1695.14 2169.54 1702.02 2164.18 1707.34 2158.1 1711.09 2152.03 1714.84 2145.48 1716.72 2138.45 1716.72 2129.57 1716.72 2122.96 1714.01 2118.61 1708.59 2114.26 1703.17 2112.09 1695.04 2112.09 1684.19 2112.09 1678.3 2112.74 1671.03 2114.05 1662.39 2115.36 1653.75 2117.52 1644.92 2120.53 1635.9 2123.54 1626.87 2127.41 1618.86 2132.15 1611.86 2136.88 1604.86 2142.33 1599.47 2148.5 1595.69 2154.66 1591.9 2161.35 1590.01 2168.56 1590.01Z" fill="#00B050" fill-rule="evenodd"/><text fill="#000000" fill-opacity="0" font-family="Arial,Arial_MSFontService,sans-serif" font-size="126.706" x="2112.09" y="1700.88">𝜃</text><path d="M0 0 1924.86 5.27119" stroke="#000000" stroke-width="6.875" stroke-miterlimit="8" stroke-dasharray="55 20.625 6.875 20.625" fill="none" fill-rule="evenodd" transform="matrix(-1 0 0 1 2784.36 1178.5)"/><path d="M0 0 1348.25 976.727" stroke="#FF0000" stroke-width="6.875" stroke-miterlimit="8" stroke-dasharray="27.5 20.625 6.875 20.625" fill="none" fill-rule="evenodd" transform="matrix(1 0 0 -1 2489.5 1452.23)"/><path d="M2949.34 1439.3 2917.53 1495.59 2952.47 1495.59 2950.95 1466.82C2950.77 1462.89 2950.62 1457.97 2950.5 1452.07 2950.39 1446.18 2950.33 1441.92 2950.33 1439.3ZM2949.88 1420.44 2963.37 1420.44 2969.81 1520.07C2970.1 1524.78 2970.64 1528.46 2971.41 1531.11 2972.19 1533.76 2973.25 1535.72 2974.59 1537.01 2975.93 1538.29 2977.88 1539.11 2980.44 1539.46L2979.46 1543.84 2942.28 1543.84 2943.27 1539.46C2946.78 1539.17 2949.4 1537.79 2951.13 1535.35 2952.86 1532.91 2953.72 1528.62 2953.72 1522.49 2953.72 1520.16 2953.63 1517.63 2953.45 1514.89L2952.83 1503.36 2913.51 1503.36 2908.6 1512.12C2906.27 1516.23 2904.58 1519.76 2903.5 1522.71 2902.43 1525.66 2901.9 1528.26 2901.9 1530.53 2901.9 1535.53 2904.9 1538.51 2910.92 1539.46L2909.94 1543.84 2873.39 1543.84 2874.37 1539.46C2876.22 1539.22 2877.96 1538.49 2879.6 1537.27 2881.24 1536.05 2882.98 1534.21 2884.83 1531.73 2886.67 1529.26 2889.27 1525.17 2892.6 1519.45Z" fill="#FF0000" fill-rule="evenodd"/><text fill="#000000" fill-opacity="0" font-family="Arial,Arial_MSFontService,sans-serif" font-size="123.4" x="2873.39" y="1528.42">𝐴</text><path d="M3029.65 1502.88C3026.6 1502.88 3024.05 1503.68 3022 1505.27 3019.95 1506.86 3018.32 1509.19 3017.12 1512.27 3015.92 1515.34 3015.07 1519.1 3014.57 1523.52 3014.07 1527.95 3013.82 1532.98 3013.82 1538.6 3013.82 1545.1 3014.14 1550.72 3014.77 1555.45 3015.4 1560.18 3016.38 1564.08 3017.71 1567.13 3019.04 1570.18 3020.71 1572.43 3022.72 1573.87 3024.73 1575.31 3027.12 1576.03 3029.92 1576.03 3032.53 1576.03 3034.82 1575.35 3036.79 1574 3038.75 1572.65 3040.37 1570.54 3041.66 1567.69 3042.95 1564.83 3043.92 1561.21 3044.57 1556.83 3045.23 1552.44 3045.55 1547.26 3045.55 1541.29 3045.55 1534.57 3045.19 1528.79 3044.47 1523.95 3043.75 1519.11 3042.74 1515.13 3041.43 1512.01 3040.12 1508.89 3038.48 1506.59 3036.49 1505.1 3034.51 1503.62 3032.23 1502.88 3029.65 1502.88ZM3029.92 1496.53C3035.11 1496.53 3039.54 1497.5 3043.23 1499.44 3046.92 1501.39 3049.93 1504.16 3052.26 1507.75 3054.59 1511.35 3056.31 1515.75 3057.4 1520.94 3058.49 1526.13 3059.03 1532 3059.03 1538.54 3059.03 1553.06 3056.46 1564.05 3051.31 1571.48 3046.16 1578.92 3038.71 1582.64 3028.93 1582.64 3019.25 1582.64 3012.05 1579.13 3007.34 1572.1 3002.63 1565.08 3000.28 1554.44 3000.28 1540.17 3000.28 1532.72 3001.01 1526.26 3002.47 1520.81 3003.93 1515.35 3005.98 1510.83 3008.62 1507.23 3011.26 1503.63 3014.39 1500.95 3018.01 1499.18 3021.63 1497.42 3025.6 1496.53 3029.92 1496.53Z" fill="#FF0000" fill-rule="evenodd"/><text fill="#000000" fill-opacity="0" font-family="Arial,Arial_MSFontService,sans-serif" font-size="86.1055" x="3000.28" y="1571.88">0</text><path d="M612.681 79.4192C791.836 221.988 838.363 507.615 716.603 717.386 650.395 831.449 543.914 904.635 426.582 916.719" stroke="#FF0000" stroke-width="6.875" stroke-miterlimit="8" fill="none" fill-rule="evenodd" transform="matrix(0.730264 0.683165 0.683165 -0.730264 2145.56 1418.23)"/><path d="M3081.73 1091.59 3081.41 1034.51 3132.51 1059.94Z" stroke="#FF0000" stroke-width="6.875" stroke-miterlimit="8" fill="#FF0000" fill-rule="evenodd"/></g></svg>