<svg width="1932" height="1162" xmlns="http://www.w3.org/2000/svg" xmlns:xlink="http://www.w3.org/1999/xlink" xml:space="preserve" overflow="hidden"><defs><clipPath id="clip0"><rect x="256" y="638" width="1932" height="1162"/></clipPath></defs><g clip-path="url(#clip0)" transform="translate(-256 -638)"><g><path d="M507.5 1382.55 2082.5 1382.55M507.5 1212.54 2082.5 1212.54M507.5 1042.53 2082.5 1042.53M507.5 872.529 2082.5 872.529M507.5 702.5 2082.5 702.5" stroke="#777777" stroke-width="3.4375" stroke-linejoin="round" stroke-miterlimit="10" fill="none"/></g><g><path d="M769.525 702.5 769.525 1552.5M1032.53 702.5 1032.53 1552.5M1294.54 702.5 1294.54 1552.5M1557.55 702.5 1557.55 1552.5M1819.56 702.5 1819.56 1552.5M2082.5 702.5 2082.5 1552.5" stroke="#777777" stroke-width="3.4375" stroke-linejoin="round" stroke-miterlimit="10" fill="none"/></g><g><path d="M0 0 0.000360892 850" stroke="#777777" stroke-width="3.4375" stroke-linejoin="round" stroke-miterlimit="10" fill="none" fill-rule="evenodd" transform="matrix(1 0 0 -1 507.5 1552.5)"/></g><g><path d="M507.5 1552.5 2082.5 1552.5" stroke="#777777" stroke-width="3.4375" stroke-linejoin="round" stroke-miterlimit="10" fill="none" fill-rule="evenodd"/></g><g><path d="M1049.16 840.57C1049.16 846.921 1044.01 852.07 1037.66 852.07 1031.31 852.07 1026.16 846.921 1026.16 840.57 1026.16 834.219 1031.31 829.07 1037.66 829.07 1044.01 829.07 1049.16 834.219 1049.16 840.57Z" fill="#FF1515"/><path d="M1105.16 876.57C1105.16 882.921 1100.01 888.07 1093.66 888.07 1087.31 888.07 1082.16 882.921 1082.16 876.57 1082.16 870.219 1087.31 865.07 1093.66 865.07 1100.01 865.07 1105.16 870.219 1105.16 876.57Z" fill="#FF1515"/><path d="M1209.16 885.57C1209.16 891.921 1204.01 897.07 1197.66 897.07 1191.31 897.07 1186.16 891.921 1186.16 885.57 1186.16 879.219 1191.31 874.07 1197.66 874.07 1204.01 874.07 1209.16 879.219 1209.16 885.57Z" fill="#FF1515"/><path d="M1232.16 885.57C1232.16 891.921 1227.01 897.07 1220.66 897.07 1214.31 897.07 1209.16 891.921 1209.16 885.57 1209.16 879.219 1214.31 874.07 1220.66 874.07 1227.01 874.07 1232.16 879.219 1232.16 885.57Z" fill="#FF1515"/><path d="M1380.16 840.57C1380.16 846.921 1375.01 852.07 1368.66 852.07 1362.31 852.07 1357.16 846.921 1357.16 840.57 1357.16 834.219 1362.31 829.07 1368.66 829.07 1375.01 829.07 1380.16 834.219 1380.16 840.57Z" fill="#FF1515"/><path d="M1342.16 945.57C1342.16 951.921 1337.01 957.07 1330.66 957.07 1324.31 957.07 1319.16 951.921 1319.16 945.57 1319.16 939.219 1324.31 934.07 1330.66 934.07 1337.01 934.07 1342.16 939.219 1342.16 945.57Z" fill="#FF1515"/><path d="M1570.16 885.57C1570.16 891.921 1565.01 897.07 1558.66 897.07 1552.31 897.07 1547.16 891.921 1547.16 885.57 1547.16 879.219 1552.31 874.07 1558.66 874.07 1565.01 874.07 1570.16 879.219 1570.16 885.57Z" fill="#FF1515"/><path d="M1507.16 945.57C1507.16 951.921 1502.01 957.07 1495.66 957.07 1489.31 957.07 1484.16 951.921 1484.16 945.57 1484.16 939.219 1489.31 934.07 1495.66 934.07 1502.01 934.07 1507.16 939.219 1507.16 945.57Z" fill="#FF1515"/><path d="M1752.16 952.57C1752.16 958.921 1747.01 964.07 1740.66 964.07 1734.31 964.07 1729.16 958.921 1729.16 952.57 1729.16 946.219 1734.31 941.07 1740.66 941.07 1747.01 941.07 1752.16 946.219 1752.16 952.57Z" fill="#FF1515"/><path d="M1791.16 984.57C1791.16 990.921 1786.01 996.07 1779.66 996.07 1773.31 996.07 1768.16 990.921 1768.16 984.57 1768.16 978.219 1773.31 973.07 1779.66 973.07 1786.01 973.07 1791.16 978.219 1791.16 984.57Z" fill="#FF1515"/><path d="M1960.16 1018.57C1960.16 1024.92 1955.01 1030.07 1948.66 1030.07 1942.31 1030.07 1937.16 1024.92 1937.16 1018.57 1937.16 1012.22 1942.31 1007.07 1948.66 1007.07 1955.01 1007.07 1960.16 1012.22 1960.16 1018.57Z" fill="#FF1515"/></g><g><path d="M1036.5 849.5 1948.5 998.5" stroke="#000000" stroke-width="6.875" stroke-linecap="round" stroke-linejoin="round" stroke-miterlimit="10" fill="none" fill-rule="evenodd"/></g><g><text fill="#595959" font-family="Yu Gothic,Yu Gothic_MSFontService,sans-serif" font-weight="700" font-size="64" transform="matrix(1 0 0 1 407.952 1569)">0</text></g><g><text fill="#595959" font-family="Yu Gothic,Yu Gothic_MSFontService,sans-serif" font-weight="700" font-size="64" transform="matrix(1 0 0 1 407.952 1399)">1</text></g><g><text fill="#595959" font-family="Yu Gothic,Yu Gothic_MSFontService,sans-serif" font-weight="700" font-size="64" transform="matrix(1 0 0 1 407.952 1229)">2</text></g><g><text fill="#595959" font-family="Yu Gothic,Yu Gothic_MSFontService,sans-serif" font-weight="700" font-size="64" transform="matrix(1 0 0 1 407.952 1059)">3</text></g><g><text fill="#595959" font-family="Yu Gothic,Yu Gothic_MSFontService,sans-serif" font-weight="700" font-size="64" transform="matrix(1 0 0 1 407.952 889)">4</text></g><g><text fill="#595959" font-family="Yu Gothic,Yu Gothic_MSFontService,sans-serif" font-weight="700" font-size="64" transform="matrix(1 0 0 1 407.952 719)">5</text></g><g><text fill="#595959" font-family="Yu Gothic,Yu Gothic_MSFontService,sans-serif" font-weight="700" font-size="64" transform="matrix(1 0 0 1 488.775 1657)">0</text></g><g><text fill="#595959" font-family="Yu Gothic,Yu Gothic_MSFontService,sans-serif" font-weight="700" font-size="64" transform="matrix(1 0 0 1 732.898 1657)">20</text></g><g><text fill="#595959" font-family="Yu Gothic,Yu Gothic_MSFontService,sans-serif" font-weight="700" font-size="64" transform="matrix(1 0 0 1 995.412 1657)">40</text></g><g><text fill="#595959" font-family="Yu Gothic,Yu Gothic_MSFontService,sans-serif" font-weight="700" font-size="64" transform="matrix(1 0 0 1 1257.93 1657)">60</text></g><g><text fill="#595959" font-family="Yu Gothic,Yu Gothic_MSFontService,sans-serif" font-weight="700" font-size="64" transform="matrix(1 0 0 1 1520.44 1657)">80</text></g><g><text fill="#595959" font-family="Yu Gothic,Yu Gothic_MSFontService,sans-serif" font-weight="700" font-size="64" transform="matrix(1 0 0 1 1764.56 1657)">100</text></g><g><text fill="#595959" font-family="Yu Gothic,Yu Gothic_MSFontService,sans-serif" font-weight="700" font-size="64" transform="matrix(1 0 0 1 2027.08 1657)">120</text></g><text font-family="Times New Roman,Times New Roman_MSFontService,sans-serif" font-weight="400" font-size="73" transform="matrix(1 0 0 1 1038.94 1739)">Amplitude [deg]</text><text font-family="Times New Roman,Times New Roman_MSFontService,sans-serif" font-weight="400" font-size="73" transform="matrix(-1.83697e-16 -1 1 -1.83697e-16 349.028 1496)">Angular frequency [rad/s]</text></g></svg>