<svg width="2120" height="1377" xmlns="http://www.w3.org/2000/svg" xmlns:xlink="http://www.w3.org/1999/xlink" xml:space="preserve" overflow="hidden"><defs><clipPath id="clip0"><rect x="2142" y="638" width="2120" height="1377"/></clipPath></defs><g clip-path="url(#clip0)" transform="translate(-2142 -638)"><g><path d="M2437.5 1621.55 4147.5 1621.55M2437.5 1490.55 4147.5 1490.55M2437.5 1358.54 4147.5 1358.54M2437.5 1227.54 4147.5 1227.54M2437.5 1096.54 4147.5 1096.54M2437.5 964.532 4147.5 964.532M2437.5 833.528 4147.5 833.528M2437.5 702.5 4147.5 702.5" stroke="#777777" stroke-width="3.4375" stroke-linejoin="round" stroke-miterlimit="10" fill="none"/></g><g><path d="M2864.59 702.5 2864.59 1752.5M3292.61 702.5 3292.61 1752.5M3719.62 702.5 3719.62 1752.5M4147.5 702.5 4147.5 1752.5" stroke="#777777" stroke-width="3.4375" stroke-linejoin="round" stroke-miterlimit="10" fill="none"/></g><g><path d="M0 0 0.000360892 1050" stroke="#777777" stroke-width="3.4375" stroke-linejoin="round" stroke-miterlimit="10" fill="none" fill-rule="evenodd" transform="matrix(1 0 0 -1 2437.5 1752.5)"/></g><g><path d="M2437.5 1752.5 4147.5 1752.5" stroke="#777777" stroke-width="3.4375" stroke-linejoin="round" stroke-miterlimit="10" fill="none" fill-rule="evenodd"/></g><g><path d="M4005.76 781.572C4005.76 787.923 4000.62 793.072 3994.26 793.072 3987.91 793.072 3982.76 787.923 3982.76 781.572 3982.76 775.221 3987.91 770.072 3994.26 770.072 4000.62 770.072 4005.76 775.221 4005.76 781.572Z" fill="#FF1515"/><path d="M3928.76 807.571C3928.76 813.923 3923.62 819.071 3917.26 819.071 3910.91 819.071 3905.76 813.923 3905.76 807.571 3905.76 801.22 3910.91 796.072 3917.26 796.072 3923.62 796.072 3928.76 801.22 3928.76 807.571Z" fill="#FF1515"/><path d="M3859.76 834.572C3859.76 840.923 3854.62 846.071 3848.26 846.071 3841.91 846.071 3836.76 840.923 3836.76 834.572 3836.76 828.22 3841.91 823.072 3848.26 823.072 3854.62 823.072 3859.76 828.22 3859.76 834.572Z" fill="#FF1515"/><path d="M3637.76 860.571C3637.76 866.923 3632.62 872.071 3626.26 872.071 3619.91 872.071 3614.76 866.923 3614.76 860.571 3614.76 854.22 3619.91 849.072 3626.26 849.072 3632.62 849.072 3637.76 854.22 3637.76 860.571Z" fill="#FF1515"/><path d="M3090.76 886.571C3090.76 892.923 3085.62 898.071 3079.26 898.071 3072.91 898.071 3067.77 892.923 3067.77 886.571 3067.77 880.22 3072.91 875.072 3079.26 875.072 3085.62 875.072 3090.76 880.22 3090.76 886.571Z" fill="#FF1515"/><path d="M2705.76 1017.57C2705.76 1023.92 2700.62 1029.07 2694.26 1029.07 2687.91 1029.07 2682.77 1023.92 2682.77 1017.57 2682.77 1011.22 2687.91 1006.07 2694.26 1006.07 2700.62 1006.07 2705.76 1011.22 2705.76 1017.57Z" fill="#FF1515"/></g><g><path d="M0 0 1300 197" stroke="#000000" stroke-width="6.875" stroke-linecap="round" stroke-linejoin="round" stroke-miterlimit="10" fill="none" fill-rule="evenodd" transform="matrix(1 0 0 -1 2693.5 990.5)"/></g><g><text fill="#595959" font-family="Yu Gothic,Yu Gothic_MSFontService,sans-serif" font-weight="700" font-size="64" transform="matrix(1 0 0 1 2338.24 1770)">0</text></g><g><text fill="#595959" font-family="Yu Gothic,Yu Gothic_MSFontService,sans-serif" font-weight="700" font-size="64" transform="matrix(1 0 0 1 2283.56 1639)">0.1</text></g><g><text fill="#595959" font-family="Yu Gothic,Yu Gothic_MSFontService,sans-serif" font-weight="700" font-size="64" transform="matrix(1 0 0 1 2283.56 1507)">0.2</text></g><g><text fill="#595959" font-family="Yu Gothic,Yu Gothic_MSFontService,sans-serif" font-weight="700" font-size="64" transform="matrix(1 0 0 1 2283.56 1376)">0.3</text></g><g><text fill="#595959" font-family="Yu Gothic,Yu Gothic_MSFontService,sans-serif" font-weight="700" font-size="64" transform="matrix(1 0 0 1 2283.56 1245)">0.4</text></g><g><text fill="#595959" font-family="Yu Gothic,Yu Gothic_MSFontService,sans-serif" font-weight="700" font-size="64" transform="matrix(1 0 0 1 2283.56 1113)">0.5</text></g><g><text fill="#595959" font-family="Yu Gothic,Yu Gothic_MSFontService,sans-serif" font-weight="700" font-size="64" transform="matrix(1 0 0 1 2283.56 982)">0.6</text></g><g><text fill="#595959" font-family="Yu Gothic,Yu Gothic_MSFontService,sans-serif" font-weight="700" font-size="64" transform="matrix(1 0 0 1 2283.56 851)">0.7</text></g><g><text fill="#595959" font-family="Yu Gothic,Yu Gothic_MSFontService,sans-serif" font-weight="700" font-size="64" transform="matrix(1 0 0 1 2283.56 719)">0.8</text></g><g><text fill="#595959" font-family="Yu Gothic,Yu Gothic_MSFontService,sans-serif" font-weight="700" font-size="64" transform="matrix(1 0 0 1 2359.53 1858)">-0.05</text></g><g><text fill="#595959" font-family="Yu Gothic,Yu Gothic_MSFontService,sans-serif" font-weight="700" font-size="64" transform="matrix(1 0 0 1 2846.6 1858)">0</text></g><g><text fill="#595959" font-family="Yu Gothic,Yu Gothic_MSFontService,sans-serif" font-weight="700" font-size="64" transform="matrix(1 0 0 1 3228.41 1858)">0.05</text></g><g><text fill="#595959" font-family="Yu Gothic,Yu Gothic_MSFontService,sans-serif" font-weight="700" font-size="64" transform="matrix(1 0 0 1 3674.34 1858)">0.1</text></g><g><text fill="#595959" font-family="Yu Gothic,Yu Gothic_MSFontService,sans-serif" font-weight="700" font-size="64" transform="matrix(1 0 0 1 4083.49 1858)">0.15</text></g><text font-family="Times New Roman,Times New Roman_MSFontService,sans-serif" font-weight="400" font-size="73" transform="matrix(1 0 0 1 2829.7 1953)">Amplitude increase rate [1/s]</text><text font-family="Times New Roman,Times New Roman_MSFontService,sans-serif" font-weight="400" font-size="73" transform="matrix(-1.83697e-16 -1 1 -1.83697e-16 2235.23 1656)">Maximum link length [m]</text></g></svg>