<svg width="3002" height="2325" xmlns="http://www.w3.org/2000/svg" xmlns:xlink="http://www.w3.org/1999/xlink" xml:space="preserve" overflow="hidden"><defs><clipPath id="clip0"><rect x="563" y="82" width="3002" height="2325"/></clipPath></defs><g clip-path="url(#clip0)" transform="translate(-563 -82)"><path d="M2163.5 1315.06 2264.92 1315.06 2264.92 1321.94 2163.5 1321.94ZM2260.34 1304.75 2287.84 1318.5 2260.34 1332.25Z"/><path d="M2916.71 665.202 3006.22 727.458 2861.14 936.049 2773.18 874.871 2127.83 1802.73 2216.4 1864.34 2071.32 2072.93 1981.81 2010.67 2077.74 1872.76 2068.88 1866.6 1988.23 1810.5 1979.37 1804.35 1883.45 1942.26 1793.94 1880 1939.03 1671.41 2027.75 1733.12 2673.11 805.267 2585.04 744.013 2730.12 535.422 2819.63 597.678 2723.71 735.59 2731.28 740.859 2813.22 797.845 2820.79 803.114Z" stroke="#104862" stroke-width="6.875" stroke-miterlimit="8" fill="#A6CAEC" fill-rule="evenodd"/><path d="M2653.52 825.787 2660.02 769.077 2707.72 800.429Z" stroke="#000000" stroke-width="6.875" stroke-miterlimit="8" fill-rule="evenodd"/><path d="M2500.41 1714.02C2495.59 1714.02 2491.46 1716.73 2488.04 1722.15 2484.61 1727.57 2481.59 1736.12 2478.97 1747.8L2469.85 1788.27C2478.31 1787.98 2485.61 1785.19 2491.75 1779.92 2497.88 1774.65 2502.62 1767.51 2505.95 1758.52 2509.29 1749.52 2510.96 1740.23 2510.96 1730.64 2510.96 1725.46 2510.05 1721.39 2508.23 1718.44 2506.42 1715.49 2503.81 1714.02 2500.41 1714.02ZM2459.13 1706.69 2463.78 1712.86C2455.02 1719.11 2448.05 1726.53 2442.87 1735.11 2437.69 1743.69 2435.09 1752.14 2435.09 1760.48 2435.09 1768.23 2436.82 1774.33 2440.28 1778.8 2443.73 1783.27 2448.95 1786.22 2455.91 1787.65L2465.03 1746.63C2468.07 1733.05 2472.88 1723.03 2479.46 1716.57 2486.04 1710.1 2493.47 1706.87 2501.75 1706.87 2509.92 1706.87 2516.05 1709.15 2520.16 1713.71 2524.27 1718.26 2526.33 1725.1 2526.33 1734.21 2526.33 1745.59 2523.96 1755.93 2519.22 1765.22 2514.49 1774.51 2507.74 1781.78 2498.98 1787.02 2490.23 1792.27 2480.04 1794.98 2468.42 1795.15L2460.03 1832.42 2446 1832.42 2454.4 1794.98C2443.32 1793.72 2434.78 1790.05 2428.8 1783.94 2422.81 1777.83 2419.82 1769.81 2419.82 1759.86 2419.82 1740.08 2432.92 1722.36 2459.13 1706.69Z" fill-rule="evenodd"/><text fill="#000000" fill-opacity="0" font-family="Arial,Arial_MSFontService,sans-serif" font-size="125.723" x="2419.82" y="1816.7">𝜑</text><path d="M3006.66 943.222C3001.84 943.222 2997.71 945.932 2994.29 951.353 2990.86 956.774 2987.84 965.322 2985.22 976.998L2976.1 1017.48C2984.56 1017.18 2991.86 1014.39 2998 1009.12 3004.13 1003.85 3008.87 996.716 3012.2 987.721 3015.54 978.726 3017.21 969.433 3017.21 959.842 3017.21 954.659 3016.3 950.594 3014.48 947.645 3012.66 944.696 3010.06 943.222 3006.66 943.222ZM2965.38 935.895 2970.03 942.06C2961.27 948.315 2954.3 955.732 2949.12 964.31 2943.94 972.888 2941.34 981.347 2941.34 989.687 2941.34 997.431 2943.07 1003.54 2946.53 1008 2949.98 1012.47 2955.19 1015.42 2962.16 1016.85L2971.28 975.836C2974.32 962.254 2979.13 952.232 2985.71 945.768 2992.29 939.305 2999.72 936.073 3008 936.073 3016.16 936.073 3022.3 938.352 3026.41 942.909 3030.52 947.466 3032.58 954.302 3032.58 963.416 3032.58 974.794 3030.21 985.129 3025.47 994.422 3020.74 1003.72 3013.99 1010.98 3005.23 1016.23 2996.48 1021.47 2986.29 1024.18 2974.67 1024.36L2966.27 1061.62 2952.25 1061.62 2960.65 1024.18C2949.56 1022.93 2941.03 1019.25 2935.04 1013.14 2929.06 1007.04 2926.06 999.009 2926.06 989.061 2926.06 969.284 2939.17 951.562 2965.38 935.895Z" fill-rule="evenodd"/><text fill="#000000" fill-opacity="0" font-family="Arial,Arial_MSFontService,sans-serif" font-size="125.723" x="2926.06" y="1045.9">𝜑</text><path d="M2992.81 898.723C2995.61 898.723 2997.97 899.721 2999.87 901.716 3001.78 903.712 3002.73 906.229 3002.73 909.267 3002.73 912.305 3001.78 914.822 2999.87 916.817 2997.97 918.813 2995.61 919.811 2992.81 919.811 2989.95 919.811 2987.57 918.813 2985.66 916.817 2983.76 914.822 2982.8 912.305 2982.8 909.267 2982.8 906.229 2983.76 903.712 2985.66 901.716 2987.57 899.721 2989.95 898.723 2992.81 898.723Z" fill-rule="evenodd"/><text fill="#000000" fill-opacity="0" font-family="Arial,Arial_MSFontService,sans-serif" font-size="21.0879" x="2982.8" y="917.175">ሶ</text><path d="M15.7527 16.994 800.593 1167.62 794.914 1171.49 10.0732 20.8681ZM4.13708 30.4663 0 0 26.8553 14.9701ZM806.531 1158.02 810.668 1188.49 783.812 1173.52Z" transform="matrix(1 0 0 -1 2726.5 2378.99)"/><path d="M2046.92 229.118 2051.67 229.118 2031.85 318.305C2030.67 323.623 2030.08 327.597 2030.08 330.229 2030.08 332.377 2030.43 333.935 2031.13 334.902 2031.83 335.869 2032.93 336.352 2034.43 336.352 2036.04 336.352 2037.76 335.694 2039.59 334.378 2041.41 333.062 2043.99 330.551 2047.32 326.845L2051.91 331.357C2046.7 336.835 2042.45 340.582 2039.14 342.596 2035.84 344.61 2032.15 345.617 2028.07 345.617 2024.58 345.617 2021.78 344.342 2019.69 341.79 2017.59 339.239 2016.55 335.976 2016.55 332.001 2016.55 328.403 2017.3 323.193 2018.8 316.372L2033.22 251.838C2033.87 248.991 2034.32 246.722 2034.59 245.03 2034.86 243.338 2035 241.767 2035 240.317 2035 238.706 2034.7 237.484 2034.11 236.651 2033.52 235.819 2032.67 235.214 2031.57 234.838 2030.47 234.462 2028.5 234.194 2025.65 234.033L2026.62 229.843Z" fill-rule="evenodd"/><text fill="#000000" fill-opacity="0" font-family="Arial,Arial_MSFontService,sans-serif" font-size="116.499" x="2016.55" y="331.055">𝑙</text><path d="M2097.58 326.277C2095.59 326.277 2093.64 326.648 2091.72 327.391 2089.81 328.133 2088.1 329.109 2086.6 330.32 2085.09 331.531 2083.88 332.908 2082.96 334.451 2082.05 335.994 2081.59 337.586 2081.59 339.227L2081.59 356.395C2081.59 359.676 2081.86 362.4 2082.41 364.568 2082.95 366.736 2083.82 368.475 2085.01 369.783 2086.21 371.092 2087.73 372.02 2089.58 372.566 2091.44 373.113 2093.7 373.387 2096.35 373.387 2101.39 373.387 2105.21 371.404 2107.81 367.439 2110.4 363.475 2111.7 357.625 2111.7 349.891 2111.7 334.148 2107 326.277 2097.58 326.277ZM2135.2 319.422 2160.92 319.422 2160.92 323.172C2159.04 323.406 2157.71 323.807 2156.9 324.373 2156.1 324.939 2155.7 325.613 2155.7 326.395 2155.7 327.176 2155.91 327.977 2156.32 328.797 2156.73 329.617 2157.38 330.594 2158.28 331.727L2166.02 342.215 2174.34 332.137C2175.23 331.121 2175.93 330.174 2176.42 329.295 2176.9 328.416 2177.15 327.41 2177.15 326.277 2177.15 325.574 2176.77 324.939 2176.01 324.373 2175.24 323.807 2174.08 323.406 2172.52 323.172L2172.52 319.422 2194.02 319.422 2194.02 323.172C2192.11 323.641 2190.28 324.578 2188.55 325.984 2186.81 327.391 2184.9 329.305 2182.83 331.727L2169.94 347.195 2184.18 365.418C2185.27 366.863 2186.3 368.104 2187.26 369.139 2188.21 370.174 2189.11 371.043 2189.95 371.746 2190.79 372.449 2191.6 372.996 2192.38 373.387 2193.16 373.777 2193.95 374.07 2194.73 374.266L2194.73 378.016 2168.65 378.016 2168.65 374.09C2170.37 373.895 2171.63 373.504 2172.43 372.918 2173.23 372.332 2173.63 371.648 2173.63 370.867 2173.63 370.203 2173.52 369.52 2173.28 368.816 2173.05 368.113 2172.56 367.254 2171.82 366.238L2162.79 354.109 2153.01 366.121C2152.27 367.02 2151.74 367.82 2151.43 368.523 2151.11 369.227 2150.96 369.969 2150.96 370.75 2150.96 371.492 2151.36 372.186 2152.16 372.83 2152.96 373.475 2154.22 373.895 2155.94 374.09L2155.94 378.016 2133.97 378.016 2133.97 374.266C2135.06 373.875 2136.04 373.475 2136.9 373.064 2137.75 372.654 2138.62 372.107 2139.5 371.424 2140.38 370.74 2141.33 369.871 2142.34 368.816 2143.36 367.762 2144.57 366.395 2145.98 364.715L2158.87 349.305 2145.63 331.902C2144.41 330.301 2143.36 328.973 2142.46 327.918 2141.56 326.863 2140.73 326.004 2139.97 325.34 2139.21 324.676 2138.45 324.188 2137.69 323.875 2136.92 323.562 2136.09 323.328 2135.2 323.172ZM2077.43 292.996 2081.59 292.996 2081.59 328.738 2081.7 328.738C2083.77 326.707 2085.65 325.027 2087.33 323.699 2089.01 322.371 2090.62 321.307 2092.16 320.506 2093.71 319.705 2095.26 319.139 2096.82 318.807 2098.38 318.475 2100.08 318.27 2101.92 318.191 2105.32 318.191 2108.38 318.846 2111.12 320.154 2113.85 321.463 2116.19 323.387 2118.12 325.926 2120.05 328.465 2121.55 331.6 2122.6 335.33 2123.66 339.061 2124.18 343.328 2124.18 348.133 2124.18 353.562 2123.5 358.221 2122.13 362.107 2120.77 365.994 2118.87 369.197 2116.45 371.717 2114.03 374.236 2111.15 376.092 2107.81 377.283 2104.47 378.475 2100.82 379.07 2096.88 379.07 2093.52 379.07 2090.43 378.787 2087.62 378.221 2084.81 377.654 2082 376.707 2079.18 375.379 2077.66 376.668 2076.2 377.898 2074.79 379.07 2074.01 378.875 2073.22 378.719 2072.42 378.602 2071.62 378.484 2070.82 378.328 2070.04 378.133L2070.04 313.328C2070.04 311.219 2070.05 309.393 2070.07 307.85 2070.09 306.307 2070.04 304.988 2069.93 303.895 2069.81 302.801 2069.6 301.893 2069.31 301.17 2069.02 300.447 2068.56 299.852 2067.93 299.383 2067.31 298.914 2066.5 298.533 2065.5 298.24 2064.51 297.947 2063.25 297.684 2061.72 297.449L2061.72 293.582Z" fill-rule="evenodd"/><text fill="#000000" fill-opacity="0" font-family="Arial,Arial_MSFontService,sans-serif" font-size="86.0742" x="2061.72" y="368.311">bx</text><path d="M22.9136-3.40977 1626.56-1.46878 1626.55 5.40622 22.9053 3.46523ZM27.4833 13.7833 0 0 27.5166-13.7167ZM1621.98-11.7868 1649.47 1.99646 1621.95 15.7132Z" transform="matrix(1 0 0 -1 1161.5 428.497)"/><path d="M1332.37 1962.29 1334.31 1967.82C1323.11 1971.5 1314.82 1978.69 1309.44 1989.39 1304.05 2000.08 1301.36 2013.52 1301.36 2029.69 1301.36 2046.44 1304.05 2060.25 1309.44 2071.11 1314.82 2081.97 1323.04 2089.24 1334.09 2092.93L1332.37 2098.46C1318.35 2094.77 1307.61 2086.84 1300.14 2074.66 1292.68 2062.48 1288.94 2047.73 1288.94 2030.41 1288.94 2013.14 1292.69 1998.39 1300.18 1986.16 1307.67 1973.93 1318.4 1965.98 1332.37 1962.29Z" fill-rule="evenodd"/><text fill="#000000" fill-opacity="0" font-family="Arial,Arial_MSFontService,sans-serif" font-size="136.162" x="1288.94" y="2081.43">(</text><path d="M1365.1 1996.17C1366.59 1996.17 1367.89 1996.34 1369.02 1996.67 1370.14 1997.01 1371.13 1997.52 1372 1998.22 1372.86 1998.91 1373.62 1999.81 1374.29 2000.91 1374.96 2002.01 1375.61 2003.51 1376.23 2005.4 1376.85 2007.29 1377.44 2009.63 1377.99 2012.43 1378.54 2015.23 1379.03 2018.14 1379.46 2021.15L1380.18 2021.15C1384.77 2014.69 1388.25 2009.97 1390.62 2006.97 1392.99 2003.98 1394.99 2001.76 1396.61 2000.3 1398.24 1998.84 1399.81 1997.81 1401.32 1997.21 1402.82 1996.61 1404.82 1996.32 1407.31 1996.32 1409.56 1996.32 1411.4 1996.6 1412.84 1997.18L1409.97 2010.17 1404.94 2010.17C1404.65 2008.16 1403.82 2007.15 1402.43 2007.15 1402 2007.15 1401.54 2007.23 1401.07 2007.37 1400.59 2007.51 1400 2007.82 1399.31 2008.3 1398.61 2008.78 1397.6 2009.71 1396.26 2011.1 1394.92 2012.49 1393.41 2014.19 1391.73 2016.2 1390.06 2018.21 1388.34 2020.31 1386.57 2022.51L1381.69 2028.62C1382.55 2033.21 1383.36 2037.18 1384.13 2040.53 1384.89 2043.88 1385.57 2046.67 1386.17 2048.89 1386.77 2051.12 1387.3 2052.88 1387.75 2054.17 1388.2 2055.46 1388.7 2056.43 1389.22 2057.08 1389.75 2057.72 1390.29 2058.18 1390.84 2058.44 1391.39 2058.7 1392.02 2058.83 1392.74 2058.83 1394.03 2058.83 1395.29 2058.33 1396.51 2057.33 1397.73 2056.32 1399.49 2054.05 1401.78 2050.51L1406.45 2053.59C1403.1 2058.57 1400.07 2062.08 1397.37 2064.11 1394.66 2066.14 1391.45 2067.16 1387.71 2067.16 1385.66 2067.16 1383.91 2066.79 1382.47 2066.05 1381.04 2065.31 1379.8 2064.12 1378.74 2062.49 1377.69 2060.87 1376.76 2058.33 1375.94 2054.89 1374.46 2048.76 1373.55 2044.07 1373.22 2040.82L1372.5 2040.82C1367.43 2047.95 1363.66 2053.07 1361.19 2056.18 1358.73 2059.29 1356.69 2061.59 1355.09 2063.07 1353.49 2064.55 1351.93 2065.59 1350.43 2066.19 1348.92 2066.79 1346.92 2067.09 1344.43 2067.09 1342.18 2067.09 1340.34 2066.8 1338.91 2066.23L1341.78 2053.24 1346.8 2053.24C1347.09 2055.25 1347.93 2056.25 1349.31 2056.25 1349.98 2056.25 1350.69 2056.07 1351.43 2055.71 1352.17 2055.35 1353.24 2054.49 1354.63 2053.13 1356.01 2051.76 1357.93 2049.62 1360.37 2046.7 1362.81 2043.78 1366.35 2039.41 1370.99 2033.57 1370.27 2029.79 1369.53 2026.15 1368.77 2022.66 1368 2019.17 1367.21 2015.91 1366.4 2012.9 1365.58 2009.88 1364.91 2007.91 1364.39 2006.97 1363.86 2006.04 1363.3 2005.4 1362.7 2005.04 1362.1 2004.68 1361.35 2004.5 1360.44 2004.5 1359.43 2004.5 1358.53 2004.73 1357.71 2005.18 1356.9 2005.64 1356.01 2006.42 1355.06 2007.55 1354.1 2008.67 1352.83 2010.43 1351.25 2012.82L1346.59 2009.74C1349.6 2005.19 1352.5 2001.79 1355.27 1999.55 1358.05 1997.3 1361.32 1996.17 1365.1 1996.17Z" fill-rule="evenodd"/><text fill="#000000" fill-opacity="0" font-family="Arial,Arial_MSFontService,sans-serif" font-size="70.9878" x="1338.91" y="2058.29">𝑥</text><path d="M1444.39 2047.77C1442.51 2047.77 1440.81 2048.14 1439.29 2048.89 1437.78 2049.64 1436.45 2050.73 1435.32 2052.16 1434.19 2053.59 1433.27 2055.34 1432.55 2057.41 1431.84 2059.48 1431.38 2061.82 1431.17 2064.44L1455.41 2064.44C1455.06 2058.76 1454.03 2054.56 1452.3 2051.85 1450.58 2049.13 1447.94 2047.77 1444.39 2047.77ZM1445.01 2042.6C1448.71 2042.6 1451.89 2043.16 1454.58 2044.3 1457.26 2045.43 1459.43 2046.99 1461.11 2048.97 1461.94 2049.95 1462.69 2051.06 1463.35 2052.32 1464.01 2053.57 1464.58 2055.02 1465.05 2056.68 1465.52 2058.33 1465.89 2060.22 1466.15 2062.35 1466.41 2064.47 1466.57 2066.89 1466.64 2069.61L1430.86 2069.61 1430.86 2070.08C1430.86 2076.66 1432.08 2081.59 1434.54 2084.86 1436.99 2088.14 1440.89 2089.78 1446.22 2089.78 1447.64 2089.78 1449.01 2089.63 1450.32 2089.33 1451.62 2089.04 1452.92 2088.57 1454.21 2087.95 1455.5 2087.32 1456.8 2086.51 1458.1 2085.52 1459.41 2084.53 1460.77 2083.35 1462.2 2081.99L1465.86 2086.33C1463.91 2088.24 1462.05 2089.87 1460.3 2091.21 1458.54 2092.55 1456.79 2093.64 1455.05 2094.48 1453.3 2095.31 1451.53 2095.92 1449.72 2096.31 1447.91 2096.69 1445.99 2096.88 1443.97 2096.88 1436.03 2096.88 1430.05 2094.61 1426.05 2090.06 1422.04 2085.52 1420.04 2078.82 1420.04 2069.97 1420.04 2065.9 1420.63 2062.18 1421.82 2058.82 1423 2055.46 1424.69 2052.58 1426.88 2050.17 1429.08 2047.77 1431.71 2045.91 1434.77 2044.58 1437.84 2043.26 1441.25 2042.6 1445.01 2042.6Z" fill-rule="evenodd"/><text fill="#000000" fill-opacity="0" font-family="Arial,Arial_MSFontService,sans-serif" font-size="54.2837" x="1420.04" y="2090.1">e</text><path d="M1487.97 2049.36 1500.53 2049.36C1501.2 2052.71 1501.54 2056.01 1501.54 2059.26 1501.54 2062.61 1500.96 2065.68 1499.82 2068.45 1498.67 2071.23 1496.84 2073.99 1494.33 2076.74 1491.81 2079.49 1488.36 2082.52 1483.95 2085.82L1480.08 2081.44C1482.52 2079.15 1484.29 2077.08 1485.39 2075.24 1486.49 2073.39 1487.28 2071.3 1487.76 2068.95 1488.24 2066.61 1488.48 2063.67 1488.48 2060.13 1488.48 2056.49 1488.31 2052.9 1487.97 2049.36Z" fill-rule="evenodd"/><text fill="#000000" fill-opacity="0" font-family="Arial,Arial_MSFontService,sans-serif" font-size="36.4629" x="1480.08" y="2081.26">,</text><path d="M1550.04 1997.39 1601.07 1997.39 1602.44 2000.98 1568.2 2040.32C1561.55 2047.92 1555.78 2054.38 1550.9 2059.7L1551.33 2060.2 1567.55 2060.2C1570.42 2060.2 1572.62 2060.04 1574.16 2059.73 1575.69 2059.42 1577.03 2058.83 1578.18 2057.97 1579.32 2057.11 1580.51 2055.81 1581.73 2054.06 1582.95 2052.31 1584.47 2049.57 1586.29 2045.84L1592.67 2045.84 1588.3 2066.01 1536.33 2066.01 1534.97 2062.49 1574.23 2017.27C1579.78 2010.91 1583.85 2006.39 1586.43 2003.71L1586 2003.21 1569.2 2003.21C1566.72 2003.21 1564.9 2003.37 1563.75 2003.71 1562.6 2004.04 1561.45 2004.63 1560.3 2005.47 1559.15 2006.3 1557.92 2007.55 1556.61 2009.2 1555.29 2010.85 1553.82 2013.21 1552.19 2016.27L1545.8 2016.27Z" fill-rule="evenodd"/><text fill="#000000" fill-opacity="0" font-family="Arial,Arial_MSFontService,sans-serif" font-size="68.6191" x="1534.97" y="2057.43">𝑧</text><path d="M1631.78 2047.77C1629.9 2047.77 1628.2 2048.14 1626.68 2048.89 1625.17 2049.64 1623.84 2050.73 1622.71 2052.16 1621.58 2053.59 1620.66 2055.34 1619.94 2057.41 1619.23 2059.48 1618.77 2061.82 1618.56 2064.44L1642.8 2064.44C1642.45 2058.76 1641.42 2054.56 1639.69 2051.85 1637.97 2049.13 1635.33 2047.77 1631.78 2047.77ZM1632.4 2042.6C1636.1 2042.6 1639.28 2043.16 1641.96 2044.3 1644.65 2045.43 1646.82 2046.99 1648.5 2048.97 1649.33 2049.95 1650.08 2051.06 1650.74 2052.32 1651.4 2053.57 1651.97 2055.02 1652.44 2056.68 1652.91 2058.33 1653.28 2060.22 1653.54 2062.35 1653.8 2064.47 1653.96 2066.89 1654.03 2069.61L1618.24 2069.61 1618.24 2070.08C1618.24 2076.66 1619.47 2081.59 1621.93 2084.86 1624.38 2088.14 1628.28 2089.78 1633.61 2089.78 1635.03 2089.78 1636.4 2089.63 1637.71 2089.33 1639.01 2089.04 1640.31 2088.57 1641.6 2087.95 1642.89 2087.32 1644.19 2086.51 1645.49 2085.52 1646.8 2084.53 1648.16 2083.35 1649.59 2081.99L1653.25 2086.33C1651.3 2088.24 1649.44 2089.87 1647.69 2091.21 1645.93 2092.55 1644.18 2093.64 1642.43 2094.48 1640.69 2095.31 1638.92 2095.92 1637.11 2096.31 1635.29 2096.69 1633.38 2096.88 1631.36 2096.88 1623.42 2096.88 1617.44 2094.61 1613.44 2090.06 1609.43 2085.52 1607.43 2078.82 1607.43 2069.97 1607.43 2065.9 1608.02 2062.18 1609.21 2058.82 1610.39 2055.46 1612.08 2052.58 1614.27 2050.17 1616.47 2047.77 1619.1 2045.91 1622.16 2044.58 1625.23 2043.26 1628.64 2042.6 1632.4 2042.6Z" fill-rule="evenodd"/><text fill="#000000" fill-opacity="0" font-family="Arial,Arial_MSFontService,sans-serif" font-size="54.2837" x="1607.43" y="2090.1">e</text><path d="M1670.41 1962.29C1684.38 1965.98 1695.11 1973.93 1702.6 1986.16 1710.09 1998.39 1713.84 2013.14 1713.84 2030.41 1713.84 2047.73 1710.1 2062.48 1702.64 2074.66 1695.17 2086.84 1684.43 2094.77 1670.41 2098.46L1668.69 2092.93C1679.74 2089.24 1687.96 2081.97 1693.34 2071.11 1698.73 2060.25 1701.42 2046.44 1701.42 2029.69 1701.42 2013.52 1698.74 2000.08 1693.38 1989.39 1688.02 1978.69 1679.72 1971.5 1668.47 1967.82Z" fill-rule="evenodd"/><text fill="#000000" fill-opacity="0" font-family="Arial,Arial_MSFontService,sans-serif" font-size="136.162" x="1668.47" y="2081.43">)</text><path d="M0 0 12.8817 2236.33" stroke="#000000" stroke-width="6.875" stroke-miterlimit="8" fill="none" fill-rule="evenodd" transform="matrix(-1 0 0 1 2824.38 86.5001)"/><path d="M2755.5 702C2755.5 668.034 2785.27 640.5 2822 640.5 2858.73 640.5 2888.5 668.034 2888.5 702 2888.5 735.965 2858.73 763.5 2822 763.5 2785.27 763.5 2755.5 735.965 2755.5 702Z" stroke="#000000" stroke-width="20.625" stroke-miterlimit="8" fill="none" fill-rule="evenodd"/><path d="M1100.5 548C1100.5 514.034 1130.05 486.5 1166.5 486.5 1202.95 486.5 1232.5 514.034 1232.5 548 1232.5 581.965 1202.95 609.5 1166.5 609.5 1130.05 609.5 1100.5 581.965 1100.5 548Z" stroke="#000000" stroke-width="20.625" stroke-miterlimit="8" fill="none" fill-rule="evenodd"/><path d="M3448.08 705.5 566.5 705.5" stroke="#000000" stroke-width="6.875" stroke-miterlimit="8" fill="none" fill-rule="evenodd"/><path d="M10.3125-7.35993e-06 10.3128 454.109-10.3122 454.109-10.3125 7.35993e-06ZM30.9378 443.796 0.000360892 505.671-30.9372 443.796Z" transform="matrix(1 0 0 -1 2824.5 712.171)"/><path d="M2899.48 182.487 2969.61 182.487 2971.48 187.418 2924.44 241.469C2915.3 251.924 2907.37 260.801 2900.67 268.1L2901.26 268.79 2923.55 268.79C2927.49 268.79 2930.52 268.577 2932.62 268.149 2934.73 267.722 2936.57 266.916 2938.15 265.733 2939.72 264.549 2941.35 262.757 2943.03 260.357 2944.71 257.957 2946.79 254.193 2949.29 249.064L2958.07 249.064 2952.05 276.78 2880.64 276.78 2878.77 271.947 2932.72 209.808C2940.35 201.063 2945.94 194.849 2949.49 191.166L2948.9 190.476 2925.82 190.476C2922.4 190.476 2919.9 190.706 2918.32 191.166 2916.74 191.627 2915.17 192.432 2913.59 193.583 2912.01 194.734 2910.32 196.443 2908.51 198.712 2906.7 200.98 2904.68 204.219 2902.44 208.427L2893.66 208.427Z" fill-rule="evenodd"/><text fill="#000000" fill-opacity="0" font-family="Arial,Arial_MSFontService,sans-serif" font-size="94.293" x="2878.77" y="264.993">𝑧</text><path d="M6.81369e-06-10.3125 494.648-10.3122 494.648 10.3128-6.81369e-06 10.3125ZM484.335-30.9372 546.21 0.000360892 484.335 30.9378Z" transform="matrix(-1 0 0 1 2830.71 705.5)"/><path d="M2249.23 588.078C2251.27 588.078 2253.06 588.308 2254.6 588.768 2256.15 589.229 2257.51 589.935 2258.7 590.889 2259.88 591.842 2260.93 593.075 2261.85 594.588 2262.77 596.1 2263.66 598.155 2264.51 600.752 2265.37 603.349 2266.18 606.571 2266.93 610.418 2267.69 614.265 2268.36 618.259 2268.95 622.402L2269.94 622.402C2276.25 613.525 2281.04 607.032 2284.29 602.922 2287.55 598.812 2290.29 595.755 2292.53 593.749 2294.76 591.744 2296.92 590.33 2298.99 589.508 2301.06 588.686 2303.8 588.275 2307.22 588.275 2310.31 588.275 2312.84 588.67 2314.82 589.459L2310.87 607.311 2303.97 607.311C2303.57 604.549 2302.42 603.169 2300.52 603.169 2299.92 603.169 2299.3 603.267 2298.64 603.464 2297.98 603.662 2297.18 604.089 2296.23 604.747 2295.27 605.404 2293.87 606.687 2292.03 608.593 2290.19 610.5 2288.12 612.835 2285.82 615.596 2283.52 618.358 2281.15 621.251 2278.72 624.276L2272.01 632.66C2273.19 638.972 2274.31 644.43 2275.36 649.033 2276.42 653.636 2277.35 657.466 2278.18 660.524 2279 663.581 2279.72 665.998 2280.35 667.773 2280.97 669.548 2281.64 670.88 2282.37 671.768 2283.09 672.655 2283.83 673.28 2284.59 673.642 2285.34 674.003 2286.21 674.184 2287.2 674.184 2288.98 674.184 2290.7 673.494 2292.38 672.113 2294.06 670.732 2296.47 667.609 2299.63 662.743L2306.04 666.984C2301.44 673.823 2297.28 678.639 2293.56 681.434 2289.85 684.228 2285.43 685.626 2280.3 685.626 2277.47 685.626 2275.07 685.116 2273.1 684.097 2271.12 683.078 2269.41 681.45 2267.97 679.214 2266.52 676.979 2265.24 673.494 2264.12 668.759 2262.08 660.343 2260.83 653.899 2260.37 649.427L2259.39 649.427C2252.42 659.225 2247.24 666.261 2243.85 670.535 2240.46 674.809 2237.67 677.965 2235.47 680.004 2233.26 682.042 2231.13 683.472 2229.06 684.294 2226.99 685.116 2224.24 685.527 2220.82 685.527 2217.73 685.527 2215.2 685.132 2213.23 684.343L2217.17 666.491 2224.08 666.491C2224.47 669.253 2225.62 670.633 2227.53 670.633 2228.45 670.633 2229.42 670.387 2230.44 669.894 2231.46 669.401 2232.92 668.217 2234.83 666.343 2236.73 664.469 2239.36 661.526 2242.72 657.515 2246.07 653.504 2250.94 647.488 2257.31 639.465 2256.33 634.271 2255.31 629.273 2254.26 624.473 2253.21 619.673 2252.12 615.202 2251 611.059 2249.88 606.917 2248.96 604.204 2248.24 602.922 2247.52 601.64 2246.74 600.752 2245.92 600.259 2245.1 599.766 2244.06 599.519 2242.82 599.519 2241.43 599.519 2240.19 599.832 2239.07 600.456 2237.95 601.081 2236.73 602.166 2235.42 603.711 2234.1 605.256 2232.36 607.673 2230.19 610.961L2223.78 606.719C2227.92 600.473 2231.9 595.804 2235.71 592.714 2239.53 589.623 2244.03 588.078 2249.23 588.078Z" fill-rule="evenodd"/><text fill="#000000" fill-opacity="0" font-family="Arial,Arial_MSFontService,sans-serif" font-size="97.5479" x="2213.23" y="673.432">𝑥</text><path d="M1035.94 561.417 1035.94 689.145 1029.06 689.145 1029.06 561.417ZM1018.75 566 1032.5 538.5 1046.25 566ZM1046.25 684.562 1032.5 712.062 1018.75 684.562Z"/><path d="M842.057 538.419 846.811 538.419 826.991 627.606C825.81 632.923 825.219 636.898 825.219 639.53 825.219 641.678 825.568 643.236 826.266 644.203 826.964 645.169 828.066 645.653 829.569 645.653 831.181 645.653 832.9 644.995 834.726 643.679 836.552 642.363 839.13 639.852 842.46 636.146L847.052 640.658C841.842 646.136 837.586 649.882 834.283 651.897 830.979 653.911 827.287 654.918 823.205 654.918 819.714 654.918 816.921 653.642 814.826 651.091 812.731 648.54 811.684 645.277 811.684 641.302 811.684 637.703 812.436 632.494 813.94 625.672L828.361 561.139C829.005 558.292 829.462 556.023 829.731 554.331 829.999 552.639 830.133 551.068 830.133 549.618 830.133 548.006 829.838 546.784 829.247 545.952 828.656 545.119 827.81 544.515 826.709 544.139 825.608 543.763 823.634 543.495 820.788 543.333L821.755 539.144Z" fill-rule="evenodd"/><text fill="#000000" fill-opacity="0" font-family="Arial,Arial_MSFontService,sans-serif" font-size="116.499" x="811.684" y="640.355">𝑙</text><path d="M892.721 635.578C890.728 635.578 888.775 635.949 886.861 636.691 884.947 637.433 883.238 638.41 881.734 639.621 880.23 640.832 879.019 642.209 878.101 643.752 877.183 645.295 876.724 646.887 876.724 648.527L876.724 665.695C876.724 668.976 876.998 671.701 877.545 673.869 878.092 676.037 878.961 677.775 880.152 679.084 881.344 680.392 882.867 681.32 884.722 681.867 886.578 682.414 888.834 682.687 891.49 682.687 896.529 682.687 900.347 680.705 902.945 676.74 905.543 672.775 906.842 666.926 906.842 659.191 906.842 643.449 902.135 635.578 892.721 635.578ZM933.263 628.723 982.189 628.723 982.189 632.59 947.56 681.457 964.26 681.457C966.291 681.457 967.892 681.369 969.064 681.193 970.236 681.017 971.203 680.519 971.965 679.699 972.726 678.879 973.42 677.648 974.045 676.008 974.67 674.367 975.451 672.082 976.388 669.152L982.541 669.152 982.541 687.316 932.853 687.316 932.853 683.566 967.541 634.582 950.314 634.582C948.908 634.582 947.678 634.748 946.623 635.08 945.568 635.412 944.621 636.008 943.781 636.867 942.941 637.726 942.16 638.889 941.437 640.353 940.715 641.818 940.002 643.664 939.299 645.891L933.263 645.891ZM872.564 602.297 876.724 602.297 876.724 638.039 876.842 638.039C878.912 636.008 880.787 634.328 882.467 633 884.146 631.672 885.758 630.607 887.301 629.807 888.844 629.006 890.396 628.439 891.959 628.107 893.521 627.775 895.221 627.57 897.056 627.492 900.455 627.492 903.521 628.146 906.256 629.455 908.99 630.764 911.324 632.687 913.258 635.226 915.191 637.766 916.685 640.9 917.74 644.631 918.795 648.361 919.322 652.629 919.322 657.433 919.322 662.863 918.638 667.521 917.271 671.408 915.904 675.295 914.01 678.498 911.588 681.017 909.166 683.537 906.285 685.392 902.945 686.584 899.605 687.775 895.963 688.371 892.017 688.371 888.658 688.371 885.572 688.088 882.76 687.521 879.947 686.955 877.135 686.008 874.322 684.68 872.799 685.969 871.334 687.199 869.928 688.371 869.146 688.176 868.355 688.019 867.555 687.902 866.754 687.785 865.963 687.629 865.181 687.433L865.181 622.629C865.181 620.519 865.191 618.693 865.211 617.15 865.23 615.607 865.181 614.289 865.064 613.195 864.947 612.101 864.742 611.193 864.449 610.471 864.156 609.748 863.697 609.152 863.072 608.683 862.447 608.215 861.637 607.834 860.64 607.541 859.644 607.248 858.385 606.984 856.861 606.75L856.861 602.883Z" fill-rule="evenodd"/><text fill="#000000" fill-opacity="0" font-family="Arial,Arial_MSFontService,sans-serif" font-size="86.0742" x="856.861" y="677.612">bz</text><path d="M1754.3 1264.5 1756.24 1270.03C1745.04 1273.72 1736.75 1280.91 1731.37 1291.6 1725.98 1302.3 1723.29 1315.73 1723.29 1331.9 1723.29 1348.65 1725.98 1362.46 1731.37 1373.32 1736.75 1384.18 1744.97 1391.45 1756.02 1395.14L1754.3 1400.67C1740.28 1396.98 1729.54 1389.05 1722.07 1376.87 1714.61 1364.69 1710.87 1349.94 1710.87 1332.62 1710.87 1315.35 1714.62 1300.6 1722.11 1288.37 1729.6 1276.14 1740.33 1268.19 1754.3 1264.5Z" fill-rule="evenodd"/><text fill="#000000" fill-opacity="0" font-family="Arial,Arial_MSFontService,sans-serif" font-size="136.162" x="1710.87" y="1383.65">(</text><path d="M1787.04 1298.38C1788.52 1298.38 1789.82 1298.55 1790.95 1298.89 1792.07 1299.22 1793.06 1299.74 1793.93 1300.43 1794.79 1301.12 1795.55 1302.02 1796.22 1303.12 1796.89 1304.22 1797.54 1305.72 1798.16 1307.61 1798.78 1309.5 1799.37 1311.84 1799.92 1314.64 1800.47 1317.44 1800.96 1320.35 1801.39 1323.36L1802.11 1323.36C1806.7 1316.9 1810.18 1312.18 1812.55 1309.19 1814.92 1306.2 1816.92 1303.97 1818.55 1302.51 1820.17 1301.05 1821.74 1300.02 1823.25 1299.42 1824.75 1298.83 1826.75 1298.53 1829.24 1298.53 1831.49 1298.53 1833.33 1298.81 1834.77 1299.39L1831.9 1312.38 1826.87 1312.38C1826.58 1310.37 1825.75 1309.37 1824.36 1309.37 1823.93 1309.37 1823.47 1309.44 1823 1309.58 1822.52 1309.72 1821.93 1310.04 1821.24 1310.51 1820.54 1310.99 1819.53 1311.93 1818.19 1313.31 1816.85 1314.7 1815.34 1316.4 1813.66 1318.41 1811.99 1320.42 1810.27 1322.52 1808.5 1324.73L1803.62 1330.83C1804.48 1335.42 1805.29 1339.39 1806.06 1342.74 1806.82 1346.09 1807.5 1348.88 1808.1 1351.1 1808.7 1353.33 1809.23 1355.09 1809.68 1356.38 1810.14 1357.67 1810.63 1358.64 1811.15 1359.29 1811.68 1359.93 1812.22 1360.39 1812.77 1360.65 1813.32 1360.91 1813.95 1361.05 1814.67 1361.05 1815.96 1361.05 1817.22 1360.54 1818.44 1359.54 1819.66 1358.53 1821.42 1356.26 1823.71 1352.72L1828.38 1355.81C1825.03 1360.78 1822 1364.29 1819.3 1366.32 1816.6 1368.35 1813.38 1369.37 1809.64 1369.37 1807.59 1369.37 1805.84 1369 1804.41 1368.26 1802.97 1367.52 1801.73 1366.33 1800.67 1364.71 1799.62 1363.08 1798.69 1360.54 1797.87 1357.1 1796.39 1350.97 1795.48 1346.28 1795.15 1343.03L1794.43 1343.03C1789.36 1350.16 1785.59 1355.28 1783.12 1358.39 1780.66 1361.5 1778.63 1363.8 1777.02 1365.28 1775.42 1366.76 1773.86 1367.8 1772.36 1368.4 1770.85 1369 1768.85 1369.3 1766.36 1369.3 1764.11 1369.3 1762.27 1369.01 1760.84 1368.44L1763.71 1355.45 1768.73 1355.45C1769.02 1357.46 1769.86 1358.46 1771.24 1358.46 1771.91 1358.46 1772.62 1358.28 1773.36 1357.92 1774.1 1357.56 1775.17 1356.7 1776.56 1355.34 1777.94 1353.97 1779.86 1351.83 1782.3 1348.91 1784.74 1346 1788.28 1341.62 1792.92 1335.78 1792.2 1332 1791.46 1328.36 1790.7 1324.87 1789.93 1321.38 1789.14 1318.12 1788.33 1315.11 1787.51 1312.09 1786.84 1310.12 1786.32 1309.19 1785.79 1308.25 1785.23 1307.61 1784.63 1307.25 1784.03 1306.89 1783.28 1306.71 1782.37 1306.71 1781.36 1306.71 1780.46 1306.94 1779.64 1307.39 1778.83 1307.85 1777.94 1308.64 1776.99 1309.76 1776.03 1310.88 1774.76 1312.64 1773.18 1315.04L1768.52 1311.95C1771.53 1307.4 1774.43 1304.01 1777.2 1301.76 1779.98 1299.51 1783.25 1298.38 1787.04 1298.38Z" fill-rule="evenodd"/><text fill="#000000" fill-opacity="0" font-family="Arial,Arial_MSFontService,sans-serif" font-size="70.9878" x="1760.84" y="1360.5">𝑥</text><path d="M1867.57 1344.81C1869.28 1344.81 1870.88 1344.86 1872.38 1344.97 1873.88 1345.07 1875.3 1345.23 1876.66 1345.44 1878.02 1345.64 1879.34 1345.9 1880.63 1346.19 1881.92 1346.49 1883.19 1346.81 1884.45 1347.16L1884.45 1359.07 1876.77 1359.07C1875.93 1355.83 1874.73 1353.51 1873.16 1352.1 1871.59 1350.69 1869.42 1349.98 1866.63 1349.98 1864.61 1349.98 1862.77 1350.45 1861.12 1351.39 1859.46 1352.33 1858.05 1353.71 1856.89 1355.52 1855.72 1357.33 1854.81 1359.57 1854.17 1362.23 1853.53 1364.9 1853.2 1367.95 1853.2 1371.4 1853.2 1374.71 1853.46 1377.65 1853.96 1380.21 1854.47 1382.77 1855.28 1384.92 1856.39 1386.66 1857.51 1388.4 1858.94 1389.72 1860.7 1390.63 1862.46 1391.53 1864.58 1391.99 1867.05 1391.99 1869.66 1391.99 1872.13 1391.44 1874.44 1390.34 1876.76 1389.24 1879.17 1387.46 1881.68 1384.99 1882.2 1385.68 1882.77 1386.35 1883.38 1387 1883.99 1387.64 1884.55 1388.29 1885.07 1388.96 1883.3 1390.84 1881.59 1392.42 1879.95 1393.71 1878.32 1395 1876.67 1396.04 1875.02 1396.85 1873.36 1397.65 1871.65 1398.22 1869.87 1398.57 1868.09 1398.92 1866.18 1399.09 1864.12 1399.09 1856.98 1399.09 1851.51 1396.79 1847.69 1392.2 1843.88 1387.6 1841.97 1380.93 1841.97 1372.19 1841.97 1368.11 1842.59 1364.39 1843.83 1361.03 1845.06 1357.67 1846.8 1354.79 1849.05 1352.38 1851.3 1349.98 1854 1348.12 1857.15 1346.79 1860.3 1345.47 1863.77 1344.81 1867.57 1344.81Z" fill-rule="evenodd"/><text fill="#000000" fill-opacity="0" font-family="Arial,Arial_MSFontService,sans-serif" font-size="54.2837" x="1841.97" y="1392.31">c</text><path d="M1904.75 1351.57 1917.31 1351.57C1917.98 1354.92 1918.31 1358.22 1918.31 1361.48 1918.31 1364.83 1917.74 1367.89 1916.59 1370.66 1915.44 1373.44 1913.61 1376.2 1911.1 1378.95 1908.59 1381.7 1905.13 1384.73 1900.73 1388.03L1896.85 1383.65C1899.29 1381.36 1901.06 1379.29 1902.16 1377.45 1903.26 1375.6 1904.05 1373.51 1904.53 1371.17 1905.01 1368.82 1905.25 1365.88 1905.25 1362.34 1905.25 1358.7 1905.08 1355.11 1904.75 1351.57Z" fill-rule="evenodd"/><text fill="#000000" fill-opacity="0" font-family="Arial,Arial_MSFontService,sans-serif" font-size="36.4629" x="1896.85" y="1383.48">,</text><path d="M1966.81 1299.6 2017.85 1299.6 2019.21 1303.19 1984.97 1342.53C1978.32 1350.13 1972.56 1356.59 1967.67 1361.91L1968.11 1362.41 1984.33 1362.41C1987.2 1362.41 1989.4 1362.25 1990.93 1361.94 1992.46 1361.63 1993.8 1361.05 1994.95 1360.18 1996.1 1359.32 1997.28 1358.02 1998.5 1356.27 1999.72 1354.53 2001.24 1351.79 2003.06 1348.05L2009.45 1348.05 2005.07 1368.22 1953.1 1368.22 1951.74 1364.71 1991 1319.49C1996.55 1313.12 2000.62 1308.6 2003.2 1305.92L2002.77 1305.42 1985.98 1305.42C1983.49 1305.42 1981.67 1305.59 1980.52 1305.92 1979.37 1306.26 1978.23 1306.84 1977.08 1307.68 1975.93 1308.52 1974.7 1309.76 1973.38 1311.41 1972.06 1313.06 1970.59 1315.42 1968.97 1318.48L1962.58 1318.48Z" fill-rule="evenodd"/><text fill="#000000" fill-opacity="0" font-family="Arial,Arial_MSFontService,sans-serif" font-size="68.6191" x="1951.74" y="1359.65">𝑧</text><path d="M2049.8 1344.81C2051.51 1344.81 2053.11 1344.86 2054.61 1344.97 2056.11 1345.07 2057.54 1345.23 2058.9 1345.44 2060.25 1345.64 2061.58 1345.9 2062.87 1346.19 2064.16 1346.49 2065.43 1346.81 2066.68 1347.16L2066.68 1359.07 2059 1359.07C2058.16 1355.83 2056.96 1353.51 2055.4 1352.1 2053.83 1350.69 2051.65 1349.98 2048.86 1349.98 2046.84 1349.98 2045.01 1350.45 2043.35 1351.39 2041.7 1352.33 2040.29 1353.71 2039.12 1355.52 2037.95 1357.33 2037.05 1359.57 2036.4 1362.23 2035.76 1364.9 2035.44 1367.95 2035.44 1371.4 2035.44 1374.71 2035.69 1377.65 2036.19 1380.21 2036.7 1382.77 2037.51 1384.92 2038.62 1386.66 2039.74 1388.4 2041.18 1389.72 2042.93 1390.63 2044.69 1391.53 2046.81 1391.99 2049.28 1391.99 2051.89 1391.99 2054.36 1391.44 2056.68 1390.34 2058.99 1389.24 2061.4 1387.46 2063.91 1384.99 2064.43 1385.68 2065 1386.35 2065.61 1387 2066.22 1387.64 2066.78 1388.29 2067.31 1388.96 2065.53 1390.84 2063.82 1392.42 2062.19 1393.71 2060.55 1395 2058.9 1396.04 2057.25 1396.85 2055.6 1397.65 2053.88 1398.22 2052.1 1398.57 2050.33 1398.92 2048.41 1399.09 2046.36 1399.09 2039.22 1399.09 2033.74 1396.79 2029.93 1392.2 2026.11 1387.6 2024.2 1380.93 2024.2 1372.19 2024.2 1368.11 2024.82 1364.39 2026.06 1361.03 2027.3 1357.67 2029.04 1354.79 2031.28 1352.38 2033.53 1349.98 2036.23 1348.12 2039.38 1346.79 2042.53 1345.47 2046.01 1344.81 2049.8 1344.81Z" fill-rule="evenodd"/><text fill="#000000" fill-opacity="0" font-family="Arial,Arial_MSFontService,sans-serif" font-size="54.2837" x="2024.2" y="1392.31">c</text><path d="M2082.03 1264.5C2096 1268.19 2106.73 1276.14 2114.22 1288.37 2121.71 1300.6 2125.45 1315.35 2125.45 1332.62 2125.45 1349.94 2121.72 1364.69 2114.26 1376.87 2106.79 1389.05 2096.05 1396.98 2082.03 1400.67L2080.3 1395.14C2091.36 1391.45 2099.58 1384.18 2104.96 1373.32 2110.34 1362.46 2113.04 1348.65 2113.04 1331.9 2113.04 1315.73 2110.36 1302.3 2105 1291.6 2099.64 1280.91 2091.33 1273.72 2080.09 1270.03Z" fill-rule="evenodd"/><text fill="#000000" fill-opacity="0" font-family="Arial,Arial_MSFontService,sans-serif" font-size="136.162" x="2080.09" y="1383.65">)</text><path d="M3009.91 1709.56 3014.67 1709.56 2994.85 1798.75C2993.66 1804.07 2993.07 1808.04 2993.07 1810.67 2993.07 1812.82 2993.42 1814.38 2994.12 1815.35 2994.82 1816.31 2995.92 1816.8 2997.42 1816.8 2999.04 1816.8 3000.75 1816.14 3002.58 1814.82 3004.41 1813.51 3006.99 1811 3010.32 1807.29L3014.91 1811.8C3009.7 1817.28 3005.44 1821.03 3002.14 1823.04 2998.83 1825.06 2995.14 1826.06 2991.06 1826.06 2987.57 1826.06 2984.78 1824.79 2982.68 1822.24 2980.59 1819.68 2979.54 1816.42 2979.54 1812.45 2979.54 1808.85 2980.29 1803.64 2981.79 1796.82L2996.22 1732.28C2996.86 1729.44 2997.32 1727.17 2997.59 1725.48 2997.85 1723.78 2997.99 1722.21 2997.99 1720.76 2997.99 1719.15 2997.69 1717.93 2997.1 1717.1 2996.51 1716.26 2995.67 1715.66 2994.56 1715.28 2993.46 1714.91 2991.49 1714.64 2988.64 1714.48L2989.61 1710.29Z" fill-rule="evenodd"/><text fill="#000000" fill-opacity="0" font-family="Arial,Arial_MSFontService,sans-serif" font-size="116.499" x="2979.54" y="1811.5">𝑙</text><path d="M3066.96 1798.64C3069.38 1798.64 3071.69 1798.87 3073.88 1799.34L3073.88 1813.87 3066.38 1813.87C3065.95 1812.78 3065.5 1811.83 3065.03 1811.03 3064.56 1810.23 3064.02 1809.56 3063.42 1809.04 3062.81 1808.51 3062.11 1808.12 3061.31 1807.87 3060.51 1807.61 3059.56 1807.48 3058.47 1807.48 3057.33 1807.48 3056.05 1807.85 3054.63 1808.57 3053.2 1809.29 3051.86 1810.28 3050.61 1811.53 3049.36 1812.78 3048.32 1814.22 3047.48 1815.86 3046.64 1817.5 3046.22 1819.24 3046.22 1821.08L3046.22 1843.52C3046.22 1845.98 3046.33 1847.87 3046.54 1849.17 3046.76 1850.48 3047.16 1851.47 3047.74 1852.13 3048.33 1852.8 3049.13 1853.28 3050.15 1853.57 3051.16 1853.86 3052.49 1854.24 3054.13 1854.71L3054.13 1858.46 3027.7 1858.46 3027.7 1854.71C3029.23 1854.16 3030.45 1853.73 3031.37 1853.42 3032.28 1853.11 3032.99 1852.63 3033.48 1851.99 3033.96 1851.34 3034.28 1850.39 3034.41 1849.14 3034.55 1847.89 3034.62 1846.08 3034.62 1843.7L3034.62 1818.5C3034.62 1815.8 3034.61 1813.6 3034.59 1811.88 3034.57 1810.16 3034.34 1808.76 3033.89 1807.69 3033.44 1806.62 3032.68 1805.8 3031.6 1805.23 3030.53 1804.66 3028.94 1804.2 3026.83 1803.85L3026.83 1799.87 3042.18 1799.22 3046.34 1799.22 3045.52 1809.65C3045.63 1809.73 3045.73 1809.78 3045.81 1809.8 3045.89 1809.82 3045.99 1809.87 3046.1 1809.95 3047.98 1807.91 3049.71 1806.18 3051.29 1804.73 3052.87 1803.29 3054.47 1802.11 3056.09 1801.21 3057.71 1800.32 3059.39 1799.66 3061.13 1799.25 3062.87 1798.84 3064.81 1798.64 3066.96 1798.64Z" fill-rule="evenodd"/><text fill="#000000" fill-opacity="0" font-family="Arial,Arial_MSFontService,sans-serif" font-size="59.8242" x="3026.83" y="1850.98">r</text><g><path d="M2396.89 1229.33C2444.24 1229.33 2482.61 1267.71 2482.61 1315.06L2396.89 1315.06Z" stroke="#000000" stroke-width="6.875" stroke-linejoin="round" stroke-miterlimit="10" fill="#FFFFFF" fill-rule="evenodd"/></g><g><path d="M2482.61 1315.06C2482.61 1362.4 2444.24 1400.78 2396.89 1400.78L2396.89 1315.06Z" stroke="#000000" stroke-width="6.875" stroke-linejoin="round" stroke-miterlimit="10" fill-rule="evenodd"/></g><g><path d="M2396.89 1400.78C2349.55 1400.78 2311.17 1362.4 2311.17 1315.06L2396.89 1315.06Z" stroke="#000000" stroke-width="6.875" stroke-linejoin="round" stroke-miterlimit="10" fill="#FFFFFF" fill-rule="evenodd"/></g><g><path d="M2311.17 1315.06C2311.17 1267.71 2349.55 1229.33 2396.89 1229.33L2396.89 1315.06Z" stroke="#000000" stroke-width="6.875" stroke-linejoin="round" stroke-miterlimit="10" fill-rule="evenodd"/></g><path d="M0 0 1044.31 1500.35" stroke="#000000" stroke-width="6.875" stroke-miterlimit="8" stroke-dasharray="55 20.625 6.875 20.625" fill="none" fill-rule="evenodd" transform="matrix(-1 0 0 1 2910.81 574.5)"/><path d="M0 0 1924.86 5.27119" stroke="#000000" stroke-width="6.875" stroke-miterlimit="8" stroke-dasharray="55 20.625 6.875 20.625" fill="none" fill-rule="evenodd" transform="matrix(-1 0 0 1 2957.36 538.5)"/><path d="M1163.5 415.5 1163.5 776.349" stroke="#000000" stroke-width="6.875" stroke-miterlimit="8" stroke-dasharray="55 20.625 6.875 20.625" fill="none" fill-rule="evenodd"/><path d="M2753.5 2393.54 1863.5 1800.5" stroke="#000000" stroke-width="6.875" stroke-miterlimit="8" stroke-dasharray="55 20.625 6.875 20.625" fill="none" fill-rule="evenodd"/><path d="M3546 1190.63 2684.5 616.5" stroke="#000000" stroke-width="6.875" stroke-miterlimit="8" stroke-dasharray="55 20.625 6.875 20.625" fill="none" fill-rule="evenodd"/><path d="M2941.98 1684.39 2365.5 1300.5" stroke="#000000" stroke-width="6.875" stroke-miterlimit="8" stroke-dasharray="55 20.625 6.875 20.625" fill="none" fill-rule="evenodd"/><path d="M15.7291 17.0194 403.678 587.58 397.993 591.446 10.0438 20.885ZM4.09211 30.4724 0 0 26.8332 15.0098ZM409.629 577.991 413.721 608.464 386.888 593.454Z" transform="matrix(1 0 0 -1 2931.5 1670.96)"/><path d="M3038.19 1132.95 3042.42 1132.95 3024.77 1212.4C3023.71 1217.14 3023.19 1220.68 3023.19 1223.03 3023.19 1224.94 3023.5 1226.33 3024.12 1227.19 3024.74 1228.05 3025.72 1228.48 3027.06 1228.48 3028.5 1228.48 3030.03 1227.9 3031.66 1226.72 3033.28 1225.55 3035.58 1223.31 3038.55 1220.01L3042.64 1224.03C3038 1228.91 3034.2 1232.25 3031.26 1234.04 3028.32 1235.84 3025.03 1236.74 3021.39 1236.74 3018.28 1236.74 3015.79 1235.6 3013.93 1233.33 3012.06 1231.05 3011.13 1228.15 3011.13 1224.61 3011.13 1221.4 3011.8 1216.76 3013.14 1210.68L3025.99 1153.19C3026.56 1150.65 3026.97 1148.63 3027.21 1147.12 3027.45 1145.61 3027.56 1144.21 3027.56 1142.92 3027.56 1141.49 3027.3 1140.4 3026.78 1139.66 3026.25 1138.92 3025.5 1138.38 3024.51 1138.04 3023.53 1137.71 3021.77 1137.47 3019.24 1137.32L3020.1 1133.59Z" fill-rule="evenodd"/><text fill="#000000" fill-opacity="0" font-family="Arial,Arial_MSFontService,sans-serif" font-size="103.79" x="3011.13" y="1223.76">𝑙</text><path d="M3089.01 1212.17C3091.17 1212.17 3093.22 1212.38 3095.17 1212.8L3095.17 1225.76 3088.49 1225.76C3088.1 1224.78 3087.7 1223.94 3087.28 1223.22 3086.87 1222.51 3086.39 1221.92 3085.85 1221.45 3085.31 1220.98 3084.68 1220.63 3083.97 1220.4 3083.25 1220.18 3082.41 1220.06 3081.43 1220.06 3080.42 1220.06 3079.28 1220.38 3078.01 1221.03 3076.74 1221.67 3075.55 1222.55 3074.43 1223.67 3073.32 1224.78 3072.38 1226.07 3071.64 1227.53 3070.89 1229 3070.51 1230.55 3070.51 1232.18L3070.51 1252.19C3070.51 1254.39 3070.61 1256.07 3070.8 1257.24 3070.99 1258.4 3071.35 1259.28 3071.87 1259.87 3072.39 1260.47 3073.11 1260.89 3074.01 1261.15 3074.92 1261.42 3076.1 1261.75 3077.57 1262.17L3077.57 1265.52 3054 1265.52 3054 1262.17C3055.36 1261.69 3056.45 1261.3 3057.27 1261.02 3058.09 1260.74 3058.71 1260.32 3059.15 1259.74 3059.58 1259.17 3059.86 1258.32 3059.98 1257.21 3060.11 1256.09 3060.17 1254.48 3060.17 1252.35L3060.17 1229.88C3060.17 1227.48 3060.16 1225.51 3060.14 1223.98 3060.12 1222.45 3059.92 1221.2 3059.51 1220.25 3059.11 1219.29 3058.43 1218.56 3057.48 1218.05 3056.52 1217.55 3055.1 1217.14 3053.22 1216.82L3053.22 1213.27 3066.91 1212.7 3070.62 1212.7 3069.89 1222C3069.99 1222.07 3070.08 1222.11 3070.15 1222.13 3070.22 1222.14 3070.3 1222.19 3070.41 1222.26 3072.08 1220.45 3073.62 1218.9 3075.03 1217.61 3076.44 1216.32 3077.87 1215.27 3079.32 1214.47 3080.76 1213.67 3082.26 1213.09 3083.81 1212.72 3085.36 1212.36 3087.09 1212.17 3089.01 1212.17Z" fill-rule="evenodd"/><text fill="#000000" fill-opacity="0" font-family="Arial,Arial_MSFontService,sans-serif" font-size="53.3433" x="3053.22" y="1258.85">r</text><path d="M3053.27 1345.58C3062.17 1345.58 3068.89 1347.53 3073.43 1351.43 3077.98 1355.33 3080.25 1360.99 3080.25 1368.4 3080.25 1370.94 3080 1373.27 3079.5 1375.4 3079 1377.53 3078.21 1379.64 3077.13 1381.72 3076.05 1383.8 3074.61 1386.04 3072.79 1388.43 3070.97 1390.82 3068.96 1393.25 3066.76 1395.71 3064.56 1398.18 3060.75 1402.28 3055.35 1408.02 3046.25 1417.64 3039.58 1426.04 3035.32 1433.22L3062.38 1433.22C3064.73 1433.22 3066.62 1433.07 3068.05 1432.79 3069.49 1432.5 3070.64 1432.02 3071.5 1431.35 3072.36 1430.68 3073.04 1429.81 3073.54 1428.73 3074.04 1427.65 3074.68 1425.99 3075.44 1423.74L3081.55 1423.74 3080.33 1444.7 3021.25 1444.7 3021.25 1441.26C3023.31 1436.23 3026.09 1431.09 3029.58 1425.82 3033.07 1420.56 3038.02 1414.36 3044.44 1407.23 3049.99 1401.11 3053.98 1396.47 3056.42 1393.31 3059.1 1389.86 3061.1 1386.89 3062.42 1384.37 3063.73 1381.86 3064.68 1379.49 3065.25 1377.27 3065.83 1375.04 3066.11 1372.8 3066.11 1370.56 3066.11 1366.97 3065.54 1363.8 3064.39 1361.05 3063.24 1358.29 3061.48 1356.13 3059.11 1354.55 3056.75 1352.97 3053.77 1352.18 3050.18 1352.18 3041.23 1352.18 3035.2 1357.16 3032.09 1367.11L3023.41 1367.11 3023.41 1353.33C3029.2 1350.6 3034.61 1348.63 3039.66 1347.41 3044.71 1346.19 3049.25 1345.58 3053.27 1345.58Z" fill-rule="evenodd"/><text fill="#000000" fill-opacity="0" font-family="Arial,Arial_MSFontService,sans-serif" font-size="99.1245" x="3021.25" y="1432.31">2</text><path d="M3001.46 1299.59 3052.96 1299.59 3104.46 1299.59 3104.46 1309.59 3052.96 1309.59 3001.46 1309.59Z" fill-rule="evenodd"/><path d="M2807.75 1662.08C2646.37 1735.43 2430.32 1668.03 2325.19 1511.53 2317.46 1500.02 2310.45 1488.19 2304.22 1476.11" stroke="#000000" stroke-width="6.875" stroke-miterlimit="8" fill="none" fill-rule="evenodd"/><path d="M2875.01 537.75C2979.52 557.265 3049.18 653.745 3030.6 753.244 3012.02 852.743 2912.23 917.582 2807.72 898.066 2755.67 888.345 2709.72 858.635 2680.7 815.929" stroke="#000000" stroke-width="20.625" stroke-miterlimit="8" fill="none" fill-rule="evenodd"/><path d="M2299.26 1528.63 2298.39 1471.56 2349.73 1496.5Z" stroke="#000000" stroke-width="6.875" stroke-miterlimit="8" fill-rule="evenodd"/><path d="M1.33787-3.16647 224.744 91.2249 222.068 97.5579-1.33787 3.16647ZM224.535 79.9417 244.515 103.311 213.832 105.273Z" transform="matrix(1 0 0 -1 1730.5 1991.81)"/></g></svg>